%TF.GenerationSoftware,KiCad,Pcbnew,7.0.1*%
%TF.CreationDate,2023-04-06T17:16:12+02:00*%
%TF.ProjectId,rtl8762ckf-dev-board,72746c38-3736-4326-936b-662d6465762d,0.1.0*%
%TF.SameCoordinates,Original*%
%TF.FileFunction,Soldermask,Bot*%
%TF.FilePolarity,Negative*%
%FSLAX46Y46*%
G04 Gerber Fmt 4.6, Leading zero omitted, Abs format (unit mm)*
G04 Created by KiCad (PCBNEW 7.0.1) date 2023-04-06 17:16:12*
%MOMM*%
%LPD*%
G01*
G04 APERTURE LIST*
%ADD10C,0.600000*%
%ADD11O,2.000000X0.900000*%
%ADD12O,1.700000X0.900000*%
%ADD13R,1.700000X1.700000*%
%ADD14O,1.700000X1.700000*%
%ADD15R,1.000000X1.000000*%
%ADD16O,1.000000X1.000000*%
G04 APERTURE END LIST*
D10*
%TO.C,J7*%
X132895000Y-124110000D03*
X132895000Y-129890000D03*
D11*
X133375000Y-122680000D03*
D12*
X129205000Y-122680000D03*
D11*
X133375000Y-131320000D03*
D12*
X129205000Y-131320000D03*
%TD*%
D13*
%TO.C,J2*%
X175260000Y-132080000D03*
D14*
X172720000Y-132080000D03*
X175260000Y-129540000D03*
X172720000Y-129540000D03*
X175260000Y-127000000D03*
X172720000Y-127000000D03*
X175260000Y-124460000D03*
X172720000Y-124460000D03*
X175260000Y-121920000D03*
X172720000Y-121920000D03*
%TD*%
D13*
%TO.C,J3*%
X180340000Y-132080000D03*
D14*
X182880000Y-132080000D03*
X180340000Y-129540000D03*
X182880000Y-129540000D03*
X180340000Y-127000000D03*
X182880000Y-127000000D03*
X180340000Y-124460000D03*
X182880000Y-124460000D03*
X180340000Y-121920000D03*
X182880000Y-121920000D03*
%TD*%
D15*
%TO.C,J1*%
X166370000Y-133350000D03*
D16*
X165100000Y-133350000D03*
%TD*%
D13*
%TO.C,J4*%
X210820000Y-119380000D03*
D14*
X208280000Y-119380000D03*
X205740000Y-119380000D03*
X203200000Y-119380000D03*
X200660000Y-119380000D03*
X198120000Y-119380000D03*
X195580000Y-119380000D03*
X193040000Y-119380000D03*
X190500000Y-119380000D03*
X187960000Y-119380000D03*
X185420000Y-119380000D03*
X182880000Y-119380000D03*
X180340000Y-119380000D03*
%TD*%
D13*
%TO.C,J5*%
X180340000Y-134620000D03*
D14*
X182880000Y-134620000D03*
X185420000Y-134620000D03*
X187960000Y-134620000D03*
X190500000Y-134620000D03*
X193040000Y-134620000D03*
X195580000Y-134620000D03*
X198120000Y-134620000D03*
X200660000Y-134620000D03*
X203200000Y-134620000D03*
X205740000Y-134620000D03*
X208280000Y-134620000D03*
X210820000Y-134620000D03*
X213360000Y-134620000D03*
X215900000Y-134620000D03*
X218440000Y-134620000D03*
X220980000Y-134620000D03*
X223520000Y-134620000D03*
%TD*%
M02*
