M48
; DRILL file {KiCad 7.0.1} date 2023-04-19T15:23:11 CEST
; FORMAT={-:-/ absolute / metric / decimal}
; #@! TF.CreationDate,2023-04-19T15:23:11+02:00
; #@! TF.GenerationSoftware,Kicad,Pcbnew,7.0.1
; #@! TF.FileFunction,Plated,1,2,PTH
FMAT,2
METRIC
; #@! TA.AperFunction,Plated,PTH,ViaDrill
T1C0.300
; #@! TA.AperFunction,Plated,PTH,ComponentDrill
T2C0.600
; #@! TA.AperFunction,Plated,PTH,ComponentDrill
T3C0.650
; #@! TA.AperFunction,Plated,PTH,ComponentDrill
T4C1.000
%
G90
G05
T1
X131.572Y-127.0
X132.08Y-120.65
X132.08Y-133.35
X134.62Y-120.65
X134.62Y-133.35
X135.115Y-124.473
X135.128Y-123.444
X135.128Y-129.54
X135.128Y-130.556
X135.89Y-124.46
X139.065Y-124.46
X139.7Y-121.92
X139.7Y-127.635
X142.24Y-121.92
X142.24Y-125.73
X143.51Y-128.27
X143.51Y-132.08
X144.78Y-121.92
X146.685Y-125.095
X146.685Y-132.715
X147.32Y-121.92
X147.955Y-133.35
X148.59Y-125.73
X150.495Y-133.35
X151.13Y-125.73
X151.13Y-128.27
X151.13Y-130.81
X151.765Y-120.65
X151.765Y-132.715
X152.4Y-121.285
X152.4Y-126.238
X153.67Y-125.095
X155.194Y-121.158
X156.21Y-131.445
X156.845Y-130.81
X157.48Y-123.19
X157.48Y-125.73
X157.48Y-132.08
X158.115Y-121.285
X158.242Y-128.016
X158.496Y-130.556
X158.75Y-120.65
X158.75Y-131.572
X158.75Y-132.715
X159.258Y-128.031
X159.893Y-131.572
X160.02Y-123.19
X160.02Y-132.715
X160.655Y-130.81
X161.29Y-132.08
X161.925Y-121.285
X161.925Y-130.175
X162.56Y-123.19
X163.195Y-120.015
X163.195Y-130.175
X166.37Y-123.825
X167.64Y-122.555
X168.275Y-130.81
X168.91Y-131.445
X171.45Y-121.285
X171.45Y-122.555
X171.45Y-123.825
X171.45Y-125.095
X171.45Y-126.365
X171.45Y-127.635
X172.72Y-120.015
X172.72Y-133.985
X175.26Y-120.015
X175.26Y-133.985
X191.77Y-128.27
X193.675Y-128.27
X196.85Y-124.968
X197.104Y-126.492
X197.866Y-123.19
X198.882Y-123.19
X200.406Y-132.334
X200.66Y-130.556
X200.914Y-122.682
X201.422Y-129.794
X201.422Y-132.334
X201.93Y-123.698
X201.93Y-127.0
X202.946Y-122.174
X204.47Y-122.174
X204.47Y-124.46
X204.47Y-129.54
X206.502Y-122.682
X207.01Y-127.0
X208.534Y-124.968
X210.058Y-127.508
X210.312Y-131.064
X210.566Y-121.412
X211.074Y-122.682
X211.074Y-126.238
X211.328Y-127.508
X211.328Y-131.064
X211.582Y-129.286
X212.598Y-126.238
X212.598Y-129.286
X213.36Y-120.65
X214.63Y-121.92
X215.9Y-123.19
X218.44Y-125.73
X220.98Y-128.27
X222.25Y-129.54
X223.52Y-130.81
T3
X165.1Y-133.35
X166.37Y-133.35
T4
X172.72Y-121.92
X172.72Y-124.46
X172.72Y-127.0
X172.72Y-129.54
X172.72Y-132.08
X175.26Y-121.92
X175.26Y-124.46
X175.26Y-127.0
X175.26Y-129.54
X175.26Y-132.08
X180.34Y-119.38
X180.34Y-121.92
X180.34Y-124.46
X180.34Y-127.0
X180.34Y-129.54
X180.34Y-132.08
X180.34Y-134.62
X182.88Y-119.38
X182.88Y-121.92
X182.88Y-124.46
X182.88Y-127.0
X182.88Y-129.54
X182.88Y-132.08
X182.88Y-134.62
X185.42Y-119.38
X185.42Y-134.62
X187.96Y-119.38
X187.96Y-134.62
X190.5Y-119.38
X190.5Y-134.62
X193.04Y-119.38
X193.04Y-134.62
X195.58Y-119.38
X195.58Y-134.62
X198.12Y-119.38
X198.12Y-134.62
X200.66Y-119.38
X200.66Y-134.62
X203.2Y-119.38
X203.2Y-134.62
X205.74Y-119.38
X205.74Y-134.62
X208.28Y-119.38
X208.28Y-134.62
X210.82Y-119.38
X210.82Y-134.62
X213.36Y-134.62
X215.9Y-134.62
X218.44Y-134.62
X220.98Y-134.62
X223.52Y-134.62
T2
X128.805Y-122.68G85X129.605Y-122.68
G05
X128.805Y-131.32G85X129.605Y-131.32
G05
X132.825Y-122.68G85X133.925Y-122.68
G05
X132.825Y-131.32G85X133.925Y-131.32
G05
T0
M30
