%TF.GenerationSoftware,KiCad,Pcbnew,7.0.1*%
%TF.CreationDate,2023-04-19T17:15:17+02:00*%
%TF.ProjectId,rtl8762ckf-dev-board,72746c38-3736-4326-936b-662d6465762d,0.1.0*%
%TF.SameCoordinates,Original*%
%TF.FileFunction,Copper,L2,Bot*%
%TF.FilePolarity,Positive*%
%FSLAX46Y46*%
G04 Gerber Fmt 4.6, Leading zero omitted, Abs format (unit mm)*
G04 Created by KiCad (PCBNEW 7.0.1) date 2023-04-19 17:15:17*
%MOMM*%
%LPD*%
G01*
G04 APERTURE LIST*
%TA.AperFunction,ComponentPad*%
%ADD10O,2.000000X0.900000*%
%TD*%
%TA.AperFunction,ComponentPad*%
%ADD11O,1.700000X0.900000*%
%TD*%
%TA.AperFunction,ComponentPad*%
%ADD12R,1.700000X1.700000*%
%TD*%
%TA.AperFunction,ComponentPad*%
%ADD13O,1.700000X1.700000*%
%TD*%
%TA.AperFunction,ComponentPad*%
%ADD14R,1.000000X1.000000*%
%TD*%
%TA.AperFunction,ComponentPad*%
%ADD15O,1.000000X1.000000*%
%TD*%
%TA.AperFunction,ViaPad*%
%ADD16C,0.560000*%
%TD*%
%TA.AperFunction,Conductor*%
%ADD17C,0.200000*%
%TD*%
%TA.AperFunction,Conductor*%
%ADD18C,0.127000*%
%TD*%
G04 APERTURE END LIST*
D10*
%TO.P,J7,S1,SHIELD*%
%TO.N,Earth*%
X133375000Y-122680000D03*
D11*
X129205000Y-122680000D03*
D10*
X133375000Y-131320000D03*
D11*
X129205000Y-131320000D03*
%TD*%
D12*
%TO.P,J2,1,Pin_1*%
%TO.N,+3V3*%
X175260000Y-132080000D03*
D13*
%TO.P,J2,2,Pin_2*%
X172720000Y-132080000D03*
%TO.P,J2,3,Pin_3*%
%TO.N,GND*%
X175260000Y-129540000D03*
%TO.P,J2,4,Pin_4*%
X172720000Y-129540000D03*
%TO.P,J2,5,Pin_5*%
%TO.N,/UART_{RP2040}.TX*%
X175260000Y-127000000D03*
%TO.P,J2,6,Pin_6*%
%TO.N,/UART_{RP2040}.RX*%
X172720000Y-127000000D03*
%TO.P,J2,7,Pin_7*%
%TO.N,/SWD.SWDIO*%
X175260000Y-124460000D03*
%TO.P,J2,8,Pin_8*%
%TO.N,/SWD.SWCLK*%
X172720000Y-124460000D03*
%TO.P,J2,9,Pin_9*%
%TO.N,/UART_{RP2040}.RTS*%
X175260000Y-121920000D03*
%TO.P,J2,10,Pin_10*%
%TO.N,/UART_{RP2040}.DTR*%
X172720000Y-121920000D03*
%TD*%
D12*
%TO.P,J3,1,Pin_1*%
%TO.N,+3V3*%
X180340000Y-132080000D03*
D13*
%TO.P,J3,2,Pin_2*%
X182880000Y-132080000D03*
%TO.P,J3,3,Pin_3*%
%TO.N,GND*%
X180340000Y-129540000D03*
%TO.P,J3,4,Pin_4*%
X182880000Y-129540000D03*
%TO.P,J3,5,Pin_5*%
%TO.N,/UART_{RTL8762C}.RX*%
X180340000Y-127000000D03*
%TO.P,J3,6,Pin_6*%
%TO.N,/UART_{RTL8762C}.TX*%
X182880000Y-127000000D03*
%TO.P,J3,7,Pin_7*%
%TO.N,/SWD.SWDIO*%
X180340000Y-124460000D03*
%TO.P,J3,8,Pin_8*%
%TO.N,/SWD.SWCLK*%
X182880000Y-124460000D03*
%TO.P,J3,9,Pin_9*%
%TO.N,/UART_{RTL8762C}.RST*%
X180340000Y-121920000D03*
%TO.P,J3,10,Pin_10*%
%TO.N,/UART_{RTL8762C}.LOG*%
X182880000Y-121920000D03*
%TD*%
D14*
%TO.P,J1,1,Pin_1*%
%TO.N,GND*%
X166370000Y-133350000D03*
D15*
%TO.P,J1,2,Pin_2*%
%TO.N,/RP2040/~{USB_BOOT}*%
X165100000Y-133350000D03*
%TD*%
D12*
%TO.P,J4,1,Pin_1*%
%TO.N,/LED*%
X210820000Y-119380000D03*
D13*
%TO.P,J4,2,Pin_2*%
%TO.N,/RTL8762CKF/P4_2*%
X208280000Y-119380000D03*
%TO.P,J4,3,Pin_3*%
%TO.N,/RTL8762CKF/P4_1*%
X205740000Y-119380000D03*
%TO.P,J4,4,Pin_4*%
%TO.N,/RTL8762CKF/P4_0*%
X203200000Y-119380000D03*
%TO.P,J4,5,Pin_5*%
%TO.N,/RTL8762CKF/P0_7*%
X200660000Y-119380000D03*
%TO.P,J4,6,Pin_6*%
%TO.N,/RTL8762CKF/P0_6*%
X198120000Y-119380000D03*
%TO.P,J4,7,Pin_7*%
%TO.N,/RTL8762CKF/P0_5*%
X195580000Y-119380000D03*
%TO.P,J4,8,Pin_8*%
%TO.N,/RTL8762CKF/P0_4*%
X193040000Y-119380000D03*
%TO.P,J4,9,Pin_9*%
%TO.N,/RTL8762CKF/P0_2*%
X190500000Y-119380000D03*
%TO.P,J4,10,Pin_10*%
%TO.N,/RTL8762CKF/P0_1*%
X187960000Y-119380000D03*
%TO.P,J4,11,Pin_11*%
%TO.N,/RTL8762CKF/P0_0*%
X185420000Y-119380000D03*
%TO.P,J4,12,Pin_12*%
%TO.N,/RTL8762CKF/P1_6*%
X182880000Y-119380000D03*
%TO.P,J4,13,Pin_13*%
%TO.N,/BUTTON*%
X180340000Y-119380000D03*
%TD*%
D12*
%TO.P,J5,1,Pin_1*%
%TO.N,+3V3*%
X180340000Y-134620000D03*
D13*
%TO.P,J5,2,Pin_2*%
%TO.N,GND*%
X182880000Y-134620000D03*
%TO.P,J5,3,Pin_3*%
%TO.N,/RTL8762CKF/P3_6*%
X185420000Y-134620000D03*
%TO.P,J5,4,Pin_4*%
%TO.N,/RTL8762CKF/P3_5*%
X187960000Y-134620000D03*
%TO.P,J5,5,Pin_5*%
%TO.N,/RTL8762CKF/P3_4*%
X190500000Y-134620000D03*
%TO.P,J5,6,Pin_6*%
%TO.N,/RTL8762CKF/P3_3*%
X193040000Y-134620000D03*
%TO.P,J5,7,Pin_7*%
%TO.N,/RTL8762CKF/P3_2*%
X195580000Y-134620000D03*
%TO.P,J5,8,Pin_8*%
%TO.N,/RTL8762CKF/H_1*%
X198120000Y-134620000D03*
%TO.P,J5,9,Pin_9*%
%TO.N,/RTL8762CKF/H_2*%
X200660000Y-134620000D03*
%TO.P,J5,10,Pin_10*%
%TO.N,/RTL8762CKF/P2_0*%
X203200000Y-134620000D03*
%TO.P,J5,11,Pin_11*%
%TO.N,/RTL8762CKF/P2_1*%
X205740000Y-134620000D03*
%TO.P,J5,12,Pin_12*%
%TO.N,/RTL8762CKF/P2_2*%
X208280000Y-134620000D03*
%TO.P,J5,13,Pin_13*%
%TO.N,/RTL8762CKF/P2_3*%
X210820000Y-134620000D03*
%TO.P,J5,14,Pin_14*%
%TO.N,/RTL8762CKF/P2_4*%
X213360000Y-134620000D03*
%TO.P,J5,15,Pin_15*%
%TO.N,/RTL8762CKF/P2_5*%
X215900000Y-134620000D03*
%TO.P,J5,16,Pin_16*%
%TO.N,/RTL8762CKF/P2_6*%
X218440000Y-134620000D03*
%TO.P,J5,17,Pin_17*%
%TO.N,/RTL8762CKF/P2_7*%
X220980000Y-134620000D03*
%TO.P,J5,18,Pin_18*%
%TO.N,/RTL8762CKF/H_0*%
X223520000Y-134620000D03*
%TD*%
D16*
%TO.N,GND*%
X161290000Y-132080000D03*
X131572000Y-127000000D03*
X139700000Y-121920000D03*
X135890000Y-124460000D03*
X175260000Y-120015000D03*
X204470000Y-124460000D03*
X193675000Y-128270000D03*
X211328000Y-127508000D03*
X210058000Y-127508000D03*
X210312000Y-131064000D03*
X175260000Y-133985000D03*
X151130000Y-130810000D03*
X151765000Y-120650000D03*
X211582000Y-129286000D03*
X211074000Y-122682000D03*
X157480000Y-132080000D03*
X147955000Y-133350000D03*
X212598000Y-126238000D03*
X213360000Y-120650000D03*
X196850000Y-124968000D03*
X201930000Y-127000000D03*
X220980000Y-128270000D03*
X157480000Y-125730000D03*
X142240000Y-125730000D03*
X150495000Y-133350000D03*
X222250000Y-129540000D03*
X171450000Y-127635000D03*
X134620000Y-120650000D03*
X163195000Y-130175000D03*
X160020000Y-123190000D03*
X200406000Y-132334000D03*
X163195000Y-120015000D03*
X171450000Y-126365000D03*
X172720000Y-133985000D03*
X171450000Y-125095000D03*
X158750000Y-132715000D03*
X139700000Y-127635000D03*
X158750000Y-120650000D03*
X151130000Y-128270000D03*
X204470000Y-129540000D03*
X215900000Y-123190000D03*
X218440000Y-125730000D03*
X139065000Y-124460000D03*
X171450000Y-121285000D03*
X157480000Y-123190000D03*
X148590000Y-125730000D03*
X210566000Y-121412000D03*
X156210000Y-131445000D03*
X191770000Y-128270000D03*
X172720000Y-120015000D03*
X132080000Y-133350000D03*
X223520000Y-130810000D03*
X132080000Y-120650000D03*
X214630000Y-121920000D03*
X135128000Y-123444000D03*
X144780000Y-121920000D03*
X162560000Y-123190000D03*
X160020000Y-132715000D03*
X206502000Y-122682000D03*
X212598000Y-129286000D03*
X171450000Y-123825000D03*
X134620000Y-133350000D03*
X142240000Y-121920000D03*
X168275000Y-130810000D03*
X171450000Y-122555000D03*
X198882000Y-123190000D03*
X147320000Y-121920000D03*
X135128000Y-130556000D03*
X207010000Y-127000000D03*
X151130000Y-125730000D03*
%TO.N,+3V3*%
X146685000Y-125095000D03*
X158115000Y-121285000D03*
X153670000Y-125095000D03*
X204470000Y-122174000D03*
X156845000Y-130810000D03*
X197104000Y-126492000D03*
X146685000Y-132715000D03*
X155194000Y-121158000D03*
X161925000Y-121285000D03*
X166370000Y-123825000D03*
X161925000Y-130175000D03*
X151765000Y-132715000D03*
X201422000Y-132334000D03*
%TO.N,+1V2*%
X211074000Y-126238000D03*
X211328000Y-131064000D03*
X197866000Y-123190000D03*
%TO.N,VBUS*%
X135115000Y-124473000D03*
X135128000Y-129540000D03*
%TO.N,/ZVD1/A*%
X143510000Y-128270000D03*
X143510000Y-132080000D03*
%TO.N,/RP2040/DVDD*%
X152400000Y-121285000D03*
X167640000Y-122555000D03*
X168910000Y-131445000D03*
X152400000Y-126238000D03*
%TO.N,/SWD.SWDIO*%
X201930000Y-123698000D03*
X158496000Y-130556000D03*
%TO.N,/SWD.SWCLK*%
X200914000Y-122682000D03*
X158750000Y-131572000D03*
%TO.N,/UART_{RP2040}.DTR*%
X159258000Y-128030841D03*
%TO.N,/UART_{RP2040}.RTS*%
X158242000Y-128016000D03*
%TO.N,/UART_{RP2040}.RX*%
X160655000Y-130810000D03*
%TO.N,/UART_{RP2040}.TX*%
X159893000Y-131572000D03*
%TO.N,/UART_{RTL8762C}.LOG*%
X202946000Y-122174000D03*
%TO.N,/UART_{RTL8762C}.RST*%
X208534000Y-124968000D03*
%TO.N,/UART_{RTL8762C}.TX*%
X200660000Y-130556000D03*
%TO.N,/UART_{RTL8762C}.RX*%
X201422000Y-129794000D03*
%TD*%
D17*
%TO.N,+3V3*%
X156845000Y-130810000D02*
X156845000Y-132715000D01*
X157480000Y-121920000D02*
X158115000Y-121920000D01*
X170815000Y-130175000D02*
X164465000Y-130175000D01*
X161925000Y-130810000D02*
X161925000Y-130175000D01*
X156845000Y-132715000D02*
X157480000Y-133350000D01*
X201422000Y-126492000D02*
X197104000Y-126492000D01*
X156210000Y-125095000D02*
X156210000Y-130175000D01*
X145415000Y-127000000D02*
X145415000Y-131445000D01*
X155194000Y-121158000D02*
X156718000Y-122682000D01*
X146685000Y-125095000D02*
X146685000Y-125730000D01*
X202438000Y-130556000D02*
X201422000Y-131572000D01*
X164465000Y-130175000D02*
X163830000Y-130810000D01*
X172720000Y-132080000D02*
X182880000Y-132080000D01*
X156210000Y-125095000D02*
X156210000Y-123190000D01*
X201422000Y-131572000D02*
X201422000Y-132334000D01*
X161925000Y-121920000D02*
X161925000Y-121285000D01*
X182880000Y-132080000D02*
X198374000Y-132080000D01*
X164465000Y-121920000D02*
X166370000Y-123825000D01*
X157480000Y-133350000D02*
X161290000Y-133350000D01*
X198882000Y-131572000D02*
X201422000Y-131572000D01*
X158115000Y-121920000D02*
X161925000Y-121920000D01*
X147955000Y-125095000D02*
X147320000Y-125730000D01*
X204470000Y-122174000D02*
X204470000Y-123444000D01*
X201422000Y-127508000D02*
X202438000Y-128524000D01*
X156718000Y-122682000D02*
X157480000Y-121920000D01*
X201422000Y-126492000D02*
X201422000Y-127508000D01*
X156210000Y-130175000D02*
X156845000Y-130810000D01*
X146685000Y-125730000D02*
X145415000Y-127000000D01*
X153670000Y-125095000D02*
X147955000Y-125095000D01*
X204470000Y-123444000D02*
X201422000Y-126492000D01*
X202438000Y-128524000D02*
X202438000Y-130556000D01*
X198374000Y-132080000D02*
X198882000Y-131572000D01*
X161290000Y-133350000D02*
X161925000Y-132715000D01*
X156210000Y-123190000D02*
X156718000Y-122682000D01*
X158115000Y-121285000D02*
X158115000Y-121920000D01*
X145415000Y-131445000D02*
X146685000Y-132715000D01*
X161925000Y-121920000D02*
X164465000Y-121920000D01*
X175260000Y-132080000D02*
X182880000Y-132080000D01*
X163830000Y-130810000D02*
X161925000Y-130810000D01*
X147320000Y-125730000D02*
X146685000Y-125730000D01*
X153670000Y-125095000D02*
X156210000Y-125095000D01*
X161925000Y-132715000D02*
X161925000Y-130810000D01*
X180340000Y-134620000D02*
X180340000Y-132080000D01*
X172720000Y-132080000D02*
X170815000Y-130175000D01*
X151765000Y-132715000D02*
X146685000Y-132715000D01*
D18*
%TO.N,+1V2*%
X203708000Y-121666000D02*
X203962000Y-121412000D01*
X202438000Y-124460000D02*
X203708000Y-123190000D01*
X203708000Y-123190000D02*
X203708000Y-121666000D01*
X204978000Y-121412000D02*
X205232000Y-121666000D01*
X205232000Y-121666000D02*
X205232000Y-125984000D01*
X197866000Y-123190000D02*
X199136000Y-124460000D01*
X199136000Y-124460000D02*
X202438000Y-124460000D01*
X211074000Y-126238000D02*
X205232000Y-126238000D01*
X207518000Y-130048000D02*
X210312000Y-130048000D01*
X203962000Y-121412000D02*
X204978000Y-121412000D01*
X205232000Y-127762000D02*
X207518000Y-130048000D01*
X205232000Y-126238000D02*
X205232000Y-125984000D01*
X210312000Y-130048000D02*
X211328000Y-131064000D01*
X205232000Y-125984000D02*
X205232000Y-127762000D01*
%TO.N,Earth*%
X133375000Y-122680000D02*
X129205000Y-122680000D01*
X129205000Y-122680000D02*
X129205000Y-131320000D01*
X129205000Y-131320000D02*
X133375000Y-131320000D01*
D17*
%TO.N,VBUS*%
X135128000Y-129540000D02*
X133858000Y-129540000D01*
X133858000Y-129540000D02*
X132334000Y-128016000D01*
X133845000Y-124473000D02*
X135115000Y-124473000D01*
X132334000Y-125984000D02*
X133845000Y-124473000D01*
X132334000Y-128016000D02*
X132334000Y-125984000D01*
%TO.N,/ZVD1/A*%
X143510000Y-132080000D02*
X143510000Y-128270000D01*
D18*
%TO.N,/RP2040/DVDD*%
X153670000Y-120015000D02*
X161925000Y-120015000D01*
X164465000Y-131445000D02*
X161925000Y-133985000D01*
X154940000Y-132080000D02*
X154940000Y-127000000D01*
X165735000Y-120650000D02*
X162560000Y-120650000D01*
X165735000Y-120650000D02*
X167640000Y-122555000D01*
X154178000Y-126238000D02*
X152400000Y-126238000D01*
X152400000Y-121285000D02*
X153670000Y-120015000D01*
X161925000Y-133985000D02*
X156845000Y-133985000D01*
X156845000Y-133985000D02*
X154940000Y-132080000D01*
X154940000Y-127000000D02*
X154178000Y-126238000D01*
X162560000Y-120650000D02*
X161925000Y-120015000D01*
X168910000Y-131445000D02*
X164465000Y-131445000D01*
%TO.N,/SWD.SWDIO*%
X201930000Y-122428000D02*
X201422000Y-121920000D01*
X201930000Y-123698000D02*
X201930000Y-122428000D01*
X201422000Y-121920000D02*
X184658000Y-121920000D01*
X170815000Y-123190000D02*
X173990000Y-123190000D01*
X183388000Y-123190000D02*
X181610000Y-123190000D01*
X173990000Y-123190000D02*
X175260000Y-124460000D01*
X167005000Y-127000000D02*
X170815000Y-123190000D01*
X158496000Y-130048000D02*
X161544000Y-127000000D01*
X158496000Y-130556000D02*
X158496000Y-130048000D01*
X184658000Y-121920000D02*
X183388000Y-123190000D01*
X161544000Y-127000000D02*
X167005000Y-127000000D01*
X181610000Y-123190000D02*
X180340000Y-124460000D01*
%TO.N,/SWD.SWCLK*%
X170815000Y-124460000D02*
X172720000Y-124460000D01*
X184912000Y-122428000D02*
X182880000Y-124460000D01*
X200660000Y-122428000D02*
X184912000Y-122428000D01*
X167640000Y-127635000D02*
X170815000Y-124460000D01*
X200914000Y-122682000D02*
X200660000Y-122428000D01*
X159385000Y-130937000D02*
X159385000Y-129921000D01*
X158750000Y-131572000D02*
X159385000Y-130937000D01*
X161671000Y-127635000D02*
X167640000Y-127635000D01*
X159385000Y-129921000D02*
X161671000Y-127635000D01*
%TO.N,/UART_{RP2040}.DTR*%
X166370000Y-126365000D02*
X170815000Y-121920000D01*
X159258000Y-128030841D02*
X160923841Y-126365000D01*
X170815000Y-121920000D02*
X172720000Y-121920000D01*
X160923841Y-126365000D02*
X166370000Y-126365000D01*
%TO.N,/UART_{RP2040}.RTS*%
X158242000Y-128016000D02*
X160528000Y-125730000D01*
X165735000Y-125730000D02*
X170815000Y-120650000D01*
X170815000Y-120650000D02*
X173990000Y-120650000D01*
X160528000Y-125730000D02*
X165735000Y-125730000D01*
X173990000Y-120650000D02*
X175260000Y-121920000D01*
%TO.N,/UART_{RP2040}.RX*%
X160655000Y-130175000D02*
X161925000Y-128905000D01*
X168910000Y-128905000D02*
X170815000Y-127000000D01*
X161925000Y-128905000D02*
X168910000Y-128905000D01*
X160655000Y-130810000D02*
X160655000Y-130175000D01*
X170815000Y-127000000D02*
X172720000Y-127000000D01*
%TO.N,/UART_{RP2040}.TX*%
X168275000Y-128270000D02*
X170815000Y-125730000D01*
X170815000Y-125730000D02*
X173990000Y-125730000D01*
X173990000Y-125730000D02*
X175260000Y-127000000D01*
X161798000Y-128270000D02*
X168275000Y-128270000D01*
X159893000Y-130175000D02*
X161798000Y-128270000D01*
X159893000Y-131572000D02*
X159893000Y-130175000D01*
%TO.N,/UART_{RTL8762C}.LOG*%
X202184000Y-121412000D02*
X183388000Y-121412000D01*
X183388000Y-121412000D02*
X182880000Y-121920000D01*
X202946000Y-122174000D02*
X202184000Y-121412000D01*
%TO.N,/UART_{RTL8762C}.RST*%
X181610000Y-120650000D02*
X184404000Y-120650000D01*
X180340000Y-121920000D02*
X181610000Y-120650000D01*
X205740000Y-122936000D02*
X207772000Y-124968000D01*
X205740000Y-121412000D02*
X205740000Y-122936000D01*
X184404000Y-120650000D02*
X184658000Y-120904000D01*
X184658000Y-120904000D02*
X205232000Y-120904000D01*
X207772000Y-124968000D02*
X208534000Y-124968000D01*
X205232000Y-120904000D02*
X205740000Y-121412000D01*
%TO.N,/UART_{RTL8762C}.TX*%
X199644000Y-129540000D02*
X186690000Y-129540000D01*
X184150000Y-127000000D02*
X182880000Y-127000000D01*
X200660000Y-130556000D02*
X199644000Y-129540000D01*
X186690000Y-129540000D02*
X184150000Y-127000000D01*
%TO.N,/UART_{RTL8762C}.RX*%
X201422000Y-129794000D02*
X200533000Y-128905000D01*
X181610000Y-125730000D02*
X180340000Y-127000000D01*
X187261500Y-128905000D02*
X184086500Y-125730000D01*
X184086500Y-125730000D02*
X181610000Y-125730000D01*
X200533000Y-128905000D02*
X187261500Y-128905000D01*
%TD*%
%TA.AperFunction,Conductor*%
%TO.N,GND*%
G36*
X182657765Y-118325674D02*
G01*
X182678766Y-118363829D01*
X182669745Y-118406437D01*
X182635085Y-118432808D01*
X182617718Y-118438077D01*
X182504114Y-118472538D01*
X182334303Y-118563305D01*
X182185459Y-118685459D01*
X182063305Y-118834303D01*
X181972538Y-119004114D01*
X181916642Y-119188377D01*
X181897770Y-119379999D01*
X181916642Y-119571622D01*
X181972538Y-119755885D01*
X182045748Y-119892849D01*
X182063306Y-119925698D01*
X182185459Y-120074541D01*
X182334302Y-120196694D01*
X182414058Y-120239324D01*
X182504114Y-120287461D01*
X182666401Y-120336691D01*
X182701061Y-120363063D01*
X182710082Y-120405671D01*
X182689081Y-120443826D01*
X182648258Y-120459000D01*
X181653071Y-120459000D01*
X181632429Y-120455493D01*
X181631935Y-120455320D01*
X181631934Y-120455320D01*
X181602761Y-120458607D01*
X181595764Y-120459000D01*
X181588479Y-120459000D01*
X181581375Y-120460621D01*
X181574470Y-120461794D01*
X181545294Y-120465081D01*
X181544847Y-120465363D01*
X181525511Y-120473371D01*
X181524996Y-120473488D01*
X181502039Y-120491796D01*
X181496326Y-120495850D01*
X181490160Y-120499724D01*
X181485002Y-120504882D01*
X181479781Y-120509546D01*
X181456829Y-120527850D01*
X181456601Y-120528325D01*
X181444487Y-120545396D01*
X180919048Y-121070835D01*
X180884025Y-121088465D01*
X180845392Y-121081761D01*
X180715885Y-121012538D01*
X180531622Y-120956642D01*
X180340000Y-120937770D01*
X180148377Y-120956642D01*
X179964114Y-121012538D01*
X179794303Y-121103305D01*
X179645459Y-121225459D01*
X179523305Y-121374303D01*
X179432538Y-121544114D01*
X179376642Y-121728377D01*
X179357770Y-121920000D01*
X179376642Y-122111622D01*
X179432538Y-122295885D01*
X179515139Y-122450418D01*
X179523306Y-122465698D01*
X179645459Y-122614541D01*
X179794302Y-122736694D01*
X179853330Y-122768245D01*
X179964114Y-122827461D01*
X179964116Y-122827461D01*
X179964117Y-122827462D01*
X180148376Y-122883357D01*
X180340000Y-122902230D01*
X180531624Y-122883357D01*
X180715883Y-122827462D01*
X180885698Y-122736694D01*
X181034541Y-122614541D01*
X181156694Y-122465698D01*
X181247462Y-122295883D01*
X181303357Y-122111624D01*
X181322230Y-121920000D01*
X181303357Y-121728376D01*
X181247462Y-121544117D01*
X181247461Y-121544116D01*
X181247461Y-121544114D01*
X181178237Y-121414606D01*
X181171533Y-121375973D01*
X181189161Y-121340952D01*
X181670808Y-120859306D01*
X181715003Y-120841000D01*
X182648258Y-120841000D01*
X182689081Y-120856174D01*
X182710082Y-120894329D01*
X182701061Y-120936937D01*
X182666401Y-120963309D01*
X182504114Y-121012538D01*
X182334303Y-121103305D01*
X182185459Y-121225459D01*
X182063305Y-121374303D01*
X181972538Y-121544114D01*
X181916642Y-121728377D01*
X181897770Y-121920000D01*
X181916642Y-122111622D01*
X181972538Y-122295885D01*
X182055139Y-122450418D01*
X182063306Y-122465698D01*
X182185459Y-122614541D01*
X182334302Y-122736694D01*
X182393330Y-122768245D01*
X182504114Y-122827461D01*
X182504116Y-122827461D01*
X182504117Y-122827462D01*
X182515770Y-122830997D01*
X182666401Y-122876691D01*
X182701061Y-122903063D01*
X182710082Y-122945671D01*
X182689081Y-122983826D01*
X182648258Y-122999000D01*
X181653071Y-122999000D01*
X181632429Y-122995493D01*
X181631935Y-122995320D01*
X181631934Y-122995320D01*
X181602761Y-122998607D01*
X181595764Y-122999000D01*
X181588479Y-122999000D01*
X181581375Y-123000621D01*
X181574470Y-123001794D01*
X181545294Y-123005081D01*
X181544847Y-123005363D01*
X181525511Y-123013371D01*
X181524996Y-123013488D01*
X181502039Y-123031796D01*
X181496326Y-123035850D01*
X181490160Y-123039724D01*
X181485002Y-123044882D01*
X181479781Y-123049546D01*
X181456829Y-123067850D01*
X181456601Y-123068325D01*
X181444487Y-123085396D01*
X180919048Y-123610835D01*
X180884025Y-123628465D01*
X180845392Y-123621761D01*
X180715885Y-123552538D01*
X180531622Y-123496642D01*
X180340000Y-123477770D01*
X180148377Y-123496642D01*
X179964114Y-123552538D01*
X179794303Y-123643305D01*
X179645459Y-123765459D01*
X179523305Y-123914303D01*
X179432538Y-124084114D01*
X179376642Y-124268377D01*
X179357770Y-124460000D01*
X179376642Y-124651622D01*
X179432538Y-124835885D01*
X179499482Y-124961126D01*
X179523306Y-125005698D01*
X179645459Y-125154541D01*
X179794302Y-125276694D01*
X179857186Y-125310306D01*
X179964114Y-125367461D01*
X179964116Y-125367461D01*
X179964117Y-125367462D01*
X180148376Y-125423357D01*
X180340000Y-125442230D01*
X180531624Y-125423357D01*
X180715883Y-125367462D01*
X180885698Y-125276694D01*
X181034541Y-125154541D01*
X181156694Y-125005698D01*
X181247462Y-124835883D01*
X181303357Y-124651624D01*
X181322230Y-124460000D01*
X181303357Y-124268376D01*
X181247462Y-124084117D01*
X181247461Y-124084116D01*
X181247461Y-124084114D01*
X181178237Y-123954606D01*
X181171533Y-123915973D01*
X181189161Y-123880952D01*
X181670808Y-123399306D01*
X181715003Y-123381000D01*
X182648258Y-123381000D01*
X182689081Y-123396174D01*
X182710082Y-123434329D01*
X182701061Y-123476937D01*
X182666401Y-123503309D01*
X182504114Y-123552538D01*
X182334303Y-123643305D01*
X182185459Y-123765459D01*
X182063305Y-123914303D01*
X181972538Y-124084114D01*
X181916642Y-124268377D01*
X181897770Y-124460000D01*
X181916642Y-124651622D01*
X181972538Y-124835885D01*
X182039482Y-124961126D01*
X182063306Y-125005698D01*
X182185459Y-125154541D01*
X182334302Y-125276694D01*
X182397186Y-125310306D01*
X182504114Y-125367461D01*
X182504116Y-125367461D01*
X182504117Y-125367462D01*
X182547361Y-125380580D01*
X182666401Y-125416691D01*
X182701061Y-125443063D01*
X182710082Y-125485671D01*
X182689081Y-125523826D01*
X182648258Y-125539000D01*
X181653071Y-125539000D01*
X181632429Y-125535493D01*
X181631935Y-125535320D01*
X181631934Y-125535320D01*
X181602761Y-125538607D01*
X181595764Y-125539000D01*
X181588479Y-125539000D01*
X181581375Y-125540621D01*
X181574470Y-125541794D01*
X181545294Y-125545081D01*
X181544847Y-125545363D01*
X181525511Y-125553371D01*
X181524996Y-125553488D01*
X181502039Y-125571796D01*
X181496326Y-125575850D01*
X181490160Y-125579724D01*
X181485002Y-125584882D01*
X181479781Y-125589546D01*
X181456829Y-125607850D01*
X181456601Y-125608325D01*
X181444487Y-125625396D01*
X180919048Y-126150835D01*
X180884025Y-126168465D01*
X180845392Y-126161761D01*
X180715885Y-126092538D01*
X180531622Y-126036642D01*
X180340000Y-126017770D01*
X180148377Y-126036642D01*
X179964114Y-126092538D01*
X179794303Y-126183305D01*
X179645459Y-126305459D01*
X179523305Y-126454303D01*
X179432538Y-126624114D01*
X179376642Y-126808377D01*
X179357770Y-126999999D01*
X179376642Y-127191622D01*
X179432538Y-127375885D01*
X179499108Y-127500427D01*
X179523306Y-127545698D01*
X179645459Y-127694541D01*
X179794302Y-127816694D01*
X179851006Y-127847003D01*
X179964114Y-127907461D01*
X179964116Y-127907461D01*
X179964117Y-127907462D01*
X180148376Y-127963357D01*
X180340000Y-127982230D01*
X180531624Y-127963357D01*
X180715883Y-127907462D01*
X180885698Y-127816694D01*
X181034541Y-127694541D01*
X181156694Y-127545698D01*
X181247462Y-127375883D01*
X181303357Y-127191624D01*
X181322230Y-127000000D01*
X181303357Y-126808376D01*
X181247462Y-126624117D01*
X181247461Y-126624116D01*
X181247461Y-126624114D01*
X181178237Y-126494606D01*
X181171533Y-126455973D01*
X181189161Y-126420952D01*
X181670808Y-125939306D01*
X181715003Y-125921000D01*
X182648258Y-125921000D01*
X182689081Y-125936174D01*
X182710082Y-125974329D01*
X182701061Y-126016937D01*
X182666401Y-126043309D01*
X182504114Y-126092538D01*
X182334303Y-126183305D01*
X182185459Y-126305459D01*
X182063305Y-126454303D01*
X181972538Y-126624114D01*
X181916642Y-126808377D01*
X181897770Y-126999999D01*
X181916642Y-127191622D01*
X181972538Y-127375885D01*
X182039108Y-127500427D01*
X182063306Y-127545698D01*
X182185459Y-127694541D01*
X182334302Y-127816694D01*
X182391006Y-127847003D01*
X182504114Y-127907461D01*
X182504116Y-127907461D01*
X182504117Y-127907462D01*
X182688376Y-127963357D01*
X182880000Y-127982230D01*
X183071624Y-127963357D01*
X183255883Y-127907462D01*
X183425698Y-127816694D01*
X183574541Y-127694541D01*
X183696694Y-127545698D01*
X183787462Y-127375883D01*
X183830091Y-127235355D01*
X183852668Y-127203300D01*
X183889899Y-127191000D01*
X184044997Y-127191000D01*
X184089191Y-127209306D01*
X186524485Y-129644600D01*
X186536599Y-129661671D01*
X186536828Y-129662146D01*
X186536830Y-129662149D01*
X186559791Y-129680460D01*
X186565006Y-129685121D01*
X186570160Y-129690275D01*
X186576332Y-129694153D01*
X186582039Y-129698203D01*
X186587508Y-129702564D01*
X186604997Y-129716511D01*
X186605504Y-129716626D01*
X186624848Y-129724637D01*
X186625294Y-129724918D01*
X186654467Y-129728204D01*
X186661362Y-129729375D01*
X186668479Y-129731000D01*
X186675764Y-129731000D01*
X186682761Y-129731393D01*
X186685994Y-129731757D01*
X186711935Y-129734680D01*
X186712429Y-129734506D01*
X186733071Y-129731000D01*
X199538997Y-129731000D01*
X199583191Y-129749306D01*
X200244380Y-130410495D01*
X200259627Y-130435375D01*
X200261917Y-130464466D01*
X200253122Y-130520000D01*
X200247420Y-130556000D01*
X200249240Y-130567491D01*
X200267613Y-130683495D01*
X200326215Y-130798508D01*
X200417491Y-130889784D01*
X200506951Y-130935366D01*
X200532506Y-130948387D01*
X200660000Y-130968580D01*
X200787494Y-130948387D01*
X200902508Y-130889784D01*
X200993784Y-130798508D01*
X201052387Y-130683494D01*
X201072580Y-130556000D01*
X201052387Y-130428506D01*
X201031403Y-130387322D01*
X200993784Y-130313491D01*
X200902508Y-130222215D01*
X200787495Y-130163613D01*
X200685785Y-130147504D01*
X200660000Y-130143420D01*
X200659999Y-130143420D01*
X200568466Y-130157917D01*
X200539375Y-130155627D01*
X200514495Y-130140380D01*
X199809513Y-129435398D01*
X199797398Y-129418325D01*
X199797170Y-129417851D01*
X199797168Y-129417849D01*
X199778879Y-129403264D01*
X199774217Y-129399547D01*
X199768991Y-129394876D01*
X199763840Y-129389725D01*
X199757670Y-129385848D01*
X199751957Y-129381794D01*
X199739366Y-129371753D01*
X199729001Y-129363487D01*
X199728489Y-129363371D01*
X199709147Y-129355359D01*
X199708705Y-129355081D01*
X199679530Y-129351794D01*
X199672624Y-129350621D01*
X199669394Y-129349884D01*
X199665521Y-129349000D01*
X199665520Y-129349000D01*
X199658236Y-129349000D01*
X199651239Y-129348607D01*
X199622065Y-129345320D01*
X199621571Y-129345493D01*
X199600929Y-129349000D01*
X186795003Y-129349000D01*
X186750809Y-129330694D01*
X184315513Y-126895398D01*
X184303398Y-126878325D01*
X184303170Y-126877851D01*
X184303168Y-126877849D01*
X184280219Y-126859548D01*
X184274991Y-126854876D01*
X184269840Y-126849725D01*
X184263670Y-126845848D01*
X184257957Y-126841794D01*
X184237881Y-126825784D01*
X184235001Y-126823487D01*
X184234489Y-126823371D01*
X184215147Y-126815359D01*
X184214705Y-126815081D01*
X184185530Y-126811794D01*
X184178624Y-126810621D01*
X184175394Y-126809884D01*
X184171521Y-126809000D01*
X184171520Y-126809000D01*
X184164236Y-126809000D01*
X184157239Y-126808607D01*
X184128065Y-126805320D01*
X184127571Y-126805493D01*
X184106929Y-126809000D01*
X183889899Y-126809000D01*
X183852668Y-126796700D01*
X183830091Y-126764644D01*
X183787462Y-126624117D01*
X183787461Y-126624116D01*
X183787461Y-126624114D01*
X183738968Y-126533391D01*
X183696694Y-126454302D01*
X183574541Y-126305459D01*
X183425698Y-126183306D01*
X183408288Y-126174000D01*
X183255885Y-126092538D01*
X183093599Y-126043309D01*
X183058939Y-126016937D01*
X183049918Y-125974329D01*
X183070919Y-125936174D01*
X183111742Y-125921000D01*
X183981497Y-125921000D01*
X184025691Y-125939306D01*
X187095985Y-129009600D01*
X187108099Y-129026671D01*
X187108328Y-129027146D01*
X187108330Y-129027149D01*
X187131291Y-129045460D01*
X187136506Y-129050121D01*
X187141660Y-129055275D01*
X187147832Y-129059153D01*
X187153539Y-129063203D01*
X187176494Y-129081509D01*
X187176497Y-129081511D01*
X187177004Y-129081626D01*
X187196348Y-129089637D01*
X187196794Y-129089918D01*
X187225967Y-129093204D01*
X187232862Y-129094375D01*
X187239979Y-129096000D01*
X187247264Y-129096000D01*
X187254261Y-129096393D01*
X187257494Y-129096757D01*
X187283435Y-129099680D01*
X187283929Y-129099506D01*
X187304571Y-129096000D01*
X200427997Y-129096000D01*
X200472191Y-129114306D01*
X201006380Y-129648495D01*
X201021627Y-129673375D01*
X201023917Y-129702466D01*
X201010053Y-129790001D01*
X201009420Y-129794000D01*
X201016072Y-129835997D01*
X201029613Y-129921495D01*
X201088215Y-130036508D01*
X201179491Y-130127784D01*
X201294504Y-130186386D01*
X201294506Y-130186387D01*
X201422000Y-130206580D01*
X201549494Y-130186387D01*
X201664508Y-130127784D01*
X201755784Y-130036508D01*
X201814387Y-129921494D01*
X201834580Y-129794000D01*
X201814387Y-129666506D01*
X201803225Y-129644600D01*
X201755784Y-129551491D01*
X201664508Y-129460215D01*
X201549495Y-129401613D01*
X201449957Y-129385848D01*
X201422000Y-129381420D01*
X201421999Y-129381420D01*
X201330466Y-129395917D01*
X201301375Y-129393627D01*
X201276495Y-129378380D01*
X200698513Y-128800398D01*
X200686398Y-128783325D01*
X200686170Y-128782851D01*
X200686168Y-128782849D01*
X200663219Y-128764548D01*
X200657991Y-128759876D01*
X200652840Y-128754725D01*
X200646670Y-128750848D01*
X200640957Y-128746794D01*
X200628366Y-128736753D01*
X200618001Y-128728487D01*
X200617489Y-128728371D01*
X200598147Y-128720359D01*
X200597705Y-128720081D01*
X200568530Y-128716794D01*
X200561624Y-128715621D01*
X200558394Y-128714884D01*
X200554521Y-128714000D01*
X200554520Y-128714000D01*
X200547236Y-128714000D01*
X200540239Y-128713607D01*
X200511065Y-128710320D01*
X200510571Y-128710493D01*
X200489929Y-128714000D01*
X187366503Y-128714000D01*
X187322309Y-128695694D01*
X184252013Y-125625398D01*
X184239898Y-125608325D01*
X184239670Y-125607851D01*
X184239668Y-125607849D01*
X184216719Y-125589548D01*
X184211491Y-125584876D01*
X184206340Y-125579725D01*
X184200170Y-125575848D01*
X184194457Y-125571794D01*
X184181866Y-125561753D01*
X184171501Y-125553487D01*
X184170989Y-125553371D01*
X184151647Y-125545359D01*
X184151205Y-125545081D01*
X184122030Y-125541794D01*
X184115124Y-125540621D01*
X184111894Y-125539884D01*
X184108021Y-125539000D01*
X184108020Y-125539000D01*
X184100736Y-125539000D01*
X184093739Y-125538607D01*
X184064565Y-125535320D01*
X184064071Y-125535493D01*
X184043429Y-125539000D01*
X183111742Y-125539000D01*
X183070919Y-125523826D01*
X183049918Y-125485671D01*
X183058939Y-125443063D01*
X183093599Y-125416691D01*
X183162446Y-125395806D01*
X183255883Y-125367462D01*
X183425698Y-125276694D01*
X183574541Y-125154541D01*
X183696694Y-125005698D01*
X183787462Y-124835883D01*
X183843357Y-124651624D01*
X183862230Y-124460000D01*
X183843357Y-124268376D01*
X183787462Y-124084117D01*
X183787461Y-124084116D01*
X183787461Y-124084114D01*
X183718237Y-123954606D01*
X183711533Y-123915973D01*
X183729161Y-123880952D01*
X184420115Y-123189999D01*
X197453420Y-123189999D01*
X197473613Y-123317495D01*
X197532215Y-123432508D01*
X197623491Y-123523784D01*
X197689425Y-123557379D01*
X197738506Y-123582387D01*
X197866000Y-123602580D01*
X197957531Y-123588082D01*
X197986622Y-123590371D01*
X198011503Y-123605618D01*
X198970485Y-124564600D01*
X198982599Y-124581671D01*
X198982828Y-124582146D01*
X198982830Y-124582149D01*
X199005791Y-124600460D01*
X199011006Y-124605121D01*
X199016160Y-124610275D01*
X199022332Y-124614153D01*
X199028039Y-124618203D01*
X199048119Y-124634216D01*
X199050997Y-124636511D01*
X199051504Y-124636626D01*
X199070848Y-124644637D01*
X199071294Y-124644918D01*
X199100467Y-124648204D01*
X199107362Y-124649375D01*
X199114479Y-124651000D01*
X199121764Y-124651000D01*
X199128761Y-124651393D01*
X199130794Y-124651622D01*
X199157935Y-124654680D01*
X199158429Y-124654506D01*
X199179071Y-124651000D01*
X202394929Y-124651000D01*
X202415570Y-124654506D01*
X202416065Y-124654680D01*
X202443206Y-124651622D01*
X202445239Y-124651393D01*
X202452236Y-124651000D01*
X202459523Y-124651000D01*
X202466621Y-124649379D01*
X202473534Y-124648203D01*
X202502706Y-124644918D01*
X202503141Y-124644644D01*
X202522496Y-124636627D01*
X202523003Y-124636511D01*
X202545951Y-124618209D01*
X202551662Y-124614155D01*
X202557840Y-124610275D01*
X202563006Y-124605107D01*
X202568205Y-124600462D01*
X202591170Y-124582149D01*
X202591397Y-124581676D01*
X202603511Y-124564602D01*
X203812602Y-123355511D01*
X203829676Y-123343397D01*
X203830149Y-123343170D01*
X203848462Y-123320205D01*
X203853107Y-123315006D01*
X203858275Y-123309840D01*
X203862155Y-123303662D01*
X203866209Y-123297951D01*
X203868883Y-123294599D01*
X203884511Y-123275003D01*
X203884627Y-123274496D01*
X203892645Y-123255140D01*
X203892918Y-123254706D01*
X203896203Y-123225534D01*
X203897379Y-123218621D01*
X203899000Y-123211523D01*
X203899000Y-123204236D01*
X203899393Y-123197239D01*
X203900208Y-123190002D01*
X203902680Y-123168065D01*
X203902506Y-123167570D01*
X203899000Y-123146929D01*
X203899000Y-121771003D01*
X203917306Y-121726809D01*
X204022809Y-121621306D01*
X204067003Y-121603000D01*
X204872997Y-121603000D01*
X204917191Y-121621306D01*
X205022694Y-121726809D01*
X205041000Y-121771003D01*
X205041000Y-127718929D01*
X205037493Y-127739571D01*
X205037320Y-127740065D01*
X205040607Y-127769239D01*
X205041000Y-127776236D01*
X205041000Y-127783520D01*
X205042621Y-127790624D01*
X205043794Y-127797530D01*
X205047081Y-127826705D01*
X205047359Y-127827147D01*
X205055371Y-127846489D01*
X205055487Y-127847001D01*
X205073791Y-127869952D01*
X205077848Y-127875670D01*
X205081725Y-127881840D01*
X205086876Y-127886991D01*
X205091547Y-127892217D01*
X205109851Y-127915170D01*
X205110325Y-127915398D01*
X205127398Y-127927513D01*
X207352485Y-130152600D01*
X207364599Y-130169671D01*
X207364828Y-130170146D01*
X207364830Y-130170149D01*
X207387791Y-130188460D01*
X207393006Y-130193121D01*
X207398160Y-130198275D01*
X207404332Y-130202153D01*
X207410039Y-130206203D01*
X207430119Y-130222216D01*
X207432997Y-130224511D01*
X207433504Y-130224626D01*
X207452848Y-130232637D01*
X207453294Y-130232918D01*
X207482467Y-130236204D01*
X207489362Y-130237375D01*
X207496479Y-130239000D01*
X207503764Y-130239000D01*
X207510761Y-130239393D01*
X207513994Y-130239757D01*
X207539935Y-130242680D01*
X207540429Y-130242506D01*
X207561071Y-130239000D01*
X210206997Y-130239000D01*
X210251191Y-130257306D01*
X210912380Y-130918495D01*
X210927627Y-130943375D01*
X210929917Y-130972466D01*
X210915420Y-131063999D01*
X210935613Y-131191495D01*
X210994215Y-131306508D01*
X211085491Y-131397784D01*
X211163295Y-131437427D01*
X211200506Y-131456387D01*
X211328000Y-131476580D01*
X211455494Y-131456387D01*
X211570508Y-131397784D01*
X211661784Y-131306508D01*
X211720387Y-131191494D01*
X211740580Y-131064000D01*
X211720387Y-130936506D01*
X211705924Y-130908120D01*
X211661784Y-130821491D01*
X211570508Y-130730215D01*
X211455495Y-130671613D01*
X211386958Y-130660758D01*
X211328000Y-130651420D01*
X211327999Y-130651420D01*
X211236466Y-130665917D01*
X211207375Y-130663627D01*
X211182495Y-130648380D01*
X210477513Y-129943398D01*
X210465398Y-129926325D01*
X210465170Y-129925851D01*
X210465168Y-129925849D01*
X210442219Y-129907548D01*
X210436991Y-129902876D01*
X210431840Y-129897725D01*
X210425670Y-129893848D01*
X210419957Y-129889794D01*
X210399881Y-129873784D01*
X210397001Y-129871487D01*
X210396489Y-129871371D01*
X210377147Y-129863359D01*
X210376705Y-129863081D01*
X210347530Y-129859794D01*
X210340624Y-129858621D01*
X210337394Y-129857884D01*
X210333521Y-129857000D01*
X210333520Y-129857000D01*
X210326236Y-129857000D01*
X210319239Y-129856607D01*
X210290065Y-129853320D01*
X210289571Y-129853493D01*
X210268929Y-129857000D01*
X207623003Y-129857000D01*
X207578809Y-129838694D01*
X205441306Y-127701191D01*
X205423000Y-127656997D01*
X205423000Y-126491500D01*
X205441306Y-126447306D01*
X205485500Y-126429000D01*
X210675671Y-126429000D01*
X210708327Y-126438210D01*
X210731359Y-126463126D01*
X210740216Y-126480509D01*
X210831491Y-126571784D01*
X210946504Y-126630386D01*
X210946506Y-126630387D01*
X211074000Y-126650580D01*
X211201494Y-126630387D01*
X211316508Y-126571784D01*
X211407784Y-126480508D01*
X211466387Y-126365494D01*
X211486580Y-126238000D01*
X211466387Y-126110506D01*
X211457232Y-126092538D01*
X211407784Y-125995491D01*
X211316508Y-125904215D01*
X211201495Y-125845613D01*
X211074000Y-125825420D01*
X210946504Y-125845613D01*
X210831491Y-125904215D01*
X210740216Y-125995490D01*
X210731359Y-126012874D01*
X210708327Y-126037790D01*
X210675671Y-126047000D01*
X205485500Y-126047000D01*
X205441306Y-126028694D01*
X205423000Y-125984500D01*
X205423000Y-122941360D01*
X205431684Y-122919532D01*
X205423000Y-122895787D01*
X205423000Y-121709071D01*
X205426507Y-121688430D01*
X205427507Y-121685572D01*
X205431426Y-121680796D01*
X205424393Y-121667637D01*
X205423393Y-121658761D01*
X205423000Y-121651764D01*
X205423000Y-121644482D01*
X205423000Y-121644479D01*
X205421375Y-121637362D01*
X205420203Y-121630460D01*
X205420151Y-121630000D01*
X205416918Y-121601294D01*
X205416637Y-121600847D01*
X205408626Y-121581504D01*
X205408511Y-121580997D01*
X205396096Y-121565429D01*
X205390203Y-121558039D01*
X205386149Y-121552326D01*
X205382275Y-121546160D01*
X205377117Y-121541002D01*
X205372460Y-121535791D01*
X205354149Y-121512830D01*
X205354146Y-121512828D01*
X205353671Y-121512599D01*
X205336600Y-121500485D01*
X205143513Y-121307398D01*
X205131398Y-121290325D01*
X205131170Y-121289851D01*
X205131168Y-121289849D01*
X205108219Y-121271548D01*
X205102991Y-121266876D01*
X205097840Y-121261725D01*
X205091670Y-121257848D01*
X205085957Y-121253794D01*
X205073366Y-121243753D01*
X205063001Y-121235487D01*
X205062489Y-121235371D01*
X205043147Y-121227359D01*
X205042705Y-121227081D01*
X205013530Y-121223794D01*
X205006624Y-121222621D01*
X205003394Y-121221884D01*
X204999521Y-121221000D01*
X204999520Y-121221000D01*
X204992236Y-121221000D01*
X204985239Y-121220607D01*
X204976363Y-121219607D01*
X204963203Y-121212573D01*
X204958428Y-121216493D01*
X204955570Y-121217493D01*
X204934929Y-121221000D01*
X204005071Y-121221000D01*
X203984430Y-121217493D01*
X203981572Y-121216493D01*
X203976796Y-121212573D01*
X203963637Y-121219607D01*
X203954761Y-121220607D01*
X203947764Y-121221000D01*
X203940479Y-121221000D01*
X203933375Y-121222621D01*
X203926470Y-121223794D01*
X203897294Y-121227081D01*
X203896847Y-121227363D01*
X203877511Y-121235371D01*
X203876996Y-121235488D01*
X203854039Y-121253796D01*
X203848326Y-121257850D01*
X203842160Y-121261724D01*
X203837002Y-121266882D01*
X203831781Y-121271546D01*
X203808829Y-121289850D01*
X203808601Y-121290325D01*
X203796487Y-121307396D01*
X203603396Y-121500487D01*
X203586325Y-121512601D01*
X203585850Y-121512829D01*
X203567546Y-121535781D01*
X203562882Y-121541002D01*
X203557724Y-121546160D01*
X203553850Y-121552326D01*
X203549796Y-121558039D01*
X203531488Y-121580996D01*
X203531371Y-121581511D01*
X203523363Y-121600847D01*
X203523081Y-121601294D01*
X203519794Y-121630470D01*
X203518621Y-121637375D01*
X203517000Y-121644479D01*
X203517000Y-121651764D01*
X203516607Y-121658761D01*
X203513320Y-121687934D01*
X203513493Y-121688429D01*
X203517000Y-121709071D01*
X203517000Y-123084997D01*
X203498694Y-123129191D01*
X202377191Y-124250694D01*
X202332997Y-124269000D01*
X199241003Y-124269000D01*
X199196809Y-124250694D01*
X198281618Y-123335503D01*
X198266371Y-123310622D01*
X198264082Y-123281531D01*
X198265196Y-123274496D01*
X198278580Y-123190000D01*
X198258387Y-123062506D01*
X198257615Y-123060991D01*
X198199784Y-122947491D01*
X198108508Y-122856215D01*
X197993495Y-122797613D01*
X197866000Y-122777420D01*
X197738504Y-122797613D01*
X197623491Y-122856215D01*
X197532215Y-122947491D01*
X197473613Y-123062504D01*
X197453420Y-123189999D01*
X184420115Y-123189999D01*
X184972808Y-122637306D01*
X185017003Y-122619000D01*
X200438220Y-122619000D01*
X200472253Y-122629079D01*
X200495310Y-122656065D01*
X200497492Y-122672599D01*
X200499872Y-122672223D01*
X200501420Y-122681998D01*
X200501420Y-122682000D01*
X200510083Y-122736694D01*
X200521613Y-122809495D01*
X200580215Y-122924508D01*
X200671491Y-123015784D01*
X200773678Y-123067851D01*
X200786506Y-123074387D01*
X200914000Y-123094580D01*
X201041494Y-123074387D01*
X201156508Y-123015784D01*
X201247784Y-122924508D01*
X201306387Y-122809494D01*
X201326580Y-122682000D01*
X201306387Y-122554506D01*
X201280901Y-122504487D01*
X201247784Y-122439491D01*
X201156508Y-122348215D01*
X201041495Y-122289613D01*
X200966436Y-122277725D01*
X200914000Y-122269420D01*
X200913999Y-122269420D01*
X200819458Y-122284393D01*
X200776428Y-122275581D01*
X200773667Y-122273846D01*
X200767957Y-122269794D01*
X200755366Y-122259753D01*
X200745001Y-122251487D01*
X200744489Y-122251371D01*
X200725147Y-122243359D01*
X200724705Y-122243081D01*
X200695530Y-122239794D01*
X200688624Y-122238621D01*
X200685394Y-122237884D01*
X200681521Y-122237000D01*
X200681520Y-122237000D01*
X200674236Y-122237000D01*
X200667239Y-122236607D01*
X200658363Y-122235607D01*
X200645203Y-122228573D01*
X200640428Y-122232493D01*
X200637570Y-122233493D01*
X200616929Y-122237000D01*
X184955071Y-122237000D01*
X184934430Y-122233493D01*
X184931572Y-122232493D01*
X184926796Y-122228573D01*
X184913637Y-122235607D01*
X184904761Y-122236607D01*
X184897764Y-122237000D01*
X184890479Y-122237000D01*
X184883375Y-122238621D01*
X184876470Y-122239794D01*
X184847294Y-122243081D01*
X184846847Y-122243363D01*
X184827511Y-122251371D01*
X184826996Y-122251488D01*
X184804039Y-122269796D01*
X184798326Y-122273850D01*
X184792160Y-122277724D01*
X184787002Y-122282882D01*
X184781781Y-122287546D01*
X184758829Y-122305850D01*
X184758601Y-122306325D01*
X184746487Y-122323396D01*
X183459048Y-123610835D01*
X183424025Y-123628465D01*
X183385392Y-123621761D01*
X183255885Y-123552538D01*
X183093599Y-123503309D01*
X183058939Y-123476937D01*
X183049918Y-123434329D01*
X183070919Y-123396174D01*
X183111742Y-123381000D01*
X183344929Y-123381000D01*
X183365570Y-123384506D01*
X183366065Y-123384680D01*
X183392333Y-123381720D01*
X183395239Y-123381393D01*
X183402236Y-123381000D01*
X183409523Y-123381000D01*
X183416621Y-123379379D01*
X183423534Y-123378203D01*
X183452706Y-123374918D01*
X183453141Y-123374644D01*
X183472496Y-123366627D01*
X183473003Y-123366511D01*
X183486986Y-123355359D01*
X183495955Y-123348205D01*
X183501662Y-123344155D01*
X183507840Y-123340275D01*
X183513006Y-123335107D01*
X183518205Y-123330462D01*
X183541170Y-123312149D01*
X183541397Y-123311676D01*
X183553511Y-123294602D01*
X184718808Y-122129306D01*
X184763003Y-122111000D01*
X184906640Y-122111000D01*
X184928467Y-122119684D01*
X184952213Y-122111000D01*
X200619787Y-122111000D01*
X200643532Y-122119684D01*
X200665360Y-122111000D01*
X201316997Y-122111000D01*
X201361191Y-122129306D01*
X201720694Y-122488809D01*
X201739000Y-122533003D01*
X201739000Y-123299671D01*
X201729790Y-123332327D01*
X201704874Y-123355359D01*
X201687490Y-123364216D01*
X201596215Y-123455491D01*
X201537613Y-123570504D01*
X201517420Y-123697999D01*
X201537613Y-123825495D01*
X201596215Y-123940508D01*
X201687491Y-124031784D01*
X201802504Y-124090386D01*
X201802506Y-124090387D01*
X201930000Y-124110580D01*
X202057494Y-124090387D01*
X202172508Y-124031784D01*
X202263784Y-123940508D01*
X202322387Y-123825494D01*
X202342580Y-123698000D01*
X202322387Y-123570506D01*
X202287303Y-123501650D01*
X202263784Y-123455491D01*
X202172509Y-123364216D01*
X202155126Y-123355359D01*
X202130210Y-123332327D01*
X202121000Y-123299671D01*
X202121000Y-122471071D01*
X202124507Y-122450429D01*
X202124511Y-122450418D01*
X202124680Y-122449935D01*
X202121393Y-122420761D01*
X202121000Y-122413764D01*
X202121000Y-122406482D01*
X202121000Y-122406479D01*
X202119375Y-122399362D01*
X202118203Y-122392460D01*
X202117786Y-122388761D01*
X202114918Y-122363294D01*
X202114637Y-122362848D01*
X202106626Y-122343504D01*
X202106511Y-122342997D01*
X202106509Y-122342994D01*
X202088203Y-122320039D01*
X202084153Y-122314332D01*
X202080275Y-122308160D01*
X202075121Y-122303006D01*
X202070460Y-122297791D01*
X202052149Y-122274830D01*
X202052146Y-122274828D01*
X202051671Y-122274599D01*
X202034600Y-122262485D01*
X201587513Y-121815398D01*
X201575398Y-121798325D01*
X201575170Y-121797851D01*
X201575168Y-121797849D01*
X201556879Y-121783264D01*
X201552217Y-121779546D01*
X201546991Y-121774876D01*
X201541840Y-121769725D01*
X201535670Y-121765848D01*
X201529957Y-121761794D01*
X201517366Y-121751753D01*
X201507001Y-121743487D01*
X201506489Y-121743371D01*
X201487147Y-121735359D01*
X201486705Y-121735081D01*
X201457530Y-121731794D01*
X201450624Y-121730621D01*
X201447394Y-121729884D01*
X201443521Y-121729000D01*
X201443520Y-121729000D01*
X201436236Y-121729000D01*
X201429239Y-121728607D01*
X201420363Y-121727607D01*
X201407203Y-121720573D01*
X201402428Y-121724493D01*
X201399570Y-121725493D01*
X201378929Y-121729000D01*
X184701071Y-121729000D01*
X184680430Y-121725493D01*
X184677572Y-121724493D01*
X184672796Y-121720573D01*
X184659637Y-121727607D01*
X184650761Y-121728607D01*
X184643764Y-121729000D01*
X184636479Y-121729000D01*
X184629375Y-121730621D01*
X184622470Y-121731794D01*
X184593294Y-121735081D01*
X184592847Y-121735363D01*
X184573511Y-121743371D01*
X184572996Y-121743488D01*
X184550039Y-121761796D01*
X184544326Y-121765850D01*
X184538160Y-121769724D01*
X184533002Y-121774882D01*
X184527781Y-121779546D01*
X184504829Y-121797850D01*
X184504601Y-121798325D01*
X184492487Y-121815396D01*
X183827560Y-122480324D01*
X183787964Y-122498461D01*
X183746135Y-122486330D01*
X183722385Y-122449824D01*
X183728245Y-122406668D01*
X183787462Y-122295883D01*
X183843357Y-122111624D01*
X183862230Y-121920000D01*
X183843357Y-121728376D01*
X183829787Y-121683642D01*
X183830413Y-121645410D01*
X183853191Y-121614697D01*
X183889596Y-121603000D01*
X184652640Y-121603000D01*
X184674467Y-121611684D01*
X184698213Y-121603000D01*
X201381787Y-121603000D01*
X201405532Y-121611684D01*
X201427360Y-121603000D01*
X202078997Y-121603000D01*
X202123191Y-121621306D01*
X202530380Y-122028495D01*
X202545627Y-122053375D01*
X202547917Y-122082466D01*
X202534718Y-122165806D01*
X202533420Y-122174000D01*
X202542684Y-122232493D01*
X202553613Y-122301495D01*
X202612215Y-122416508D01*
X202703491Y-122507784D01*
X202783756Y-122548681D01*
X202818506Y-122566387D01*
X202946000Y-122586580D01*
X203073494Y-122566387D01*
X203188508Y-122507784D01*
X203279784Y-122416508D01*
X203338387Y-122301494D01*
X203358580Y-122174000D01*
X203338387Y-122046506D01*
X203329210Y-122028495D01*
X203279784Y-121931491D01*
X203188508Y-121840215D01*
X203073495Y-121781613D01*
X202998436Y-121769725D01*
X202946000Y-121761420D01*
X202945999Y-121761420D01*
X202854466Y-121775917D01*
X202825375Y-121773627D01*
X202800495Y-121758380D01*
X202349513Y-121307398D01*
X202337398Y-121290325D01*
X202337170Y-121289851D01*
X202337168Y-121289849D01*
X202314219Y-121271548D01*
X202308991Y-121266876D01*
X202303840Y-121261725D01*
X202297670Y-121257848D01*
X202291957Y-121253794D01*
X202279366Y-121243753D01*
X202269001Y-121235487D01*
X202268489Y-121235371D01*
X202249147Y-121227359D01*
X202248705Y-121227081D01*
X202219530Y-121223794D01*
X202212624Y-121222621D01*
X202209394Y-121221884D01*
X202205521Y-121221000D01*
X202205520Y-121221000D01*
X202198236Y-121221000D01*
X202191239Y-121220607D01*
X202182363Y-121219607D01*
X202169203Y-121212573D01*
X202164428Y-121216493D01*
X202161570Y-121217493D01*
X202140929Y-121221000D01*
X184698213Y-121221000D01*
X184674467Y-121212315D01*
X184652640Y-121221000D01*
X183591471Y-121221000D01*
X183551821Y-121206813D01*
X183535559Y-121193467D01*
X183425698Y-121103306D01*
X183398258Y-121088639D01*
X183255885Y-121012538D01*
X183093599Y-120963309D01*
X183058939Y-120936937D01*
X183049918Y-120894329D01*
X183070919Y-120856174D01*
X183111742Y-120841000D01*
X184298997Y-120841000D01*
X184343191Y-120859306D01*
X184492485Y-121008600D01*
X184504599Y-121025671D01*
X184504828Y-121026146D01*
X184504830Y-121026149D01*
X184527791Y-121044460D01*
X184533005Y-121049120D01*
X184538160Y-121054275D01*
X184544332Y-121058153D01*
X184550039Y-121062203D01*
X184572994Y-121080509D01*
X184572997Y-121080511D01*
X184573504Y-121080626D01*
X184592848Y-121088637D01*
X184593294Y-121088918D01*
X184622467Y-121092204D01*
X184629362Y-121093375D01*
X184636479Y-121095000D01*
X184643764Y-121095000D01*
X184650761Y-121095393D01*
X184659637Y-121096393D01*
X184672796Y-121103426D01*
X184677572Y-121099507D01*
X184680430Y-121098507D01*
X184701071Y-121095000D01*
X202143787Y-121095000D01*
X202167532Y-121103684D01*
X202189360Y-121095000D01*
X203956640Y-121095000D01*
X203978467Y-121103684D01*
X204002213Y-121095000D01*
X204937787Y-121095000D01*
X204961532Y-121103684D01*
X204983360Y-121095000D01*
X205126997Y-121095000D01*
X205171191Y-121113306D01*
X205530694Y-121472809D01*
X205549000Y-121517003D01*
X205549000Y-121660640D01*
X205540315Y-121682467D01*
X205549000Y-121706213D01*
X205549000Y-122892929D01*
X205545493Y-122913570D01*
X205544493Y-122916428D01*
X205540573Y-122921203D01*
X205547607Y-122934363D01*
X205548607Y-122943239D01*
X205549000Y-122950236D01*
X205549000Y-122957520D01*
X205550621Y-122964624D01*
X205551794Y-122971530D01*
X205555081Y-123000705D01*
X205555359Y-123001147D01*
X205563371Y-123020489D01*
X205563487Y-123021001D01*
X205581791Y-123043952D01*
X205585848Y-123049670D01*
X205589725Y-123055840D01*
X205594876Y-123060991D01*
X205599548Y-123066219D01*
X205608854Y-123077889D01*
X205617851Y-123089170D01*
X205618325Y-123089398D01*
X205635398Y-123101513D01*
X207606485Y-125072600D01*
X207618599Y-125089671D01*
X207618828Y-125090146D01*
X207618830Y-125090149D01*
X207641791Y-125108460D01*
X207647005Y-125113120D01*
X207652160Y-125118275D01*
X207658332Y-125122153D01*
X207664039Y-125126203D01*
X207686994Y-125144509D01*
X207686997Y-125144511D01*
X207687504Y-125144626D01*
X207706848Y-125152637D01*
X207707294Y-125152918D01*
X207736467Y-125156204D01*
X207743362Y-125157375D01*
X207750479Y-125159000D01*
X207757764Y-125159000D01*
X207764761Y-125159393D01*
X207767994Y-125159757D01*
X207793935Y-125162680D01*
X207794429Y-125162506D01*
X207815071Y-125159000D01*
X208135671Y-125159000D01*
X208168327Y-125168210D01*
X208191359Y-125193126D01*
X208200216Y-125210509D01*
X208291491Y-125301784D01*
X208406504Y-125360386D01*
X208406506Y-125360387D01*
X208534000Y-125380580D01*
X208661494Y-125360387D01*
X208776508Y-125301784D01*
X208867784Y-125210508D01*
X208926387Y-125095494D01*
X208946580Y-124968000D01*
X208926387Y-124840506D01*
X208926386Y-124840504D01*
X208867784Y-124725491D01*
X208776508Y-124634215D01*
X208661495Y-124575613D01*
X208534000Y-124555420D01*
X208406504Y-124575613D01*
X208291491Y-124634215D01*
X208200216Y-124725490D01*
X208191359Y-124742874D01*
X208168327Y-124767790D01*
X208135671Y-124777000D01*
X207877003Y-124777000D01*
X207832809Y-124758694D01*
X205949306Y-122875191D01*
X205931000Y-122830997D01*
X205931000Y-121455071D01*
X205934507Y-121434429D01*
X205934680Y-121433935D01*
X205931393Y-121404761D01*
X205931000Y-121397764D01*
X205931000Y-121390482D01*
X205931000Y-121390479D01*
X205929375Y-121383362D01*
X205928203Y-121376460D01*
X205928148Y-121375974D01*
X205924918Y-121347294D01*
X205924637Y-121346848D01*
X205916626Y-121327504D01*
X205916511Y-121326997D01*
X205916509Y-121326994D01*
X205898203Y-121304039D01*
X205894153Y-121298332D01*
X205890275Y-121292160D01*
X205885120Y-121287005D01*
X205880460Y-121281791D01*
X205862149Y-121258830D01*
X205862146Y-121258828D01*
X205861671Y-121258599D01*
X205844600Y-121246485D01*
X205397513Y-120799398D01*
X205385398Y-120782325D01*
X205385170Y-120781851D01*
X205385168Y-120781849D01*
X205366879Y-120767264D01*
X205362217Y-120763547D01*
X205356991Y-120758876D01*
X205351840Y-120753725D01*
X205345670Y-120749848D01*
X205339957Y-120745794D01*
X205327366Y-120735753D01*
X205317001Y-120727487D01*
X205316489Y-120727371D01*
X205297147Y-120719359D01*
X205296705Y-120719081D01*
X205267530Y-120715794D01*
X205260624Y-120714621D01*
X205257394Y-120713884D01*
X205253521Y-120713000D01*
X205253520Y-120713000D01*
X205246236Y-120713000D01*
X205239239Y-120712607D01*
X205210065Y-120709320D01*
X205209571Y-120709493D01*
X205188929Y-120713000D01*
X184763003Y-120713000D01*
X184718809Y-120694694D01*
X184569513Y-120545398D01*
X184557398Y-120528325D01*
X184557170Y-120527851D01*
X184557168Y-120527849D01*
X184534219Y-120509548D01*
X184528991Y-120504876D01*
X184523840Y-120499725D01*
X184517670Y-120495848D01*
X184511957Y-120491794D01*
X184499366Y-120481753D01*
X184489001Y-120473487D01*
X184488489Y-120473371D01*
X184469147Y-120465359D01*
X184468705Y-120465081D01*
X184439530Y-120461794D01*
X184432624Y-120460621D01*
X184429394Y-120459884D01*
X184425521Y-120459000D01*
X184425520Y-120459000D01*
X184418236Y-120459000D01*
X184411239Y-120458607D01*
X184382065Y-120455320D01*
X184381571Y-120455493D01*
X184360929Y-120459000D01*
X183111742Y-120459000D01*
X183070919Y-120443826D01*
X183049918Y-120405671D01*
X183058939Y-120363063D01*
X183093599Y-120336691D01*
X183142288Y-120321921D01*
X183255883Y-120287462D01*
X183425698Y-120196694D01*
X183574541Y-120074541D01*
X183696694Y-119925698D01*
X183787462Y-119755883D01*
X183843357Y-119571624D01*
X183862230Y-119380000D01*
X183843357Y-119188376D01*
X183787462Y-119004117D01*
X183787461Y-119004116D01*
X183787461Y-119004114D01*
X183725822Y-118888797D01*
X183696694Y-118834302D01*
X183574541Y-118685459D01*
X183425698Y-118563306D01*
X183415396Y-118557799D01*
X183255885Y-118472538D01*
X183142285Y-118438078D01*
X183124914Y-118432808D01*
X183090255Y-118406437D01*
X183081234Y-118363829D01*
X183102235Y-118325674D01*
X183143058Y-118310500D01*
X185156942Y-118310500D01*
X185197765Y-118325674D01*
X185218766Y-118363829D01*
X185209745Y-118406437D01*
X185175085Y-118432808D01*
X185157718Y-118438077D01*
X185044114Y-118472538D01*
X184874303Y-118563305D01*
X184725459Y-118685459D01*
X184603305Y-118834303D01*
X184512538Y-119004114D01*
X184456642Y-119188377D01*
X184437770Y-119379999D01*
X184456642Y-119571622D01*
X184512538Y-119755885D01*
X184585748Y-119892849D01*
X184603306Y-119925698D01*
X184725459Y-120074541D01*
X184874302Y-120196694D01*
X184954058Y-120239324D01*
X185044114Y-120287461D01*
X185044116Y-120287461D01*
X185044117Y-120287462D01*
X185228376Y-120343357D01*
X185420000Y-120362230D01*
X185611624Y-120343357D01*
X185795883Y-120287462D01*
X185965698Y-120196694D01*
X186114541Y-120074541D01*
X186236694Y-119925698D01*
X186327462Y-119755883D01*
X186383357Y-119571624D01*
X186402230Y-119380000D01*
X186383357Y-119188376D01*
X186327462Y-119004117D01*
X186327461Y-119004116D01*
X186327461Y-119004114D01*
X186265822Y-118888797D01*
X186236694Y-118834302D01*
X186114541Y-118685459D01*
X185965698Y-118563306D01*
X185955396Y-118557799D01*
X185795885Y-118472538D01*
X185682285Y-118438078D01*
X185664914Y-118432808D01*
X185630255Y-118406437D01*
X185621234Y-118363829D01*
X185642235Y-118325674D01*
X185683058Y-118310500D01*
X187696942Y-118310500D01*
X187737765Y-118325674D01*
X187758766Y-118363829D01*
X187749745Y-118406437D01*
X187715085Y-118432808D01*
X187697718Y-118438077D01*
X187584114Y-118472538D01*
X187414303Y-118563305D01*
X187265459Y-118685459D01*
X187143305Y-118834303D01*
X187052538Y-119004114D01*
X186996642Y-119188377D01*
X186977770Y-119379999D01*
X186996642Y-119571622D01*
X187052538Y-119755885D01*
X187125748Y-119892849D01*
X187143306Y-119925698D01*
X187265459Y-120074541D01*
X187414302Y-120196694D01*
X187494058Y-120239324D01*
X187584114Y-120287461D01*
X187584116Y-120287461D01*
X187584117Y-120287462D01*
X187768376Y-120343357D01*
X187960000Y-120362230D01*
X188151624Y-120343357D01*
X188335883Y-120287462D01*
X188505698Y-120196694D01*
X188654541Y-120074541D01*
X188776694Y-119925698D01*
X188867462Y-119755883D01*
X188923357Y-119571624D01*
X188942230Y-119380000D01*
X188923357Y-119188376D01*
X188867462Y-119004117D01*
X188867461Y-119004116D01*
X188867461Y-119004114D01*
X188805822Y-118888797D01*
X188776694Y-118834302D01*
X188654541Y-118685459D01*
X188505698Y-118563306D01*
X188495396Y-118557799D01*
X188335885Y-118472538D01*
X188222285Y-118438078D01*
X188204914Y-118432808D01*
X188170255Y-118406437D01*
X188161234Y-118363829D01*
X188182235Y-118325674D01*
X188223058Y-118310500D01*
X190236942Y-118310500D01*
X190277765Y-118325674D01*
X190298766Y-118363829D01*
X190289745Y-118406437D01*
X190255085Y-118432808D01*
X190237718Y-118438077D01*
X190124114Y-118472538D01*
X189954303Y-118563305D01*
X189805459Y-118685459D01*
X189683305Y-118834303D01*
X189592538Y-119004114D01*
X189536642Y-119188377D01*
X189517770Y-119379999D01*
X189536642Y-119571622D01*
X189592538Y-119755885D01*
X189665748Y-119892849D01*
X189683306Y-119925698D01*
X189805459Y-120074541D01*
X189954302Y-120196694D01*
X190034058Y-120239324D01*
X190124114Y-120287461D01*
X190124116Y-120287461D01*
X190124117Y-120287462D01*
X190308376Y-120343357D01*
X190500000Y-120362230D01*
X190691624Y-120343357D01*
X190875883Y-120287462D01*
X191045698Y-120196694D01*
X191194541Y-120074541D01*
X191316694Y-119925698D01*
X191407462Y-119755883D01*
X191463357Y-119571624D01*
X191482230Y-119380000D01*
X191463357Y-119188376D01*
X191407462Y-119004117D01*
X191407461Y-119004116D01*
X191407461Y-119004114D01*
X191345822Y-118888797D01*
X191316694Y-118834302D01*
X191194541Y-118685459D01*
X191045698Y-118563306D01*
X191035396Y-118557799D01*
X190875885Y-118472538D01*
X190762285Y-118438078D01*
X190744914Y-118432808D01*
X190710255Y-118406437D01*
X190701234Y-118363829D01*
X190722235Y-118325674D01*
X190763058Y-118310500D01*
X192776942Y-118310500D01*
X192817765Y-118325674D01*
X192838766Y-118363829D01*
X192829745Y-118406437D01*
X192795085Y-118432808D01*
X192777718Y-118438077D01*
X192664114Y-118472538D01*
X192494303Y-118563305D01*
X192345459Y-118685459D01*
X192223305Y-118834303D01*
X192132538Y-119004114D01*
X192076642Y-119188377D01*
X192057770Y-119379999D01*
X192076642Y-119571622D01*
X192132538Y-119755885D01*
X192205748Y-119892849D01*
X192223306Y-119925698D01*
X192345459Y-120074541D01*
X192494302Y-120196694D01*
X192574058Y-120239324D01*
X192664114Y-120287461D01*
X192664116Y-120287461D01*
X192664117Y-120287462D01*
X192848376Y-120343357D01*
X193040000Y-120362230D01*
X193231624Y-120343357D01*
X193415883Y-120287462D01*
X193585698Y-120196694D01*
X193734541Y-120074541D01*
X193856694Y-119925698D01*
X193947462Y-119755883D01*
X194003357Y-119571624D01*
X194022230Y-119380000D01*
X194003357Y-119188376D01*
X193947462Y-119004117D01*
X193947461Y-119004116D01*
X193947461Y-119004114D01*
X193885822Y-118888797D01*
X193856694Y-118834302D01*
X193734541Y-118685459D01*
X193585698Y-118563306D01*
X193575396Y-118557799D01*
X193415885Y-118472538D01*
X193302285Y-118438078D01*
X193284914Y-118432808D01*
X193250255Y-118406437D01*
X193241234Y-118363829D01*
X193262235Y-118325674D01*
X193303058Y-118310500D01*
X195316942Y-118310500D01*
X195357765Y-118325674D01*
X195378766Y-118363829D01*
X195369745Y-118406437D01*
X195335085Y-118432808D01*
X195317718Y-118438077D01*
X195204114Y-118472538D01*
X195034303Y-118563305D01*
X194885459Y-118685459D01*
X194763305Y-118834303D01*
X194672538Y-119004114D01*
X194616642Y-119188377D01*
X194597770Y-119379999D01*
X194616642Y-119571622D01*
X194672538Y-119755885D01*
X194745748Y-119892849D01*
X194763306Y-119925698D01*
X194885459Y-120074541D01*
X195034302Y-120196694D01*
X195114058Y-120239324D01*
X195204114Y-120287461D01*
X195204116Y-120287461D01*
X195204117Y-120287462D01*
X195388376Y-120343357D01*
X195580000Y-120362230D01*
X195771624Y-120343357D01*
X195955883Y-120287462D01*
X196125698Y-120196694D01*
X196274541Y-120074541D01*
X196396694Y-119925698D01*
X196487462Y-119755883D01*
X196543357Y-119571624D01*
X196562230Y-119380000D01*
X196543357Y-119188376D01*
X196487462Y-119004117D01*
X196487461Y-119004116D01*
X196487461Y-119004114D01*
X196425822Y-118888797D01*
X196396694Y-118834302D01*
X196274541Y-118685459D01*
X196125698Y-118563306D01*
X196115396Y-118557799D01*
X195955885Y-118472538D01*
X195842285Y-118438078D01*
X195824914Y-118432808D01*
X195790255Y-118406437D01*
X195781234Y-118363829D01*
X195802235Y-118325674D01*
X195843058Y-118310500D01*
X197856942Y-118310500D01*
X197897765Y-118325674D01*
X197918766Y-118363829D01*
X197909745Y-118406437D01*
X197875085Y-118432808D01*
X197857718Y-118438077D01*
X197744114Y-118472538D01*
X197574303Y-118563305D01*
X197425459Y-118685459D01*
X197303305Y-118834303D01*
X197212538Y-119004114D01*
X197156642Y-119188377D01*
X197137770Y-119379999D01*
X197156642Y-119571622D01*
X197212538Y-119755885D01*
X197285748Y-119892849D01*
X197303306Y-119925698D01*
X197425459Y-120074541D01*
X197574302Y-120196694D01*
X197654058Y-120239324D01*
X197744114Y-120287461D01*
X197744116Y-120287461D01*
X197744117Y-120287462D01*
X197928376Y-120343357D01*
X198120000Y-120362230D01*
X198311624Y-120343357D01*
X198495883Y-120287462D01*
X198665698Y-120196694D01*
X198814541Y-120074541D01*
X198936694Y-119925698D01*
X199027462Y-119755883D01*
X199083357Y-119571624D01*
X199102230Y-119380000D01*
X199083357Y-119188376D01*
X199027462Y-119004117D01*
X199027461Y-119004116D01*
X199027461Y-119004114D01*
X198965822Y-118888797D01*
X198936694Y-118834302D01*
X198814541Y-118685459D01*
X198665698Y-118563306D01*
X198655396Y-118557799D01*
X198495885Y-118472538D01*
X198382285Y-118438078D01*
X198364914Y-118432808D01*
X198330255Y-118406437D01*
X198321234Y-118363829D01*
X198342235Y-118325674D01*
X198383058Y-118310500D01*
X200396942Y-118310500D01*
X200437765Y-118325674D01*
X200458766Y-118363829D01*
X200449745Y-118406437D01*
X200415085Y-118432808D01*
X200397718Y-118438077D01*
X200284114Y-118472538D01*
X200114303Y-118563305D01*
X199965459Y-118685459D01*
X199843305Y-118834303D01*
X199752538Y-119004114D01*
X199696642Y-119188377D01*
X199677770Y-119379999D01*
X199696642Y-119571622D01*
X199752538Y-119755885D01*
X199825748Y-119892849D01*
X199843306Y-119925698D01*
X199965459Y-120074541D01*
X200114302Y-120196694D01*
X200194058Y-120239324D01*
X200284114Y-120287461D01*
X200284116Y-120287461D01*
X200284117Y-120287462D01*
X200468376Y-120343357D01*
X200660000Y-120362230D01*
X200851624Y-120343357D01*
X201035883Y-120287462D01*
X201205698Y-120196694D01*
X201354541Y-120074541D01*
X201476694Y-119925698D01*
X201567462Y-119755883D01*
X201623357Y-119571624D01*
X201642230Y-119380000D01*
X201623357Y-119188376D01*
X201567462Y-119004117D01*
X201567461Y-119004116D01*
X201567461Y-119004114D01*
X201505822Y-118888797D01*
X201476694Y-118834302D01*
X201354541Y-118685459D01*
X201205698Y-118563306D01*
X201195396Y-118557799D01*
X201035885Y-118472538D01*
X200922285Y-118438078D01*
X200904914Y-118432808D01*
X200870255Y-118406437D01*
X200861234Y-118363829D01*
X200882235Y-118325674D01*
X200923058Y-118310500D01*
X202936942Y-118310500D01*
X202977765Y-118325674D01*
X202998766Y-118363829D01*
X202989745Y-118406437D01*
X202955085Y-118432808D01*
X202937718Y-118438077D01*
X202824114Y-118472538D01*
X202654303Y-118563305D01*
X202505459Y-118685459D01*
X202383305Y-118834303D01*
X202292538Y-119004114D01*
X202236642Y-119188377D01*
X202217770Y-119379999D01*
X202236642Y-119571622D01*
X202292538Y-119755885D01*
X202365748Y-119892849D01*
X202383306Y-119925698D01*
X202505459Y-120074541D01*
X202654302Y-120196694D01*
X202734058Y-120239324D01*
X202824114Y-120287461D01*
X202824116Y-120287461D01*
X202824117Y-120287462D01*
X203008376Y-120343357D01*
X203200000Y-120362230D01*
X203391624Y-120343357D01*
X203575883Y-120287462D01*
X203745698Y-120196694D01*
X203894541Y-120074541D01*
X204016694Y-119925698D01*
X204107462Y-119755883D01*
X204163357Y-119571624D01*
X204182230Y-119380000D01*
X204163357Y-119188376D01*
X204107462Y-119004117D01*
X204107461Y-119004116D01*
X204107461Y-119004114D01*
X204045822Y-118888797D01*
X204016694Y-118834302D01*
X203894541Y-118685459D01*
X203745698Y-118563306D01*
X203735396Y-118557799D01*
X203575885Y-118472538D01*
X203462285Y-118438078D01*
X203444914Y-118432808D01*
X203410255Y-118406437D01*
X203401234Y-118363829D01*
X203422235Y-118325674D01*
X203463058Y-118310500D01*
X205476942Y-118310500D01*
X205517765Y-118325674D01*
X205538766Y-118363829D01*
X205529745Y-118406437D01*
X205495085Y-118432808D01*
X205477718Y-118438077D01*
X205364114Y-118472538D01*
X205194303Y-118563305D01*
X205045459Y-118685459D01*
X204923305Y-118834303D01*
X204832538Y-119004114D01*
X204776642Y-119188377D01*
X204757770Y-119379999D01*
X204776642Y-119571622D01*
X204832538Y-119755885D01*
X204905748Y-119892849D01*
X204923306Y-119925698D01*
X205045459Y-120074541D01*
X205194302Y-120196694D01*
X205274058Y-120239324D01*
X205364114Y-120287461D01*
X205364116Y-120287461D01*
X205364117Y-120287462D01*
X205548376Y-120343357D01*
X205740000Y-120362230D01*
X205931624Y-120343357D01*
X206115883Y-120287462D01*
X206285698Y-120196694D01*
X206434541Y-120074541D01*
X206556694Y-119925698D01*
X206647462Y-119755883D01*
X206703357Y-119571624D01*
X206722230Y-119380000D01*
X206703357Y-119188376D01*
X206647462Y-119004117D01*
X206647461Y-119004116D01*
X206647461Y-119004114D01*
X206585822Y-118888797D01*
X206556694Y-118834302D01*
X206434541Y-118685459D01*
X206285698Y-118563306D01*
X206275396Y-118557799D01*
X206115885Y-118472538D01*
X206002285Y-118438078D01*
X205984914Y-118432808D01*
X205950255Y-118406437D01*
X205941234Y-118363829D01*
X205962235Y-118325674D01*
X206003058Y-118310500D01*
X208016942Y-118310500D01*
X208057765Y-118325674D01*
X208078766Y-118363829D01*
X208069745Y-118406437D01*
X208035085Y-118432808D01*
X208017718Y-118438077D01*
X207904114Y-118472538D01*
X207734303Y-118563305D01*
X207585459Y-118685459D01*
X207463305Y-118834303D01*
X207372538Y-119004114D01*
X207316642Y-119188377D01*
X207297770Y-119379999D01*
X207316642Y-119571622D01*
X207372538Y-119755885D01*
X207445748Y-119892849D01*
X207463306Y-119925698D01*
X207585459Y-120074541D01*
X207734302Y-120196694D01*
X207814058Y-120239324D01*
X207904114Y-120287461D01*
X207904116Y-120287461D01*
X207904117Y-120287462D01*
X208088376Y-120343357D01*
X208280000Y-120362230D01*
X208471624Y-120343357D01*
X208655883Y-120287462D01*
X208825698Y-120196694D01*
X208974541Y-120074541D01*
X209096694Y-119925698D01*
X209187462Y-119755883D01*
X209243357Y-119571624D01*
X209262230Y-119380000D01*
X209243357Y-119188376D01*
X209187462Y-119004117D01*
X209187461Y-119004116D01*
X209187461Y-119004114D01*
X209125822Y-118888797D01*
X209096694Y-118834302D01*
X208974541Y-118685459D01*
X208825698Y-118563306D01*
X208815396Y-118557799D01*
X208655885Y-118472538D01*
X208542285Y-118438078D01*
X208524914Y-118432808D01*
X208490255Y-118406437D01*
X208481234Y-118363829D01*
X208502235Y-118325674D01*
X208543058Y-118310500D01*
X209862977Y-118310500D01*
X209900208Y-118322800D01*
X209922786Y-118354857D01*
X209921824Y-118394056D01*
X209897700Y-118424967D01*
X209878078Y-118438077D01*
X209849898Y-118480251D01*
X209849897Y-118480252D01*
X209849898Y-118480252D01*
X209842500Y-118517442D01*
X209842500Y-120242558D01*
X209849898Y-120279748D01*
X209878078Y-120321922D01*
X209920252Y-120350102D01*
X209957442Y-120357500D01*
X211682557Y-120357500D01*
X211682558Y-120357500D01*
X211719748Y-120350102D01*
X211761922Y-120321922D01*
X211790102Y-120279748D01*
X211797500Y-120242558D01*
X211797500Y-118517442D01*
X211790102Y-118480252D01*
X211761922Y-118438078D01*
X211754036Y-118432809D01*
X211742300Y-118424967D01*
X211718176Y-118394056D01*
X211717214Y-118354857D01*
X211739792Y-118322800D01*
X211777023Y-118310500D01*
X212264612Y-118310500D01*
X212308806Y-118328806D01*
X224571193Y-130591193D01*
X224589499Y-130635387D01*
X224589499Y-134356938D01*
X224574325Y-134397761D01*
X224536170Y-134418762D01*
X224493562Y-134409741D01*
X224467190Y-134375081D01*
X224427461Y-134244114D01*
X224379324Y-134154058D01*
X224336694Y-134074302D01*
X224214541Y-133925459D01*
X224065698Y-133803306D01*
X224001825Y-133769165D01*
X223895885Y-133712538D01*
X223711622Y-133656642D01*
X223520000Y-133637770D01*
X223328377Y-133656642D01*
X223144114Y-133712538D01*
X222974303Y-133803305D01*
X222825459Y-133925459D01*
X222703305Y-134074303D01*
X222612538Y-134244114D01*
X222556642Y-134428377D01*
X222537770Y-134620000D01*
X222556642Y-134811622D01*
X222612538Y-134995885D01*
X222659364Y-135083489D01*
X222703306Y-135165698D01*
X222825459Y-135314541D01*
X222974302Y-135436694D01*
X223054058Y-135479324D01*
X223144114Y-135527461D01*
X223144116Y-135527461D01*
X223144117Y-135527462D01*
X223257712Y-135561921D01*
X223275088Y-135567192D01*
X223309748Y-135593564D01*
X223318769Y-135636172D01*
X223297768Y-135674327D01*
X223256945Y-135689501D01*
X221243055Y-135689501D01*
X221202232Y-135674327D01*
X221181231Y-135636172D01*
X221190252Y-135593564D01*
X221224912Y-135567192D01*
X221242288Y-135561921D01*
X221355883Y-135527462D01*
X221525698Y-135436694D01*
X221674541Y-135314541D01*
X221796694Y-135165698D01*
X221887462Y-134995883D01*
X221943357Y-134811624D01*
X221962230Y-134620000D01*
X221943357Y-134428376D01*
X221887462Y-134244117D01*
X221887461Y-134244116D01*
X221887461Y-134244114D01*
X221839324Y-134154058D01*
X221796694Y-134074302D01*
X221674541Y-133925459D01*
X221525698Y-133803306D01*
X221461825Y-133769165D01*
X221355885Y-133712538D01*
X221171622Y-133656642D01*
X220980000Y-133637770D01*
X220788377Y-133656642D01*
X220604114Y-133712538D01*
X220434303Y-133803305D01*
X220285459Y-133925459D01*
X220163305Y-134074303D01*
X220072538Y-134244114D01*
X220016642Y-134428377D01*
X219997770Y-134620000D01*
X220016642Y-134811622D01*
X220072538Y-134995885D01*
X220119364Y-135083489D01*
X220163306Y-135165698D01*
X220285459Y-135314541D01*
X220434302Y-135436694D01*
X220514058Y-135479324D01*
X220604114Y-135527461D01*
X220604116Y-135527461D01*
X220604117Y-135527462D01*
X220717712Y-135561921D01*
X220735088Y-135567192D01*
X220769748Y-135593564D01*
X220778769Y-135636172D01*
X220757768Y-135674327D01*
X220716945Y-135689501D01*
X218703055Y-135689501D01*
X218662232Y-135674327D01*
X218641231Y-135636172D01*
X218650252Y-135593564D01*
X218684912Y-135567192D01*
X218702288Y-135561921D01*
X218815883Y-135527462D01*
X218985698Y-135436694D01*
X219134541Y-135314541D01*
X219256694Y-135165698D01*
X219347462Y-134995883D01*
X219403357Y-134811624D01*
X219422230Y-134620000D01*
X219403357Y-134428376D01*
X219347462Y-134244117D01*
X219347461Y-134244116D01*
X219347461Y-134244114D01*
X219299324Y-134154058D01*
X219256694Y-134074302D01*
X219134541Y-133925459D01*
X218985698Y-133803306D01*
X218921825Y-133769165D01*
X218815885Y-133712538D01*
X218631622Y-133656642D01*
X218440000Y-133637770D01*
X218248377Y-133656642D01*
X218064114Y-133712538D01*
X217894303Y-133803305D01*
X217745459Y-133925459D01*
X217623305Y-134074303D01*
X217532538Y-134244114D01*
X217476642Y-134428377D01*
X217457770Y-134620000D01*
X217476642Y-134811622D01*
X217532538Y-134995885D01*
X217579364Y-135083489D01*
X217623306Y-135165698D01*
X217745459Y-135314541D01*
X217894302Y-135436694D01*
X217974058Y-135479324D01*
X218064114Y-135527461D01*
X218064116Y-135527461D01*
X218064117Y-135527462D01*
X218177712Y-135561921D01*
X218195088Y-135567192D01*
X218229748Y-135593564D01*
X218238769Y-135636172D01*
X218217768Y-135674327D01*
X218176945Y-135689501D01*
X216163055Y-135689501D01*
X216122232Y-135674327D01*
X216101231Y-135636172D01*
X216110252Y-135593564D01*
X216144912Y-135567192D01*
X216162288Y-135561921D01*
X216275883Y-135527462D01*
X216445698Y-135436694D01*
X216594541Y-135314541D01*
X216716694Y-135165698D01*
X216807462Y-134995883D01*
X216863357Y-134811624D01*
X216882230Y-134620000D01*
X216863357Y-134428376D01*
X216807462Y-134244117D01*
X216807461Y-134244116D01*
X216807461Y-134244114D01*
X216759324Y-134154058D01*
X216716694Y-134074302D01*
X216594541Y-133925459D01*
X216445698Y-133803306D01*
X216381825Y-133769165D01*
X216275885Y-133712538D01*
X216091622Y-133656642D01*
X215900000Y-133637770D01*
X215708377Y-133656642D01*
X215524114Y-133712538D01*
X215354303Y-133803305D01*
X215205459Y-133925459D01*
X215083305Y-134074303D01*
X214992538Y-134244114D01*
X214936642Y-134428377D01*
X214917770Y-134620000D01*
X214936642Y-134811622D01*
X214992538Y-134995885D01*
X215039364Y-135083489D01*
X215083306Y-135165698D01*
X215205459Y-135314541D01*
X215354302Y-135436694D01*
X215434058Y-135479324D01*
X215524114Y-135527461D01*
X215524116Y-135527461D01*
X215524117Y-135527462D01*
X215637712Y-135561921D01*
X215655088Y-135567192D01*
X215689748Y-135593564D01*
X215698769Y-135636172D01*
X215677768Y-135674327D01*
X215636945Y-135689501D01*
X213623055Y-135689501D01*
X213582232Y-135674327D01*
X213561231Y-135636172D01*
X213570252Y-135593564D01*
X213604912Y-135567192D01*
X213622288Y-135561921D01*
X213735883Y-135527462D01*
X213905698Y-135436694D01*
X214054541Y-135314541D01*
X214176694Y-135165698D01*
X214267462Y-134995883D01*
X214323357Y-134811624D01*
X214342230Y-134620000D01*
X214323357Y-134428376D01*
X214267462Y-134244117D01*
X214267461Y-134244116D01*
X214267461Y-134244114D01*
X214219324Y-134154058D01*
X214176694Y-134074302D01*
X214054541Y-133925459D01*
X213905698Y-133803306D01*
X213841825Y-133769165D01*
X213735885Y-133712538D01*
X213551622Y-133656642D01*
X213360000Y-133637770D01*
X213168377Y-133656642D01*
X212984114Y-133712538D01*
X212814303Y-133803305D01*
X212665459Y-133925459D01*
X212543305Y-134074303D01*
X212452538Y-134244114D01*
X212396642Y-134428377D01*
X212377770Y-134620000D01*
X212396642Y-134811622D01*
X212452538Y-134995885D01*
X212499364Y-135083489D01*
X212543306Y-135165698D01*
X212665459Y-135314541D01*
X212814302Y-135436694D01*
X212894058Y-135479324D01*
X212984114Y-135527461D01*
X212984116Y-135527461D01*
X212984117Y-135527462D01*
X213097712Y-135561921D01*
X213115088Y-135567192D01*
X213149748Y-135593564D01*
X213158769Y-135636172D01*
X213137768Y-135674327D01*
X213096945Y-135689501D01*
X211083055Y-135689501D01*
X211042232Y-135674327D01*
X211021231Y-135636172D01*
X211030252Y-135593564D01*
X211064912Y-135567192D01*
X211082288Y-135561921D01*
X211195883Y-135527462D01*
X211365698Y-135436694D01*
X211514541Y-135314541D01*
X211636694Y-135165698D01*
X211727462Y-134995883D01*
X211783357Y-134811624D01*
X211802230Y-134620000D01*
X211783357Y-134428376D01*
X211727462Y-134244117D01*
X211727461Y-134244116D01*
X211727461Y-134244114D01*
X211679324Y-134154058D01*
X211636694Y-134074302D01*
X211514541Y-133925459D01*
X211365698Y-133803306D01*
X211301825Y-133769165D01*
X211195885Y-133712538D01*
X211011622Y-133656642D01*
X210820000Y-133637770D01*
X210628377Y-133656642D01*
X210444114Y-133712538D01*
X210274303Y-133803305D01*
X210125459Y-133925459D01*
X210003305Y-134074303D01*
X209912538Y-134244114D01*
X209856642Y-134428377D01*
X209837770Y-134620000D01*
X209856642Y-134811622D01*
X209912538Y-134995885D01*
X209959364Y-135083489D01*
X210003306Y-135165698D01*
X210125459Y-135314541D01*
X210274302Y-135436694D01*
X210354058Y-135479324D01*
X210444114Y-135527461D01*
X210444116Y-135527461D01*
X210444117Y-135527462D01*
X210557712Y-135561921D01*
X210575088Y-135567192D01*
X210609748Y-135593564D01*
X210618769Y-135636172D01*
X210597768Y-135674327D01*
X210556945Y-135689501D01*
X208543055Y-135689501D01*
X208502232Y-135674327D01*
X208481231Y-135636172D01*
X208490252Y-135593564D01*
X208524912Y-135567192D01*
X208542288Y-135561921D01*
X208655883Y-135527462D01*
X208825698Y-135436694D01*
X208974541Y-135314541D01*
X209096694Y-135165698D01*
X209187462Y-134995883D01*
X209243357Y-134811624D01*
X209262230Y-134620000D01*
X209243357Y-134428376D01*
X209187462Y-134244117D01*
X209187461Y-134244116D01*
X209187461Y-134244114D01*
X209139324Y-134154058D01*
X209096694Y-134074302D01*
X208974541Y-133925459D01*
X208825698Y-133803306D01*
X208761825Y-133769165D01*
X208655885Y-133712538D01*
X208471622Y-133656642D01*
X208280000Y-133637770D01*
X208088377Y-133656642D01*
X207904114Y-133712538D01*
X207734303Y-133803305D01*
X207585459Y-133925459D01*
X207463305Y-134074303D01*
X207372538Y-134244114D01*
X207316642Y-134428377D01*
X207297770Y-134620000D01*
X207316642Y-134811622D01*
X207372538Y-134995885D01*
X207419364Y-135083489D01*
X207463306Y-135165698D01*
X207585459Y-135314541D01*
X207734302Y-135436694D01*
X207814058Y-135479324D01*
X207904114Y-135527461D01*
X207904116Y-135527461D01*
X207904117Y-135527462D01*
X208017712Y-135561921D01*
X208035088Y-135567192D01*
X208069748Y-135593564D01*
X208078769Y-135636172D01*
X208057768Y-135674327D01*
X208016945Y-135689501D01*
X206003055Y-135689501D01*
X205962232Y-135674327D01*
X205941231Y-135636172D01*
X205950252Y-135593564D01*
X205984912Y-135567192D01*
X206002288Y-135561921D01*
X206115883Y-135527462D01*
X206285698Y-135436694D01*
X206434541Y-135314541D01*
X206556694Y-135165698D01*
X206647462Y-134995883D01*
X206703357Y-134811624D01*
X206722230Y-134620000D01*
X206703357Y-134428376D01*
X206647462Y-134244117D01*
X206647461Y-134244116D01*
X206647461Y-134244114D01*
X206599324Y-134154058D01*
X206556694Y-134074302D01*
X206434541Y-133925459D01*
X206285698Y-133803306D01*
X206221825Y-133769165D01*
X206115885Y-133712538D01*
X205931622Y-133656642D01*
X205740000Y-133637770D01*
X205548377Y-133656642D01*
X205364114Y-133712538D01*
X205194303Y-133803305D01*
X205045459Y-133925459D01*
X204923305Y-134074303D01*
X204832538Y-134244114D01*
X204776642Y-134428377D01*
X204757770Y-134620000D01*
X204776642Y-134811622D01*
X204832538Y-134995885D01*
X204879364Y-135083489D01*
X204923306Y-135165698D01*
X205045459Y-135314541D01*
X205194302Y-135436694D01*
X205274058Y-135479324D01*
X205364114Y-135527461D01*
X205364116Y-135527461D01*
X205364117Y-135527462D01*
X205477712Y-135561921D01*
X205495088Y-135567192D01*
X205529748Y-135593564D01*
X205538769Y-135636172D01*
X205517768Y-135674327D01*
X205476945Y-135689501D01*
X203463055Y-135689501D01*
X203422232Y-135674327D01*
X203401231Y-135636172D01*
X203410252Y-135593564D01*
X203444912Y-135567192D01*
X203462288Y-135561921D01*
X203575883Y-135527462D01*
X203745698Y-135436694D01*
X203894541Y-135314541D01*
X204016694Y-135165698D01*
X204107462Y-134995883D01*
X204163357Y-134811624D01*
X204182230Y-134620000D01*
X204163357Y-134428376D01*
X204107462Y-134244117D01*
X204107461Y-134244116D01*
X204107461Y-134244114D01*
X204059324Y-134154058D01*
X204016694Y-134074302D01*
X203894541Y-133925459D01*
X203745698Y-133803306D01*
X203681825Y-133769165D01*
X203575885Y-133712538D01*
X203391622Y-133656642D01*
X203200000Y-133637770D01*
X203008377Y-133656642D01*
X202824114Y-133712538D01*
X202654303Y-133803305D01*
X202505459Y-133925459D01*
X202383305Y-134074303D01*
X202292538Y-134244114D01*
X202236642Y-134428377D01*
X202217770Y-134620000D01*
X202236642Y-134811622D01*
X202292538Y-134995885D01*
X202339364Y-135083489D01*
X202383306Y-135165698D01*
X202505459Y-135314541D01*
X202654302Y-135436694D01*
X202734058Y-135479324D01*
X202824114Y-135527461D01*
X202824116Y-135527461D01*
X202824117Y-135527462D01*
X202937712Y-135561921D01*
X202955088Y-135567192D01*
X202989748Y-135593564D01*
X202998769Y-135636172D01*
X202977768Y-135674327D01*
X202936945Y-135689501D01*
X200923055Y-135689501D01*
X200882232Y-135674327D01*
X200861231Y-135636172D01*
X200870252Y-135593564D01*
X200904912Y-135567192D01*
X200922288Y-135561921D01*
X201035883Y-135527462D01*
X201205698Y-135436694D01*
X201354541Y-135314541D01*
X201476694Y-135165698D01*
X201567462Y-134995883D01*
X201623357Y-134811624D01*
X201642230Y-134620000D01*
X201623357Y-134428376D01*
X201567462Y-134244117D01*
X201567461Y-134244116D01*
X201567461Y-134244114D01*
X201519324Y-134154058D01*
X201476694Y-134074302D01*
X201354541Y-133925459D01*
X201205698Y-133803306D01*
X201141825Y-133769165D01*
X201035885Y-133712538D01*
X200851622Y-133656642D01*
X200660000Y-133637770D01*
X200468377Y-133656642D01*
X200284114Y-133712538D01*
X200114303Y-133803305D01*
X199965459Y-133925459D01*
X199843305Y-134074303D01*
X199752538Y-134244114D01*
X199696642Y-134428377D01*
X199677770Y-134620000D01*
X199696642Y-134811622D01*
X199752538Y-134995885D01*
X199799364Y-135083489D01*
X199843306Y-135165698D01*
X199965459Y-135314541D01*
X200114302Y-135436694D01*
X200194058Y-135479324D01*
X200284114Y-135527461D01*
X200284116Y-135527461D01*
X200284117Y-135527462D01*
X200397712Y-135561921D01*
X200415088Y-135567192D01*
X200449748Y-135593564D01*
X200458769Y-135636172D01*
X200437768Y-135674327D01*
X200396945Y-135689501D01*
X198383055Y-135689501D01*
X198342232Y-135674327D01*
X198321231Y-135636172D01*
X198330252Y-135593564D01*
X198364912Y-135567192D01*
X198382288Y-135561921D01*
X198495883Y-135527462D01*
X198665698Y-135436694D01*
X198814541Y-135314541D01*
X198936694Y-135165698D01*
X199027462Y-134995883D01*
X199083357Y-134811624D01*
X199102230Y-134620000D01*
X199083357Y-134428376D01*
X199027462Y-134244117D01*
X199027461Y-134244116D01*
X199027461Y-134244114D01*
X198979324Y-134154058D01*
X198936694Y-134074302D01*
X198814541Y-133925459D01*
X198665698Y-133803306D01*
X198601825Y-133769165D01*
X198495885Y-133712538D01*
X198311622Y-133656642D01*
X198120000Y-133637770D01*
X197928377Y-133656642D01*
X197744114Y-133712538D01*
X197574303Y-133803305D01*
X197425459Y-133925459D01*
X197303305Y-134074303D01*
X197212538Y-134244114D01*
X197156642Y-134428377D01*
X197137770Y-134620000D01*
X197156642Y-134811622D01*
X197212538Y-134995885D01*
X197259364Y-135083489D01*
X197303306Y-135165698D01*
X197425459Y-135314541D01*
X197574302Y-135436694D01*
X197654058Y-135479324D01*
X197744114Y-135527461D01*
X197744116Y-135527461D01*
X197744117Y-135527462D01*
X197857712Y-135561921D01*
X197875088Y-135567192D01*
X197909748Y-135593564D01*
X197918769Y-135636172D01*
X197897768Y-135674327D01*
X197856945Y-135689501D01*
X195843055Y-135689501D01*
X195802232Y-135674327D01*
X195781231Y-135636172D01*
X195790252Y-135593564D01*
X195824912Y-135567192D01*
X195842288Y-135561921D01*
X195955883Y-135527462D01*
X196125698Y-135436694D01*
X196274541Y-135314541D01*
X196396694Y-135165698D01*
X196487462Y-134995883D01*
X196543357Y-134811624D01*
X196562230Y-134620000D01*
X196543357Y-134428376D01*
X196487462Y-134244117D01*
X196487461Y-134244116D01*
X196487461Y-134244114D01*
X196439324Y-134154058D01*
X196396694Y-134074302D01*
X196274541Y-133925459D01*
X196125698Y-133803306D01*
X196061825Y-133769165D01*
X195955885Y-133712538D01*
X195771622Y-133656642D01*
X195580000Y-133637770D01*
X195388377Y-133656642D01*
X195204114Y-133712538D01*
X195034303Y-133803305D01*
X194885459Y-133925459D01*
X194763305Y-134074303D01*
X194672538Y-134244114D01*
X194616642Y-134428377D01*
X194597770Y-134620000D01*
X194616642Y-134811622D01*
X194672538Y-134995885D01*
X194719364Y-135083489D01*
X194763306Y-135165698D01*
X194885459Y-135314541D01*
X195034302Y-135436694D01*
X195114058Y-135479324D01*
X195204114Y-135527461D01*
X195204116Y-135527461D01*
X195204117Y-135527462D01*
X195317712Y-135561921D01*
X195335088Y-135567192D01*
X195369748Y-135593564D01*
X195378769Y-135636172D01*
X195357768Y-135674327D01*
X195316945Y-135689501D01*
X193303055Y-135689501D01*
X193262232Y-135674327D01*
X193241231Y-135636172D01*
X193250252Y-135593564D01*
X193284912Y-135567192D01*
X193302288Y-135561921D01*
X193415883Y-135527462D01*
X193585698Y-135436694D01*
X193734541Y-135314541D01*
X193856694Y-135165698D01*
X193947462Y-134995883D01*
X194003357Y-134811624D01*
X194022230Y-134620000D01*
X194003357Y-134428376D01*
X193947462Y-134244117D01*
X193947461Y-134244116D01*
X193947461Y-134244114D01*
X193899324Y-134154058D01*
X193856694Y-134074302D01*
X193734541Y-133925459D01*
X193585698Y-133803306D01*
X193521825Y-133769165D01*
X193415885Y-133712538D01*
X193231622Y-133656642D01*
X193040000Y-133637770D01*
X192848377Y-133656642D01*
X192664114Y-133712538D01*
X192494303Y-133803305D01*
X192345459Y-133925459D01*
X192223305Y-134074303D01*
X192132538Y-134244114D01*
X192076642Y-134428377D01*
X192057770Y-134620000D01*
X192076642Y-134811622D01*
X192132538Y-134995885D01*
X192179364Y-135083489D01*
X192223306Y-135165698D01*
X192345459Y-135314541D01*
X192494302Y-135436694D01*
X192574058Y-135479324D01*
X192664114Y-135527461D01*
X192664116Y-135527461D01*
X192664117Y-135527462D01*
X192777712Y-135561921D01*
X192795088Y-135567192D01*
X192829748Y-135593564D01*
X192838769Y-135636172D01*
X192817768Y-135674327D01*
X192776945Y-135689501D01*
X190763055Y-135689501D01*
X190722232Y-135674327D01*
X190701231Y-135636172D01*
X190710252Y-135593564D01*
X190744912Y-135567192D01*
X190762288Y-135561921D01*
X190875883Y-135527462D01*
X191045698Y-135436694D01*
X191194541Y-135314541D01*
X191316694Y-135165698D01*
X191407462Y-134995883D01*
X191463357Y-134811624D01*
X191482230Y-134620000D01*
X191463357Y-134428376D01*
X191407462Y-134244117D01*
X191407461Y-134244116D01*
X191407461Y-134244114D01*
X191359324Y-134154058D01*
X191316694Y-134074302D01*
X191194541Y-133925459D01*
X191045698Y-133803306D01*
X190981825Y-133769165D01*
X190875885Y-133712538D01*
X190691622Y-133656642D01*
X190500000Y-133637770D01*
X190308377Y-133656642D01*
X190124114Y-133712538D01*
X189954303Y-133803305D01*
X189805459Y-133925459D01*
X189683305Y-134074303D01*
X189592538Y-134244114D01*
X189536642Y-134428377D01*
X189517770Y-134620000D01*
X189536642Y-134811622D01*
X189592538Y-134995885D01*
X189639364Y-135083489D01*
X189683306Y-135165698D01*
X189805459Y-135314541D01*
X189954302Y-135436694D01*
X190034058Y-135479324D01*
X190124114Y-135527461D01*
X190124116Y-135527461D01*
X190124117Y-135527462D01*
X190237712Y-135561921D01*
X190255088Y-135567192D01*
X190289748Y-135593564D01*
X190298769Y-135636172D01*
X190277768Y-135674327D01*
X190236945Y-135689501D01*
X188223055Y-135689501D01*
X188182232Y-135674327D01*
X188161231Y-135636172D01*
X188170252Y-135593564D01*
X188204912Y-135567192D01*
X188222288Y-135561921D01*
X188335883Y-135527462D01*
X188505698Y-135436694D01*
X188654541Y-135314541D01*
X188776694Y-135165698D01*
X188867462Y-134995883D01*
X188923357Y-134811624D01*
X188942230Y-134620000D01*
X188923357Y-134428376D01*
X188867462Y-134244117D01*
X188867461Y-134244116D01*
X188867461Y-134244114D01*
X188819324Y-134154058D01*
X188776694Y-134074302D01*
X188654541Y-133925459D01*
X188505698Y-133803306D01*
X188441825Y-133769165D01*
X188335885Y-133712538D01*
X188151622Y-133656642D01*
X187960000Y-133637770D01*
X187768377Y-133656642D01*
X187584114Y-133712538D01*
X187414303Y-133803305D01*
X187265459Y-133925459D01*
X187143305Y-134074303D01*
X187052538Y-134244114D01*
X186996642Y-134428377D01*
X186977770Y-134620000D01*
X186996642Y-134811622D01*
X187052538Y-134995885D01*
X187099364Y-135083489D01*
X187143306Y-135165698D01*
X187265459Y-135314541D01*
X187414302Y-135436694D01*
X187494058Y-135479324D01*
X187584114Y-135527461D01*
X187584116Y-135527461D01*
X187584117Y-135527462D01*
X187697712Y-135561921D01*
X187715088Y-135567192D01*
X187749748Y-135593564D01*
X187758769Y-135636172D01*
X187737768Y-135674327D01*
X187696945Y-135689501D01*
X185683055Y-135689501D01*
X185642232Y-135674327D01*
X185621231Y-135636172D01*
X185630252Y-135593564D01*
X185664912Y-135567192D01*
X185682288Y-135561921D01*
X185795883Y-135527462D01*
X185965698Y-135436694D01*
X186114541Y-135314541D01*
X186236694Y-135165698D01*
X186327462Y-134995883D01*
X186383357Y-134811624D01*
X186402230Y-134620000D01*
X186383357Y-134428376D01*
X186327462Y-134244117D01*
X186327461Y-134244116D01*
X186327461Y-134244114D01*
X186279324Y-134154058D01*
X186236694Y-134074302D01*
X186114541Y-133925459D01*
X185965698Y-133803306D01*
X185901825Y-133769165D01*
X185795885Y-133712538D01*
X185611622Y-133656642D01*
X185420000Y-133637770D01*
X185228377Y-133656642D01*
X185044114Y-133712538D01*
X184874303Y-133803305D01*
X184725459Y-133925459D01*
X184603305Y-134074303D01*
X184512538Y-134244114D01*
X184456642Y-134428377D01*
X184437770Y-134620000D01*
X184456642Y-134811622D01*
X184512538Y-134995885D01*
X184559364Y-135083489D01*
X184603306Y-135165698D01*
X184725459Y-135314541D01*
X184874302Y-135436694D01*
X184954058Y-135479324D01*
X185044114Y-135527461D01*
X185044116Y-135527461D01*
X185044117Y-135527462D01*
X185157712Y-135561921D01*
X185175088Y-135567192D01*
X185209748Y-135593564D01*
X185218769Y-135636172D01*
X185197768Y-135674327D01*
X185156945Y-135689501D01*
X183870576Y-135689501D01*
X183826382Y-135671195D01*
X183808076Y-135627001D01*
X183826382Y-135582807D01*
X183918110Y-135491078D01*
X184053599Y-135297579D01*
X184153431Y-135083489D01*
X184210636Y-134870001D01*
X184210636Y-134870000D01*
X181549364Y-134870000D01*
X181549363Y-134870001D01*
X181606568Y-135083489D01*
X181706400Y-135297579D01*
X181841889Y-135491078D01*
X181933618Y-135582807D01*
X181951924Y-135627001D01*
X181933618Y-135671195D01*
X181889424Y-135689501D01*
X181297021Y-135689501D01*
X181259790Y-135677201D01*
X181237212Y-135645144D01*
X181238175Y-135605945D01*
X181262297Y-135575034D01*
X181281922Y-135561922D01*
X181310102Y-135519748D01*
X181317500Y-135482558D01*
X181317500Y-134369998D01*
X181549363Y-134369998D01*
X181549364Y-134370000D01*
X182630000Y-134370000D01*
X183130000Y-134370000D01*
X184210636Y-134370000D01*
X184210636Y-134369998D01*
X184153431Y-134156510D01*
X184053599Y-133942421D01*
X183918110Y-133748921D01*
X183751078Y-133581889D01*
X183557579Y-133446400D01*
X183343489Y-133346568D01*
X183130001Y-133289363D01*
X183130000Y-133289364D01*
X183130000Y-134370000D01*
X182630000Y-134370000D01*
X182630000Y-133289364D01*
X182629998Y-133289363D01*
X182416510Y-133346568D01*
X182202421Y-133446400D01*
X182008921Y-133581889D01*
X181841889Y-133748921D01*
X181706400Y-133942421D01*
X181606568Y-134156510D01*
X181549363Y-134369998D01*
X181317500Y-134369998D01*
X181317500Y-133757442D01*
X181310102Y-133720252D01*
X181281922Y-133678078D01*
X181239748Y-133649898D01*
X181202558Y-133642500D01*
X181202557Y-133642500D01*
X180630000Y-133642500D01*
X180585806Y-133624194D01*
X180567500Y-133580000D01*
X180567500Y-133120000D01*
X180585806Y-133075806D01*
X180630000Y-133057500D01*
X181202557Y-133057500D01*
X181202558Y-133057500D01*
X181239748Y-133050102D01*
X181281922Y-133021922D01*
X181310102Y-132979748D01*
X181317500Y-132942558D01*
X181317500Y-132370000D01*
X181335806Y-132325806D01*
X181380000Y-132307500D01*
X181881173Y-132307500D01*
X181918404Y-132319800D01*
X181940981Y-132351856D01*
X181949887Y-132381215D01*
X181972538Y-132455885D01*
X182037013Y-132576508D01*
X182063306Y-132625698D01*
X182185459Y-132774541D01*
X182334302Y-132896694D01*
X182414058Y-132939324D01*
X182504114Y-132987461D01*
X182504116Y-132987461D01*
X182504117Y-132987462D01*
X182688376Y-133043357D01*
X182880000Y-133062230D01*
X183071624Y-133043357D01*
X183255883Y-132987462D01*
X183425698Y-132896694D01*
X183574541Y-132774541D01*
X183696694Y-132625698D01*
X183787462Y-132455883D01*
X183819018Y-132351856D01*
X183841596Y-132319800D01*
X183878827Y-132307500D01*
X198366427Y-132307500D01*
X198369697Y-132307585D01*
X198381598Y-132308209D01*
X198410382Y-132309718D01*
X198410382Y-132309717D01*
X198410384Y-132309718D01*
X198434231Y-132300563D01*
X198443607Y-132297785D01*
X198468600Y-132292474D01*
X198476831Y-132286493D01*
X198491174Y-132278706D01*
X198500670Y-132275061D01*
X198500669Y-132275061D01*
X198500673Y-132275060D01*
X198518739Y-132256992D01*
X198526176Y-132250641D01*
X198546842Y-132235628D01*
X198551931Y-132226811D01*
X198561860Y-132213871D01*
X198957927Y-131817806D01*
X199002122Y-131799500D01*
X201132000Y-131799500D01*
X201176194Y-131817806D01*
X201194500Y-131862000D01*
X201194500Y-131959319D01*
X201176194Y-132003513D01*
X201088215Y-132091491D01*
X201029613Y-132206504D01*
X201009420Y-132334000D01*
X201029613Y-132461495D01*
X201088215Y-132576508D01*
X201179491Y-132667784D01*
X201248269Y-132702828D01*
X201294506Y-132726387D01*
X201422000Y-132746580D01*
X201549494Y-132726387D01*
X201664508Y-132667784D01*
X201755784Y-132576508D01*
X201814387Y-132461494D01*
X201834580Y-132334000D01*
X201814387Y-132206506D01*
X201813615Y-132204991D01*
X201755784Y-132091491D01*
X201667806Y-132003513D01*
X201649500Y-131959319D01*
X201649500Y-131692121D01*
X201667806Y-131647927D01*
X202129446Y-131186287D01*
X202593523Y-130722209D01*
X202595857Y-130719994D01*
X202626163Y-130692708D01*
X202636552Y-130669372D01*
X202641226Y-130660765D01*
X202655134Y-130639349D01*
X202656725Y-130629297D01*
X202661359Y-130613656D01*
X202665500Y-130604357D01*
X202665500Y-130578822D01*
X202666269Y-130569045D01*
X202668335Y-130555999D01*
X202670263Y-130543828D01*
X202667629Y-130533997D01*
X202665500Y-130517822D01*
X202665500Y-128531585D01*
X202665586Y-128528313D01*
X202667719Y-128487616D01*
X202658567Y-128463776D01*
X202655782Y-128454375D01*
X202650474Y-128429400D01*
X202644492Y-128421166D01*
X202636708Y-128406832D01*
X202633060Y-128397327D01*
X202615006Y-128379273D01*
X202608636Y-128371815D01*
X202593627Y-128351157D01*
X202584810Y-128346066D01*
X202571869Y-128336135D01*
X201667806Y-127432072D01*
X201649500Y-127387878D01*
X201649500Y-126612121D01*
X201667806Y-126567927D01*
X203146062Y-125089671D01*
X204625523Y-123610209D01*
X204627857Y-123607994D01*
X204658163Y-123580708D01*
X204668552Y-123557372D01*
X204673226Y-123548765D01*
X204687134Y-123527349D01*
X204688725Y-123517297D01*
X204693359Y-123501656D01*
X204697500Y-123492357D01*
X204697500Y-123466822D01*
X204698269Y-123457045D01*
X204698515Y-123455491D01*
X204702263Y-123431828D01*
X204699629Y-123421997D01*
X204697500Y-123405822D01*
X204697500Y-122548681D01*
X204715806Y-122504487D01*
X204803784Y-122416508D01*
X204808798Y-122406667D01*
X204862387Y-122301494D01*
X204882580Y-122174000D01*
X204862387Y-122046506D01*
X204853210Y-122028495D01*
X204803784Y-121931491D01*
X204712508Y-121840215D01*
X204597495Y-121781613D01*
X204470000Y-121761420D01*
X204342504Y-121781613D01*
X204227491Y-121840215D01*
X204136215Y-121931491D01*
X204077613Y-122046504D01*
X204058718Y-122165806D01*
X204057420Y-122174000D01*
X204066684Y-122232493D01*
X204077613Y-122301495D01*
X204136215Y-122416508D01*
X204224194Y-122504487D01*
X204242500Y-122548681D01*
X204242500Y-123323879D01*
X204237742Y-123347797D01*
X204224194Y-123368073D01*
X201346072Y-126246194D01*
X201301878Y-126264500D01*
X197478681Y-126264500D01*
X197434487Y-126246194D01*
X197346508Y-126158215D01*
X197231495Y-126099613D01*
X197104000Y-126079420D01*
X196976504Y-126099613D01*
X196861491Y-126158215D01*
X196770215Y-126249491D01*
X196711613Y-126364504D01*
X196691420Y-126492000D01*
X196711613Y-126619495D01*
X196770215Y-126734508D01*
X196861491Y-126825784D01*
X196963678Y-126877851D01*
X196976506Y-126884387D01*
X197104000Y-126904580D01*
X197231494Y-126884387D01*
X197346508Y-126825784D01*
X197390292Y-126782000D01*
X197434487Y-126737806D01*
X197478681Y-126719500D01*
X201132000Y-126719500D01*
X201176194Y-126737806D01*
X201194500Y-126782000D01*
X201194500Y-127500427D01*
X201194414Y-127503699D01*
X201192281Y-127544383D01*
X201201431Y-127568220D01*
X201204216Y-127577621D01*
X201209525Y-127602599D01*
X201215508Y-127610834D01*
X201223291Y-127625169D01*
X201226939Y-127634672D01*
X201244993Y-127652726D01*
X201251362Y-127660183D01*
X201266372Y-127680842D01*
X201275188Y-127685932D01*
X201288130Y-127695864D01*
X202192194Y-128599928D01*
X202210500Y-128644122D01*
X202210500Y-130435879D01*
X202205742Y-130459797D01*
X202192194Y-130480073D01*
X201346072Y-131326194D01*
X201301878Y-131344500D01*
X198889572Y-131344500D01*
X198886302Y-131344414D01*
X198864337Y-131343263D01*
X198845615Y-131342282D01*
X198845614Y-131342282D01*
X198821770Y-131351433D01*
X198812375Y-131354216D01*
X198787400Y-131359525D01*
X198781407Y-131363879D01*
X198779165Y-131365508D01*
X198764832Y-131373290D01*
X198755326Y-131376939D01*
X198755326Y-131376940D01*
X198737269Y-131394996D01*
X198729815Y-131401362D01*
X198709156Y-131416372D01*
X198704069Y-131425184D01*
X198694138Y-131438126D01*
X198298072Y-131834194D01*
X198277796Y-131847742D01*
X198253878Y-131852500D01*
X183878827Y-131852500D01*
X183841596Y-131840200D01*
X183819018Y-131808143D01*
X183813514Y-131790000D01*
X183787462Y-131704117D01*
X183787461Y-131704116D01*
X183787461Y-131704114D01*
X183736216Y-131608243D01*
X183696694Y-131534302D01*
X183574541Y-131385459D01*
X183425698Y-131263306D01*
X183408288Y-131254000D01*
X183255885Y-131172538D01*
X183071622Y-131116642D01*
X182880000Y-131097770D01*
X182688377Y-131116642D01*
X182504114Y-131172538D01*
X182334303Y-131263305D01*
X182185459Y-131385459D01*
X182063305Y-131534303D01*
X181972538Y-131704114D01*
X181940982Y-131808143D01*
X181918404Y-131840200D01*
X181881173Y-131852500D01*
X181380000Y-131852500D01*
X181335806Y-131834194D01*
X181317500Y-131790000D01*
X181317500Y-131217443D01*
X181317500Y-131217442D01*
X181310102Y-131180252D01*
X181281922Y-131138078D01*
X181239748Y-131109898D01*
X181202558Y-131102500D01*
X179477442Y-131102500D01*
X179458847Y-131106198D01*
X179440251Y-131109898D01*
X179398078Y-131138078D01*
X179369898Y-131180251D01*
X179369897Y-131180252D01*
X179369898Y-131180252D01*
X179363413Y-131212855D01*
X179362500Y-131217443D01*
X179362500Y-131790000D01*
X179344194Y-131834194D01*
X179300000Y-131852500D01*
X176300000Y-131852500D01*
X176255806Y-131834194D01*
X176237500Y-131790000D01*
X176237500Y-131217443D01*
X176237500Y-131217442D01*
X176230102Y-131180252D01*
X176201922Y-131138078D01*
X176159748Y-131109898D01*
X176122558Y-131102500D01*
X174397442Y-131102500D01*
X174378847Y-131106198D01*
X174360251Y-131109898D01*
X174318078Y-131138078D01*
X174289898Y-131180251D01*
X174289897Y-131180252D01*
X174289898Y-131180252D01*
X174283413Y-131212855D01*
X174282500Y-131217443D01*
X174282500Y-131790000D01*
X174264194Y-131834194D01*
X174220000Y-131852500D01*
X173718827Y-131852500D01*
X173681596Y-131840200D01*
X173659018Y-131808143D01*
X173653514Y-131790000D01*
X173627462Y-131704117D01*
X173627461Y-131704116D01*
X173627461Y-131704114D01*
X173576216Y-131608243D01*
X173536694Y-131534302D01*
X173414541Y-131385459D01*
X173265698Y-131263306D01*
X173248288Y-131254000D01*
X173095885Y-131172538D01*
X172911622Y-131116642D01*
X172720000Y-131097770D01*
X172528377Y-131116642D01*
X172344114Y-131172538D01*
X172248245Y-131223781D01*
X172209612Y-131230484D01*
X172174589Y-131212855D01*
X170981227Y-130019493D01*
X170978974Y-130017119D01*
X170951708Y-129986836D01*
X170928378Y-129976449D01*
X170919761Y-129971770D01*
X170898349Y-129957865D01*
X170888301Y-129956274D01*
X170872661Y-129951641D01*
X170863359Y-129947500D01*
X170863357Y-129947500D01*
X170837823Y-129947500D01*
X170828046Y-129946731D01*
X170802828Y-129942737D01*
X170792999Y-129945370D01*
X170776825Y-129947500D01*
X164472585Y-129947500D01*
X164469313Y-129947414D01*
X164428614Y-129945280D01*
X164404767Y-129954433D01*
X164395370Y-129957217D01*
X164370398Y-129962526D01*
X164362164Y-129968508D01*
X164347831Y-129976290D01*
X164338328Y-129979938D01*
X164320269Y-129997996D01*
X164312815Y-130004362D01*
X164292156Y-130019372D01*
X164287069Y-130028184D01*
X164277138Y-130041126D01*
X163754072Y-130564194D01*
X163733796Y-130577742D01*
X163709878Y-130582500D01*
X162244681Y-130582500D01*
X162200487Y-130564194D01*
X162182181Y-130520000D01*
X162200487Y-130475806D01*
X162258784Y-130417508D01*
X162280188Y-130375501D01*
X162317387Y-130302494D01*
X162337580Y-130175000D01*
X162317387Y-130047506D01*
X162313950Y-130040761D01*
X162258784Y-129932491D01*
X162167508Y-129841215D01*
X162066995Y-129790001D01*
X171389363Y-129790001D01*
X171446568Y-130003489D01*
X171546400Y-130217579D01*
X171681889Y-130411078D01*
X171848921Y-130578110D01*
X172042420Y-130713599D01*
X172256510Y-130813431D01*
X172469998Y-130870636D01*
X172470000Y-130870636D01*
X172470000Y-129790000D01*
X172970000Y-129790000D01*
X172970000Y-130870636D01*
X172970001Y-130870636D01*
X173183489Y-130813431D01*
X173397579Y-130713599D01*
X173591078Y-130578110D01*
X173758110Y-130411078D01*
X173893599Y-130217579D01*
X173933356Y-130132321D01*
X173966925Y-130100651D01*
X174013075Y-130100651D01*
X174046644Y-130132321D01*
X174086400Y-130217579D01*
X174221889Y-130411078D01*
X174388921Y-130578110D01*
X174582420Y-130713599D01*
X174796510Y-130813431D01*
X175009998Y-130870636D01*
X175010000Y-130870636D01*
X175010000Y-129790000D01*
X175510000Y-129790000D01*
X175510000Y-130870636D01*
X175510001Y-130870636D01*
X175723489Y-130813431D01*
X175937579Y-130713599D01*
X176131078Y-130578110D01*
X176294082Y-130415106D01*
X176332150Y-130397101D01*
X176372999Y-130407333D01*
X176398085Y-130441157D01*
X176396019Y-130483217D01*
X176361607Y-130566294D01*
X176329501Y-130727709D01*
X176329501Y-130892291D01*
X176361608Y-131053707D01*
X176424588Y-131205755D01*
X176502829Y-131322851D01*
X176516025Y-131342600D01*
X176632400Y-131458975D01*
X176658748Y-131476580D01*
X176769244Y-131550411D01*
X176882162Y-131597183D01*
X176921294Y-131613392D01*
X177042629Y-131637526D01*
X177082709Y-131645499D01*
X177082710Y-131645499D01*
X177142410Y-131645499D01*
X177165000Y-131645499D01*
X177204882Y-131645499D01*
X178395118Y-131645499D01*
X178457590Y-131645499D01*
X178517290Y-131645499D01*
X178517291Y-131645499D01*
X178549397Y-131639112D01*
X178678706Y-131613392D01*
X178796310Y-131564678D01*
X178830755Y-131550411D01*
X178830755Y-131550410D01*
X178830757Y-131550410D01*
X178967600Y-131458975D01*
X179083975Y-131342600D01*
X179175410Y-131205757D01*
X179176763Y-131202492D01*
X179190535Y-131169242D01*
X179238392Y-131053706D01*
X179270499Y-130892290D01*
X179270499Y-130810000D01*
X179270499Y-130770118D01*
X179270499Y-130727710D01*
X179238392Y-130566294D01*
X179217738Y-130516431D01*
X179203981Y-130483218D01*
X179201914Y-130441157D01*
X179227000Y-130407333D01*
X179267849Y-130397101D01*
X179305917Y-130415106D01*
X179468921Y-130578110D01*
X179662420Y-130713599D01*
X179876510Y-130813431D01*
X180089998Y-130870636D01*
X180090000Y-130870636D01*
X180090000Y-129790000D01*
X180590000Y-129790000D01*
X180590000Y-130870636D01*
X180590001Y-130870636D01*
X180803489Y-130813431D01*
X181017579Y-130713599D01*
X181211078Y-130578110D01*
X181378110Y-130411078D01*
X181513599Y-130217579D01*
X181553356Y-130132321D01*
X181586925Y-130100651D01*
X181633075Y-130100651D01*
X181666644Y-130132321D01*
X181706400Y-130217579D01*
X181841889Y-130411078D01*
X182008921Y-130578110D01*
X182202420Y-130713599D01*
X182416510Y-130813431D01*
X182629998Y-130870636D01*
X182630000Y-130870636D01*
X182630000Y-129790000D01*
X183130000Y-129790000D01*
X183130000Y-130870636D01*
X183130001Y-130870636D01*
X183343489Y-130813431D01*
X183557579Y-130713599D01*
X183751078Y-130578110D01*
X183918110Y-130411078D01*
X184053599Y-130217579D01*
X184153431Y-130003489D01*
X184210636Y-129790001D01*
X184210636Y-129790000D01*
X183130000Y-129790000D01*
X182630000Y-129790000D01*
X180590000Y-129790000D01*
X180090000Y-129790000D01*
X179009364Y-129790000D01*
X179009363Y-129790001D01*
X179066568Y-130003489D01*
X179140887Y-130162866D01*
X179144613Y-130205456D01*
X179120092Y-130240477D01*
X179078796Y-130251542D01*
X179040049Y-130233474D01*
X178967600Y-130161025D01*
X178830755Y-130069588D01*
X178678707Y-130006608D01*
X178517291Y-129974501D01*
X178517290Y-129974501D01*
X178457590Y-129974501D01*
X177204882Y-129974501D01*
X177165000Y-129974501D01*
X177082710Y-129974501D01*
X177082709Y-129974501D01*
X176921292Y-130006608D01*
X176769244Y-130069588D01*
X176632399Y-130161025D01*
X176559950Y-130233474D01*
X176521203Y-130251542D01*
X176479907Y-130240477D01*
X176455386Y-130205456D01*
X176459112Y-130162866D01*
X176533431Y-130003489D01*
X176590636Y-129790001D01*
X176590636Y-129790000D01*
X175510000Y-129790000D01*
X175010000Y-129790000D01*
X172970000Y-129790000D01*
X172470000Y-129790000D01*
X171389364Y-129790000D01*
X171389363Y-129790001D01*
X162066995Y-129790001D01*
X162052495Y-129782613D01*
X161925000Y-129762420D01*
X161797504Y-129782613D01*
X161682491Y-129841215D01*
X161591215Y-129932491D01*
X161532613Y-130047504D01*
X161513361Y-130169057D01*
X161512420Y-130175000D01*
X161518789Y-130215213D01*
X161532613Y-130302495D01*
X161591215Y-130417508D01*
X161679194Y-130505487D01*
X161697500Y-130549681D01*
X161697500Y-130794800D01*
X161697158Y-130801332D01*
X161693692Y-130834310D01*
X161694441Y-130836615D01*
X161697500Y-130855929D01*
X161697500Y-132594878D01*
X161679194Y-132639072D01*
X161214072Y-133104194D01*
X161169878Y-133122500D01*
X157600122Y-133122500D01*
X157555928Y-133104194D01*
X157090806Y-132639072D01*
X157072500Y-132594878D01*
X157072500Y-131184681D01*
X157090806Y-131140487D01*
X157178784Y-131052508D01*
X157201102Y-131008706D01*
X157237387Y-130937494D01*
X157257580Y-130810000D01*
X157237387Y-130682506D01*
X157230698Y-130669379D01*
X157178784Y-130567491D01*
X157087508Y-130476215D01*
X156972495Y-130417613D01*
X156907588Y-130407333D01*
X156845000Y-130397420D01*
X156844999Y-130397420D01*
X156798026Y-130404859D01*
X156768936Y-130402569D01*
X156744056Y-130387322D01*
X156455806Y-130099072D01*
X156437500Y-130054878D01*
X156437500Y-128016000D01*
X157829420Y-128016000D01*
X157849613Y-128143495D01*
X157908215Y-128258508D01*
X157999491Y-128349784D01*
X158093127Y-128397494D01*
X158114506Y-128408387D01*
X158242000Y-128428580D01*
X158369494Y-128408387D01*
X158484508Y-128349784D01*
X158575784Y-128258508D01*
X158634387Y-128143494D01*
X158654580Y-128016000D01*
X158640081Y-127924467D01*
X158642371Y-127895376D01*
X158657616Y-127870497D01*
X160588808Y-125939306D01*
X160633003Y-125921000D01*
X165691929Y-125921000D01*
X165712570Y-125924506D01*
X165713065Y-125924680D01*
X165739333Y-125921720D01*
X165742239Y-125921393D01*
X165749236Y-125921000D01*
X165756523Y-125921000D01*
X165763621Y-125919379D01*
X165770534Y-125918203D01*
X165799706Y-125914918D01*
X165800141Y-125914644D01*
X165819496Y-125906627D01*
X165820003Y-125906511D01*
X165822882Y-125904215D01*
X165842955Y-125888205D01*
X165848662Y-125884155D01*
X165854840Y-125880275D01*
X165860006Y-125875107D01*
X165865205Y-125870462D01*
X165888170Y-125852149D01*
X165888397Y-125851676D01*
X165900511Y-125834602D01*
X170875808Y-120859306D01*
X170920003Y-120841000D01*
X172488258Y-120841000D01*
X172529081Y-120856174D01*
X172550082Y-120894329D01*
X172541061Y-120936937D01*
X172506401Y-120963309D01*
X172344114Y-121012538D01*
X172174303Y-121103305D01*
X172025459Y-121225459D01*
X171903305Y-121374303D01*
X171812538Y-121544114D01*
X171789888Y-121618784D01*
X171769908Y-121684644D01*
X171747332Y-121716700D01*
X171710101Y-121729000D01*
X170858071Y-121729000D01*
X170837429Y-121725493D01*
X170836935Y-121725320D01*
X170836934Y-121725320D01*
X170807761Y-121728607D01*
X170800764Y-121729000D01*
X170793479Y-121729000D01*
X170786375Y-121730621D01*
X170779470Y-121731794D01*
X170750294Y-121735081D01*
X170749847Y-121735363D01*
X170730511Y-121743371D01*
X170729996Y-121743488D01*
X170707039Y-121761796D01*
X170701326Y-121765850D01*
X170695160Y-121769724D01*
X170690002Y-121774882D01*
X170684781Y-121779546D01*
X170661829Y-121797850D01*
X170661601Y-121798325D01*
X170649487Y-121815396D01*
X166309191Y-126155694D01*
X166288915Y-126169242D01*
X166264997Y-126174000D01*
X160966912Y-126174000D01*
X160946270Y-126170493D01*
X160945776Y-126170320D01*
X160945775Y-126170320D01*
X160916602Y-126173607D01*
X160909605Y-126174000D01*
X160902320Y-126174000D01*
X160895216Y-126175621D01*
X160888311Y-126176794D01*
X160859135Y-126180081D01*
X160858688Y-126180363D01*
X160839352Y-126188371D01*
X160838837Y-126188488D01*
X160815880Y-126206796D01*
X160810167Y-126210850D01*
X160804001Y-126214724D01*
X160798843Y-126219882D01*
X160793622Y-126224546D01*
X160770670Y-126242850D01*
X160770442Y-126243325D01*
X160758328Y-126260396D01*
X159403503Y-127615221D01*
X159378623Y-127630468D01*
X159349532Y-127632758D01*
X159258000Y-127618261D01*
X159130504Y-127638454D01*
X159015491Y-127697056D01*
X158924215Y-127788332D01*
X158865613Y-127903345D01*
X158845420Y-128030840D01*
X158865613Y-128158336D01*
X158924215Y-128273349D01*
X159015491Y-128364625D01*
X159098321Y-128406829D01*
X159130506Y-128423228D01*
X159258000Y-128443421D01*
X159385494Y-128423228D01*
X159500508Y-128364625D01*
X159591784Y-128273349D01*
X159650387Y-128158335D01*
X159670580Y-128030841D01*
X159656081Y-127939308D01*
X159658371Y-127910217D01*
X159673616Y-127885338D01*
X160984649Y-126574306D01*
X161028844Y-126556000D01*
X166326929Y-126556000D01*
X166347570Y-126559506D01*
X166348065Y-126559680D01*
X166374333Y-126556720D01*
X166377239Y-126556393D01*
X166384236Y-126556000D01*
X166391523Y-126556000D01*
X166398621Y-126554379D01*
X166405534Y-126553203D01*
X166434706Y-126549918D01*
X166435141Y-126549644D01*
X166454496Y-126541627D01*
X166455003Y-126541511D01*
X166477951Y-126523209D01*
X166483662Y-126519155D01*
X166489840Y-126515275D01*
X166495006Y-126510107D01*
X166500205Y-126505462D01*
X166523170Y-126487149D01*
X166523397Y-126486676D01*
X166535511Y-126469602D01*
X170875808Y-122129306D01*
X170920003Y-122111000D01*
X171710101Y-122111000D01*
X171747332Y-122123300D01*
X171769908Y-122155355D01*
X171776037Y-122175556D01*
X171812538Y-122295885D01*
X171895139Y-122450418D01*
X171903306Y-122465698D01*
X172025459Y-122614541D01*
X172174302Y-122736694D01*
X172233330Y-122768245D01*
X172344114Y-122827461D01*
X172344116Y-122827461D01*
X172344117Y-122827462D01*
X172355770Y-122830997D01*
X172506401Y-122876691D01*
X172541061Y-122903063D01*
X172550082Y-122945671D01*
X172529081Y-122983826D01*
X172488258Y-122999000D01*
X170858071Y-122999000D01*
X170837429Y-122995493D01*
X170836934Y-122995319D01*
X170807758Y-122998607D01*
X170800761Y-122999000D01*
X170793478Y-122999000D01*
X170786382Y-123000619D01*
X170779478Y-123001792D01*
X170750293Y-123005080D01*
X170749847Y-123005361D01*
X170730508Y-123013371D01*
X170729997Y-123013487D01*
X170707044Y-123031792D01*
X170701335Y-123035843D01*
X170695162Y-123039722D01*
X170690002Y-123044882D01*
X170684781Y-123049546D01*
X170661829Y-123067850D01*
X170661601Y-123068325D01*
X170649487Y-123085396D01*
X166944191Y-126790694D01*
X166923915Y-126804242D01*
X166899997Y-126809000D01*
X161587071Y-126809000D01*
X161566429Y-126805493D01*
X161565935Y-126805320D01*
X161565934Y-126805320D01*
X161536761Y-126808607D01*
X161529764Y-126809000D01*
X161522479Y-126809000D01*
X161515375Y-126810621D01*
X161508470Y-126811794D01*
X161479294Y-126815081D01*
X161478847Y-126815363D01*
X161459511Y-126823371D01*
X161458996Y-126823488D01*
X161436039Y-126841796D01*
X161430326Y-126845850D01*
X161424160Y-126849724D01*
X161419002Y-126854882D01*
X161413781Y-126859546D01*
X161390829Y-126877850D01*
X161390601Y-126878325D01*
X161378487Y-126895396D01*
X158391396Y-129882487D01*
X158374325Y-129894601D01*
X158373850Y-129894829D01*
X158355546Y-129917781D01*
X158350882Y-129923002D01*
X158345724Y-129928160D01*
X158341850Y-129934326D01*
X158337796Y-129940039D01*
X158319488Y-129962996D01*
X158319371Y-129963511D01*
X158311363Y-129982847D01*
X158311081Y-129983294D01*
X158307794Y-130012470D01*
X158306621Y-130019375D01*
X158305000Y-130026479D01*
X158305000Y-130033764D01*
X158304607Y-130040761D01*
X158301320Y-130069934D01*
X158301493Y-130070429D01*
X158305000Y-130091071D01*
X158305000Y-130157671D01*
X158295790Y-130190327D01*
X158270874Y-130213359D01*
X158253490Y-130222216D01*
X158162215Y-130313491D01*
X158103613Y-130428504D01*
X158083420Y-130556000D01*
X158103613Y-130683495D01*
X158162215Y-130798508D01*
X158253491Y-130889784D01*
X158342951Y-130935366D01*
X158368506Y-130948387D01*
X158496000Y-130968580D01*
X158623494Y-130948387D01*
X158738508Y-130889784D01*
X158829784Y-130798508D01*
X158888387Y-130683494D01*
X158908580Y-130556000D01*
X158888387Y-130428506D01*
X158867403Y-130387322D01*
X158829784Y-130313491D01*
X158738509Y-130222216D01*
X158721126Y-130213359D01*
X158696210Y-130190327D01*
X158687000Y-130157671D01*
X158687000Y-130153003D01*
X158705306Y-130108809D01*
X161604809Y-127209306D01*
X161649003Y-127191000D01*
X166961929Y-127191000D01*
X166982570Y-127194506D01*
X166983065Y-127194680D01*
X167010206Y-127191622D01*
X167012239Y-127191393D01*
X167019236Y-127191000D01*
X167026523Y-127191000D01*
X167033621Y-127189379D01*
X167040534Y-127188203D01*
X167069706Y-127184918D01*
X167070141Y-127184644D01*
X167089496Y-127176627D01*
X167090003Y-127176511D01*
X167112951Y-127158209D01*
X167118662Y-127154155D01*
X167124840Y-127150275D01*
X167130006Y-127145107D01*
X167135205Y-127140462D01*
X167158170Y-127122149D01*
X167158397Y-127121676D01*
X167170511Y-127104602D01*
X170875808Y-123399306D01*
X170920003Y-123381000D01*
X172488258Y-123381000D01*
X172529081Y-123396174D01*
X172550082Y-123434329D01*
X172541061Y-123476937D01*
X172506401Y-123503309D01*
X172344114Y-123552538D01*
X172174303Y-123643305D01*
X172025459Y-123765459D01*
X171903305Y-123914303D01*
X171812538Y-124084114D01*
X171789888Y-124158784D01*
X171769908Y-124224644D01*
X171747332Y-124256700D01*
X171710101Y-124269000D01*
X170858071Y-124269000D01*
X170837429Y-124265493D01*
X170836935Y-124265320D01*
X170836934Y-124265320D01*
X170807761Y-124268607D01*
X170800764Y-124269000D01*
X170793479Y-124269000D01*
X170786375Y-124270621D01*
X170779470Y-124271794D01*
X170750294Y-124275081D01*
X170749847Y-124275363D01*
X170730511Y-124283371D01*
X170729996Y-124283488D01*
X170707039Y-124301796D01*
X170701326Y-124305850D01*
X170695160Y-124309724D01*
X170690002Y-124314882D01*
X170684781Y-124319546D01*
X170661829Y-124337850D01*
X170661601Y-124338325D01*
X170649487Y-124355396D01*
X167579191Y-127425694D01*
X167558915Y-127439242D01*
X167534997Y-127444000D01*
X161714071Y-127444000D01*
X161693429Y-127440493D01*
X161692935Y-127440320D01*
X161692934Y-127440320D01*
X161663761Y-127443607D01*
X161656764Y-127444000D01*
X161649479Y-127444000D01*
X161642375Y-127445621D01*
X161635470Y-127446794D01*
X161606294Y-127450081D01*
X161605847Y-127450363D01*
X161586511Y-127458371D01*
X161585996Y-127458488D01*
X161563039Y-127476796D01*
X161557326Y-127480850D01*
X161551160Y-127484724D01*
X161546002Y-127489882D01*
X161540781Y-127494546D01*
X161517829Y-127512850D01*
X161517601Y-127513325D01*
X161505487Y-127530396D01*
X159280396Y-129755487D01*
X159263325Y-129767601D01*
X159262850Y-129767829D01*
X159244546Y-129790781D01*
X159239882Y-129796002D01*
X159234724Y-129801160D01*
X159230850Y-129807326D01*
X159226796Y-129813039D01*
X159208488Y-129835996D01*
X159208371Y-129836511D01*
X159200363Y-129855847D01*
X159200081Y-129856294D01*
X159196794Y-129885470D01*
X159195621Y-129892375D01*
X159194000Y-129899479D01*
X159194000Y-129906764D01*
X159193607Y-129913761D01*
X159190320Y-129942934D01*
X159190493Y-129943429D01*
X159194000Y-129964071D01*
X159194000Y-130831998D01*
X159189242Y-130855916D01*
X159175694Y-130876192D01*
X158895504Y-131156380D01*
X158870624Y-131171627D01*
X158841533Y-131173917D01*
X158750000Y-131159420D01*
X158622504Y-131179613D01*
X158507491Y-131238215D01*
X158416215Y-131329491D01*
X158357613Y-131444504D01*
X158337420Y-131572000D01*
X158357613Y-131699495D01*
X158416215Y-131814508D01*
X158507491Y-131905784D01*
X158622504Y-131964386D01*
X158622506Y-131964387D01*
X158750000Y-131984580D01*
X158877494Y-131964387D01*
X158992508Y-131905784D01*
X159083784Y-131814508D01*
X159142387Y-131699494D01*
X159162580Y-131572000D01*
X159148081Y-131480466D01*
X159150371Y-131451375D01*
X159165616Y-131426496D01*
X159489600Y-131102512D01*
X159506674Y-131090398D01*
X159507149Y-131090170D01*
X159525466Y-131067200D01*
X159530111Y-131062001D01*
X159535275Y-131056839D01*
X159539154Y-131050664D01*
X159543197Y-131044966D01*
X159561511Y-131022003D01*
X159561626Y-131021495D01*
X159569638Y-131002152D01*
X159569919Y-131001706D01*
X159573207Y-130972518D01*
X159574378Y-130965627D01*
X159576000Y-130958521D01*
X159576000Y-130951239D01*
X159576393Y-130944243D01*
X159577393Y-130935366D01*
X159584427Y-130922204D01*
X159580507Y-130917428D01*
X159579507Y-130914570D01*
X159576000Y-130893929D01*
X159576000Y-130215213D01*
X159584684Y-130191467D01*
X159576000Y-130169640D01*
X159576000Y-130026003D01*
X159594306Y-129981809D01*
X161731809Y-127844306D01*
X161776003Y-127826000D01*
X167596929Y-127826000D01*
X167617570Y-127829506D01*
X167618065Y-127829680D01*
X167644469Y-127826705D01*
X167647239Y-127826393D01*
X167654236Y-127826000D01*
X167661523Y-127826000D01*
X167668621Y-127824379D01*
X167675534Y-127823203D01*
X167704706Y-127819918D01*
X167705141Y-127819644D01*
X167724496Y-127811627D01*
X167725003Y-127811511D01*
X167747951Y-127793209D01*
X167753662Y-127789155D01*
X167759840Y-127785275D01*
X167765006Y-127780107D01*
X167770205Y-127775462D01*
X167793170Y-127757149D01*
X167793397Y-127756676D01*
X167805511Y-127739602D01*
X170875808Y-124669306D01*
X170920003Y-124651000D01*
X171710101Y-124651000D01*
X171747332Y-124663300D01*
X171769908Y-124695355D01*
X171779051Y-124725491D01*
X171812538Y-124835885D01*
X171879482Y-124961126D01*
X171903306Y-125005698D01*
X172025459Y-125154541D01*
X172174302Y-125276694D01*
X172237186Y-125310306D01*
X172344114Y-125367461D01*
X172344116Y-125367461D01*
X172344117Y-125367462D01*
X172387361Y-125380580D01*
X172506401Y-125416691D01*
X172541061Y-125443063D01*
X172550082Y-125485671D01*
X172529081Y-125523826D01*
X172488258Y-125539000D01*
X170858071Y-125539000D01*
X170837429Y-125535493D01*
X170836935Y-125535320D01*
X170836934Y-125535320D01*
X170807761Y-125538607D01*
X170800764Y-125539000D01*
X170793479Y-125539000D01*
X170786375Y-125540621D01*
X170779470Y-125541794D01*
X170750294Y-125545081D01*
X170749847Y-125545363D01*
X170730511Y-125553371D01*
X170729996Y-125553488D01*
X170707039Y-125571796D01*
X170701326Y-125575850D01*
X170695160Y-125579724D01*
X170690002Y-125584882D01*
X170684781Y-125589546D01*
X170661829Y-125607850D01*
X170661601Y-125608325D01*
X170649487Y-125625396D01*
X168214191Y-128060694D01*
X168193915Y-128074242D01*
X168169997Y-128079000D01*
X161841071Y-128079000D01*
X161820429Y-128075493D01*
X161819935Y-128075320D01*
X161819934Y-128075320D01*
X161790761Y-128078607D01*
X161783764Y-128079000D01*
X161776479Y-128079000D01*
X161769375Y-128080621D01*
X161762470Y-128081794D01*
X161733294Y-128085081D01*
X161732847Y-128085363D01*
X161713511Y-128093371D01*
X161712996Y-128093488D01*
X161690039Y-128111796D01*
X161684326Y-128115850D01*
X161678160Y-128119724D01*
X161673002Y-128124882D01*
X161667781Y-128129546D01*
X161644829Y-128147850D01*
X161644601Y-128148325D01*
X161632487Y-128165396D01*
X159788396Y-130009487D01*
X159771325Y-130021601D01*
X159770850Y-130021829D01*
X159752546Y-130044781D01*
X159747882Y-130050002D01*
X159742724Y-130055160D01*
X159738850Y-130061326D01*
X159734796Y-130067039D01*
X159716488Y-130089996D01*
X159716371Y-130090511D01*
X159708363Y-130109847D01*
X159708081Y-130110294D01*
X159704794Y-130139470D01*
X159703621Y-130146375D01*
X159702000Y-130153479D01*
X159702000Y-130160764D01*
X159701607Y-130167761D01*
X159700607Y-130176637D01*
X159693573Y-130189796D01*
X159697493Y-130194572D01*
X159698493Y-130197430D01*
X159702000Y-130218071D01*
X159702000Y-130896787D01*
X159693314Y-130920533D01*
X159702000Y-130942362D01*
X159702000Y-131173671D01*
X159692790Y-131206327D01*
X159667874Y-131229359D01*
X159650490Y-131238216D01*
X159559215Y-131329491D01*
X159500613Y-131444504D01*
X159480420Y-131572000D01*
X159500613Y-131699495D01*
X159559215Y-131814508D01*
X159650491Y-131905784D01*
X159765504Y-131964386D01*
X159765506Y-131964387D01*
X159893000Y-131984580D01*
X160020494Y-131964387D01*
X160135508Y-131905784D01*
X160226784Y-131814508D01*
X160285387Y-131699494D01*
X160305580Y-131572000D01*
X160285387Y-131444506D01*
X160250960Y-131376940D01*
X160226784Y-131329491D01*
X160135509Y-131238216D01*
X160118126Y-131229359D01*
X160093210Y-131206327D01*
X160084000Y-131173671D01*
X160084000Y-130280003D01*
X160102306Y-130235809D01*
X161858809Y-128479306D01*
X161903003Y-128461000D01*
X168231929Y-128461000D01*
X168252570Y-128464506D01*
X168253065Y-128464680D01*
X168279333Y-128461720D01*
X168282239Y-128461393D01*
X168289236Y-128461000D01*
X168296523Y-128461000D01*
X168303621Y-128459379D01*
X168310534Y-128458203D01*
X168339706Y-128454918D01*
X168340141Y-128454644D01*
X168359496Y-128446627D01*
X168360003Y-128446511D01*
X168382486Y-128428580D01*
X168382955Y-128428205D01*
X168388662Y-128424155D01*
X168394840Y-128420275D01*
X168400006Y-128415107D01*
X168405205Y-128410462D01*
X168428170Y-128392149D01*
X168428397Y-128391676D01*
X168440511Y-128374602D01*
X170875808Y-125939306D01*
X170920003Y-125921000D01*
X172488258Y-125921000D01*
X172529081Y-125936174D01*
X172550082Y-125974329D01*
X172541061Y-126016937D01*
X172506401Y-126043309D01*
X172344114Y-126092538D01*
X172174303Y-126183305D01*
X172025459Y-126305459D01*
X171903305Y-126454303D01*
X171812538Y-126624114D01*
X171804510Y-126650580D01*
X171769908Y-126764644D01*
X171747332Y-126796700D01*
X171710101Y-126809000D01*
X170858071Y-126809000D01*
X170837429Y-126805493D01*
X170836935Y-126805320D01*
X170836934Y-126805320D01*
X170807761Y-126808607D01*
X170800764Y-126809000D01*
X170793479Y-126809000D01*
X170786375Y-126810621D01*
X170779470Y-126811794D01*
X170750294Y-126815081D01*
X170749847Y-126815363D01*
X170730511Y-126823371D01*
X170729996Y-126823488D01*
X170707039Y-126841796D01*
X170701326Y-126845850D01*
X170695160Y-126849724D01*
X170690002Y-126854882D01*
X170684781Y-126859546D01*
X170661829Y-126877850D01*
X170661601Y-126878325D01*
X170649487Y-126895396D01*
X168849191Y-128695694D01*
X168828915Y-128709242D01*
X168804997Y-128714000D01*
X161968071Y-128714000D01*
X161947429Y-128710493D01*
X161946935Y-128710320D01*
X161946934Y-128710320D01*
X161917761Y-128713607D01*
X161910764Y-128714000D01*
X161903479Y-128714000D01*
X161896375Y-128715621D01*
X161889470Y-128716794D01*
X161860294Y-128720081D01*
X161859847Y-128720363D01*
X161840511Y-128728371D01*
X161839996Y-128728488D01*
X161817039Y-128746796D01*
X161811326Y-128750850D01*
X161805160Y-128754724D01*
X161800002Y-128759882D01*
X161794781Y-128764546D01*
X161771829Y-128782850D01*
X161771601Y-128783325D01*
X161759487Y-128800396D01*
X160550396Y-130009487D01*
X160533325Y-130021601D01*
X160532850Y-130021829D01*
X160514546Y-130044781D01*
X160509882Y-130050002D01*
X160504724Y-130055160D01*
X160500850Y-130061326D01*
X160496796Y-130067039D01*
X160478488Y-130089996D01*
X160478371Y-130090511D01*
X160470363Y-130109847D01*
X160470081Y-130110294D01*
X160466794Y-130139470D01*
X160465621Y-130146375D01*
X160464000Y-130153479D01*
X160464000Y-130160764D01*
X160463607Y-130167761D01*
X160460320Y-130196934D01*
X160460493Y-130197429D01*
X160464000Y-130218071D01*
X160464000Y-130411671D01*
X160454790Y-130444327D01*
X160429874Y-130467359D01*
X160412490Y-130476216D01*
X160321215Y-130567491D01*
X160262613Y-130682504D01*
X160244827Y-130794800D01*
X160242420Y-130810000D01*
X160246635Y-130836615D01*
X160262613Y-130937495D01*
X160321215Y-131052508D01*
X160412491Y-131143784D01*
X160484062Y-131180251D01*
X160527506Y-131202387D01*
X160655000Y-131222580D01*
X160782494Y-131202387D01*
X160897508Y-131143784D01*
X160988784Y-131052508D01*
X161047387Y-130937494D01*
X161067580Y-130810000D01*
X161047387Y-130682506D01*
X161040698Y-130669379D01*
X160988784Y-130567491D01*
X160897509Y-130476216D01*
X160880126Y-130467359D01*
X160855210Y-130444327D01*
X160846000Y-130411671D01*
X160846000Y-130280003D01*
X160864306Y-130235809D01*
X161810117Y-129289998D01*
X171389363Y-129289998D01*
X171389364Y-129290000D01*
X172470000Y-129290000D01*
X172970000Y-129290000D01*
X175010000Y-129290000D01*
X175510000Y-129290000D01*
X176590636Y-129290000D01*
X176590636Y-129289998D01*
X176533431Y-129076510D01*
X176459111Y-128917132D01*
X176455385Y-128874542D01*
X176479906Y-128839521D01*
X176521202Y-128828456D01*
X176559949Y-128846524D01*
X176632400Y-128918975D01*
X176700821Y-128964692D01*
X176769244Y-129010411D01*
X176877549Y-129055272D01*
X176921294Y-129073392D01*
X177036930Y-129096393D01*
X177082709Y-129105499D01*
X177082710Y-129105499D01*
X177142410Y-129105499D01*
X177165000Y-129105499D01*
X177204882Y-129105499D01*
X178395118Y-129105499D01*
X178457590Y-129105499D01*
X178517290Y-129105499D01*
X178517291Y-129105499D01*
X178549398Y-129099112D01*
X178678706Y-129073392D01*
X178830757Y-129010410D01*
X178967600Y-128918975D01*
X179040051Y-128846523D01*
X179078796Y-128828456D01*
X179120092Y-128839521D01*
X179144614Y-128874542D01*
X179140888Y-128917132D01*
X179066568Y-129076510D01*
X179009363Y-129289998D01*
X179009364Y-129290000D01*
X180090000Y-129290000D01*
X180590000Y-129290000D01*
X182630000Y-129290000D01*
X183130000Y-129290000D01*
X184210636Y-129290000D01*
X184210636Y-129289998D01*
X184153431Y-129076510D01*
X184053599Y-128862421D01*
X183918110Y-128668921D01*
X183751078Y-128501889D01*
X183557579Y-128366400D01*
X183343489Y-128266568D01*
X183130001Y-128209363D01*
X183130000Y-128209364D01*
X183130000Y-129290000D01*
X182630000Y-129290000D01*
X182630000Y-128209364D01*
X182629998Y-128209363D01*
X182416510Y-128266568D01*
X182202421Y-128366400D01*
X182008921Y-128501889D01*
X181841889Y-128668921D01*
X181706400Y-128862421D01*
X181666644Y-128947678D01*
X181633075Y-128979348D01*
X181586925Y-128979348D01*
X181553356Y-128947678D01*
X181513599Y-128862421D01*
X181378110Y-128668921D01*
X181211078Y-128501889D01*
X181017579Y-128366400D01*
X180803489Y-128266568D01*
X180590001Y-128209363D01*
X180590000Y-128209364D01*
X180590000Y-129290000D01*
X180090000Y-129290000D01*
X180090000Y-128209364D01*
X180089998Y-128209363D01*
X179876510Y-128266568D01*
X179662421Y-128366400D01*
X179468921Y-128501889D01*
X179305917Y-128664893D01*
X179267849Y-128682898D01*
X179227000Y-128672666D01*
X179201914Y-128638841D01*
X179203981Y-128596781D01*
X179230986Y-128531585D01*
X179238392Y-128513706D01*
X179266615Y-128371815D01*
X179270499Y-128352291D01*
X179270499Y-128187709D01*
X179255161Y-128110599D01*
X179238392Y-128026294D01*
X179220140Y-127982229D01*
X179175411Y-127874244D01*
X179121265Y-127793209D01*
X179083975Y-127737400D01*
X178967600Y-127621025D01*
X178962949Y-127617917D01*
X178830755Y-127529588D01*
X178678707Y-127466608D01*
X178517291Y-127434501D01*
X178517290Y-127434501D01*
X178457590Y-127434501D01*
X177204882Y-127434501D01*
X177165000Y-127434501D01*
X177082710Y-127434501D01*
X177082709Y-127434501D01*
X176921292Y-127466608D01*
X176769244Y-127529588D01*
X176632399Y-127621025D01*
X176516025Y-127737399D01*
X176424588Y-127874244D01*
X176361608Y-128026292D01*
X176329501Y-128187709D01*
X176329501Y-128352291D01*
X176361607Y-128513705D01*
X176396019Y-128596782D01*
X176398085Y-128638842D01*
X176372999Y-128672666D01*
X176332150Y-128682898D01*
X176294082Y-128664893D01*
X176131078Y-128501889D01*
X175937579Y-128366400D01*
X175723489Y-128266568D01*
X175510001Y-128209363D01*
X175510000Y-128209364D01*
X175510000Y-129290000D01*
X175010000Y-129290000D01*
X175010000Y-128209364D01*
X175009998Y-128209363D01*
X174796510Y-128266568D01*
X174582421Y-128366400D01*
X174388921Y-128501889D01*
X174221889Y-128668921D01*
X174086400Y-128862421D01*
X174046644Y-128947678D01*
X174013075Y-128979348D01*
X173966925Y-128979348D01*
X173933356Y-128947678D01*
X173893599Y-128862421D01*
X173758110Y-128668921D01*
X173591078Y-128501889D01*
X173397579Y-128366400D01*
X173183489Y-128266568D01*
X172970001Y-128209363D01*
X172970000Y-128209364D01*
X172970000Y-129290000D01*
X172470000Y-129290000D01*
X172470000Y-128209364D01*
X172469998Y-128209363D01*
X172256510Y-128266568D01*
X172042421Y-128366400D01*
X171848921Y-128501889D01*
X171681889Y-128668921D01*
X171546400Y-128862421D01*
X171446568Y-129076510D01*
X171389363Y-129289998D01*
X161810117Y-129289998D01*
X161985809Y-129114306D01*
X162030003Y-129096000D01*
X168866929Y-129096000D01*
X168887570Y-129099506D01*
X168888065Y-129099680D01*
X168914333Y-129096720D01*
X168917239Y-129096393D01*
X168924236Y-129096000D01*
X168931523Y-129096000D01*
X168938621Y-129094379D01*
X168945534Y-129093203D01*
X168974706Y-129089918D01*
X168975141Y-129089644D01*
X168994496Y-129081627D01*
X168995003Y-129081511D01*
X169017951Y-129063209D01*
X169023662Y-129059155D01*
X169029840Y-129055275D01*
X169035006Y-129050107D01*
X169040205Y-129045462D01*
X169063170Y-129027149D01*
X169063397Y-129026676D01*
X169075511Y-129009602D01*
X170875808Y-127209306D01*
X170920003Y-127191000D01*
X171710101Y-127191000D01*
X171747332Y-127203300D01*
X171769908Y-127235355D01*
X171790868Y-127304447D01*
X171812538Y-127375885D01*
X171879108Y-127500427D01*
X171903306Y-127545698D01*
X172025459Y-127694541D01*
X172174302Y-127816694D01*
X172231006Y-127847003D01*
X172344114Y-127907461D01*
X172344116Y-127907461D01*
X172344117Y-127907462D01*
X172528376Y-127963357D01*
X172720000Y-127982230D01*
X172911624Y-127963357D01*
X173095883Y-127907462D01*
X173265698Y-127816694D01*
X173414541Y-127694541D01*
X173536694Y-127545698D01*
X173627462Y-127375883D01*
X173683357Y-127191624D01*
X173702230Y-127000000D01*
X173683357Y-126808376D01*
X173627462Y-126624117D01*
X173627461Y-126624116D01*
X173627461Y-126624114D01*
X173578968Y-126533391D01*
X173536694Y-126454302D01*
X173414541Y-126305459D01*
X173265698Y-126183306D01*
X173248288Y-126174000D01*
X173095885Y-126092538D01*
X172933599Y-126043309D01*
X172898939Y-126016937D01*
X172889918Y-125974329D01*
X172910919Y-125936174D01*
X172951742Y-125921000D01*
X173884997Y-125921000D01*
X173929191Y-125939306D01*
X174410836Y-126420951D01*
X174428466Y-126455974D01*
X174421762Y-126494607D01*
X174352538Y-126624114D01*
X174296642Y-126808377D01*
X174277770Y-126999999D01*
X174296642Y-127191622D01*
X174352538Y-127375885D01*
X174419108Y-127500427D01*
X174443306Y-127545698D01*
X174565459Y-127694541D01*
X174714302Y-127816694D01*
X174771006Y-127847003D01*
X174884114Y-127907461D01*
X174884116Y-127907461D01*
X174884117Y-127907462D01*
X175068376Y-127963357D01*
X175260000Y-127982230D01*
X175451624Y-127963357D01*
X175635883Y-127907462D01*
X175805698Y-127816694D01*
X175954541Y-127694541D01*
X176076694Y-127545698D01*
X176167462Y-127375883D01*
X176223357Y-127191624D01*
X176242230Y-127000000D01*
X176223357Y-126808376D01*
X176167462Y-126624117D01*
X176167461Y-126624116D01*
X176167461Y-126624114D01*
X176118968Y-126533391D01*
X176076694Y-126454302D01*
X175954541Y-126305459D01*
X175805698Y-126183306D01*
X175788288Y-126174000D01*
X175635885Y-126092538D01*
X175451622Y-126036642D01*
X175260000Y-126017770D01*
X175068377Y-126036642D01*
X174884114Y-126092538D01*
X174754607Y-126161762D01*
X174715974Y-126168466D01*
X174680951Y-126150836D01*
X174342406Y-125812291D01*
X176329501Y-125812291D01*
X176361608Y-125973707D01*
X176424588Y-126125755D01*
X176516025Y-126262600D01*
X176632399Y-126378974D01*
X176769244Y-126470411D01*
X176877556Y-126515275D01*
X176921294Y-126533392D01*
X177036930Y-126556393D01*
X177082709Y-126565499D01*
X177082710Y-126565499D01*
X177142410Y-126565499D01*
X177165000Y-126565499D01*
X177204882Y-126565499D01*
X178395118Y-126565499D01*
X178457590Y-126565499D01*
X178517290Y-126565499D01*
X178517291Y-126565499D01*
X178549397Y-126559112D01*
X178678706Y-126533392D01*
X178806376Y-126480509D01*
X178830755Y-126470411D01*
X178830755Y-126470410D01*
X178830757Y-126470410D01*
X178967600Y-126378975D01*
X179083975Y-126262600D01*
X179175410Y-126125757D01*
X179238392Y-125973706D01*
X179270499Y-125812290D01*
X179270499Y-125730000D01*
X179270499Y-125690118D01*
X179270499Y-125647710D01*
X179268123Y-125635767D01*
X179255398Y-125571791D01*
X179238392Y-125486294D01*
X179217738Y-125436431D01*
X179175411Y-125334244D01*
X179083974Y-125197399D01*
X178967600Y-125081025D01*
X178830755Y-124989588D01*
X178678707Y-124926608D01*
X178517291Y-124894501D01*
X178517290Y-124894501D01*
X178457590Y-124894501D01*
X177204882Y-124894501D01*
X177165000Y-124894501D01*
X177082710Y-124894501D01*
X177082709Y-124894501D01*
X176921292Y-124926608D01*
X176769244Y-124989588D01*
X176632399Y-125081025D01*
X176516025Y-125197399D01*
X176424588Y-125334244D01*
X176361608Y-125486292D01*
X176329501Y-125647709D01*
X176329501Y-125812291D01*
X174342406Y-125812291D01*
X174155513Y-125625398D01*
X174143398Y-125608325D01*
X174143170Y-125607851D01*
X174143168Y-125607849D01*
X174120219Y-125589548D01*
X174114991Y-125584876D01*
X174109840Y-125579725D01*
X174103670Y-125575848D01*
X174097957Y-125571794D01*
X174085366Y-125561753D01*
X174075001Y-125553487D01*
X174074489Y-125553371D01*
X174055147Y-125545359D01*
X174054705Y-125545081D01*
X174025530Y-125541794D01*
X174018624Y-125540621D01*
X174015394Y-125539884D01*
X174011521Y-125539000D01*
X174011520Y-125539000D01*
X174004236Y-125539000D01*
X173997239Y-125538607D01*
X173968065Y-125535320D01*
X173967571Y-125535493D01*
X173946929Y-125539000D01*
X172951742Y-125539000D01*
X172910919Y-125523826D01*
X172889918Y-125485671D01*
X172898939Y-125443063D01*
X172933599Y-125416691D01*
X173002446Y-125395806D01*
X173095883Y-125367462D01*
X173265698Y-125276694D01*
X173414541Y-125154541D01*
X173536694Y-125005698D01*
X173627462Y-124835883D01*
X173683357Y-124651624D01*
X173702230Y-124460000D01*
X173683357Y-124268376D01*
X173627462Y-124084117D01*
X173627461Y-124084116D01*
X173627461Y-124084114D01*
X173558237Y-123954606D01*
X173536694Y-123914302D01*
X173414541Y-123765459D01*
X173265698Y-123643306D01*
X173244116Y-123631770D01*
X173095885Y-123552538D01*
X172933599Y-123503309D01*
X172898939Y-123476937D01*
X172889918Y-123434329D01*
X172910919Y-123396174D01*
X172951742Y-123381000D01*
X173884997Y-123381000D01*
X173929191Y-123399306D01*
X174410836Y-123880951D01*
X174428466Y-123915974D01*
X174421762Y-123954607D01*
X174352538Y-124084114D01*
X174296642Y-124268377D01*
X174277770Y-124460000D01*
X174296642Y-124651622D01*
X174352538Y-124835885D01*
X174419482Y-124961126D01*
X174443306Y-125005698D01*
X174565459Y-125154541D01*
X174714302Y-125276694D01*
X174777186Y-125310306D01*
X174884114Y-125367461D01*
X174884116Y-125367461D01*
X174884117Y-125367462D01*
X175068376Y-125423357D01*
X175260000Y-125442230D01*
X175451624Y-125423357D01*
X175635883Y-125367462D01*
X175805698Y-125276694D01*
X175954541Y-125154541D01*
X176076694Y-125005698D01*
X176167462Y-124835883D01*
X176223357Y-124651624D01*
X176242230Y-124460000D01*
X176223357Y-124268376D01*
X176167462Y-124084117D01*
X176167461Y-124084116D01*
X176167461Y-124084114D01*
X176098237Y-123954606D01*
X176076694Y-123914302D01*
X175954541Y-123765459D01*
X175805698Y-123643306D01*
X175784116Y-123631770D01*
X175635885Y-123552538D01*
X175451622Y-123496642D01*
X175260000Y-123477770D01*
X175068377Y-123496642D01*
X174884114Y-123552538D01*
X174754607Y-123621762D01*
X174715974Y-123628466D01*
X174680951Y-123610836D01*
X174342406Y-123272291D01*
X176329501Y-123272291D01*
X176361608Y-123433707D01*
X176424588Y-123585755D01*
X176463308Y-123643703D01*
X176516025Y-123722600D01*
X176632400Y-123838975D01*
X176695220Y-123880950D01*
X176769244Y-123930411D01*
X176827659Y-123954607D01*
X176921294Y-123993392D01*
X177042629Y-124017526D01*
X177082709Y-124025499D01*
X177082710Y-124025499D01*
X177142410Y-124025499D01*
X177165000Y-124025499D01*
X177204882Y-124025499D01*
X178395118Y-124025499D01*
X178457590Y-124025499D01*
X178517290Y-124025499D01*
X178517291Y-124025499D01*
X178549397Y-124019112D01*
X178678706Y-123993392D01*
X178796310Y-123944678D01*
X178830755Y-123930411D01*
X178830755Y-123930410D01*
X178830757Y-123930410D01*
X178967600Y-123838975D01*
X179083975Y-123722600D01*
X179175410Y-123585757D01*
X179176763Y-123582492D01*
X179190736Y-123548758D01*
X179238392Y-123433706D01*
X179266062Y-123294599D01*
X179270499Y-123272291D01*
X179270499Y-123107709D01*
X179258494Y-123047358D01*
X179238392Y-122946294D01*
X179216287Y-122892929D01*
X179175411Y-122794244D01*
X179099075Y-122679999D01*
X179083975Y-122657400D01*
X178967600Y-122541025D01*
X178949967Y-122529243D01*
X178830755Y-122449588D01*
X178678707Y-122386608D01*
X178517291Y-122354501D01*
X178517290Y-122354501D01*
X178457590Y-122354501D01*
X177204882Y-122354501D01*
X177165000Y-122354501D01*
X177082710Y-122354501D01*
X177082709Y-122354501D01*
X176921292Y-122386608D01*
X176769244Y-122449588D01*
X176632399Y-122541025D01*
X176516025Y-122657399D01*
X176424588Y-122794244D01*
X176361608Y-122946292D01*
X176329501Y-123107709D01*
X176329501Y-123272291D01*
X174342406Y-123272291D01*
X174155513Y-123085398D01*
X174143398Y-123068325D01*
X174143170Y-123067851D01*
X174143168Y-123067849D01*
X174120219Y-123049548D01*
X174114991Y-123044876D01*
X174109840Y-123039725D01*
X174103670Y-123035848D01*
X174097957Y-123031794D01*
X174077881Y-123015784D01*
X174075001Y-123013487D01*
X174074489Y-123013371D01*
X174055147Y-123005359D01*
X174054705Y-123005081D01*
X174025530Y-123001794D01*
X174018624Y-123000621D01*
X174015394Y-122999884D01*
X174011521Y-122999000D01*
X174011520Y-122999000D01*
X174004236Y-122999000D01*
X173997239Y-122998607D01*
X173968065Y-122995320D01*
X173967571Y-122995493D01*
X173946929Y-122999000D01*
X172951742Y-122999000D01*
X172910919Y-122983826D01*
X172889918Y-122945671D01*
X172898939Y-122903063D01*
X172933599Y-122876691D01*
X173009682Y-122853611D01*
X173095883Y-122827462D01*
X173265698Y-122736694D01*
X173414541Y-122614541D01*
X173536694Y-122465698D01*
X173627462Y-122295883D01*
X173683357Y-122111624D01*
X173702230Y-121920000D01*
X173683357Y-121728376D01*
X173627462Y-121544117D01*
X173627461Y-121544116D01*
X173627461Y-121544114D01*
X173574190Y-121444452D01*
X173536694Y-121374302D01*
X173414541Y-121225459D01*
X173265698Y-121103306D01*
X173238258Y-121088639D01*
X173095885Y-121012538D01*
X172933599Y-120963309D01*
X172898939Y-120936937D01*
X172889918Y-120894329D01*
X172910919Y-120856174D01*
X172951742Y-120841000D01*
X173884997Y-120841000D01*
X173929191Y-120859306D01*
X174410836Y-121340951D01*
X174428466Y-121375974D01*
X174421762Y-121414607D01*
X174352538Y-121544114D01*
X174296642Y-121728377D01*
X174277770Y-121920000D01*
X174296642Y-122111622D01*
X174352538Y-122295885D01*
X174435139Y-122450418D01*
X174443306Y-122465698D01*
X174565459Y-122614541D01*
X174714302Y-122736694D01*
X174773330Y-122768245D01*
X174884114Y-122827461D01*
X174884116Y-122827461D01*
X174884117Y-122827462D01*
X175068376Y-122883357D01*
X175260000Y-122902230D01*
X175451624Y-122883357D01*
X175635883Y-122827462D01*
X175805698Y-122736694D01*
X175954541Y-122614541D01*
X176076694Y-122465698D01*
X176167462Y-122295883D01*
X176223357Y-122111624D01*
X176242230Y-121920000D01*
X176223357Y-121728376D01*
X176167462Y-121544117D01*
X176167461Y-121544116D01*
X176167461Y-121544114D01*
X176114190Y-121444452D01*
X176076694Y-121374302D01*
X175954541Y-121225459D01*
X175805698Y-121103306D01*
X175778258Y-121088639D01*
X175635885Y-121012538D01*
X175451622Y-120956642D01*
X175260000Y-120937770D01*
X175068377Y-120956642D01*
X174884114Y-121012538D01*
X174754607Y-121081762D01*
X174715974Y-121088466D01*
X174680951Y-121070836D01*
X174155513Y-120545398D01*
X174143398Y-120528325D01*
X174143170Y-120527851D01*
X174143168Y-120527849D01*
X174120219Y-120509548D01*
X174114991Y-120504876D01*
X174109840Y-120499725D01*
X174103670Y-120495848D01*
X174097957Y-120491794D01*
X174085366Y-120481753D01*
X174075001Y-120473487D01*
X174074489Y-120473371D01*
X174055147Y-120465359D01*
X174054705Y-120465081D01*
X174025530Y-120461794D01*
X174018624Y-120460621D01*
X174015394Y-120459884D01*
X174011521Y-120459000D01*
X174011520Y-120459000D01*
X174004236Y-120459000D01*
X173997239Y-120458607D01*
X173968065Y-120455320D01*
X173967571Y-120455493D01*
X173946929Y-120459000D01*
X170858071Y-120459000D01*
X170837429Y-120455493D01*
X170836935Y-120455320D01*
X170836934Y-120455320D01*
X170807761Y-120458607D01*
X170800764Y-120459000D01*
X170793479Y-120459000D01*
X170786375Y-120460621D01*
X170779470Y-120461794D01*
X170750294Y-120465081D01*
X170749847Y-120465363D01*
X170730511Y-120473371D01*
X170729996Y-120473488D01*
X170707039Y-120491796D01*
X170701326Y-120495850D01*
X170695160Y-120499724D01*
X170690002Y-120504882D01*
X170684781Y-120509546D01*
X170661829Y-120527850D01*
X170661601Y-120528325D01*
X170649487Y-120545396D01*
X165674191Y-125520694D01*
X165653915Y-125534242D01*
X165629997Y-125539000D01*
X160571071Y-125539000D01*
X160550429Y-125535493D01*
X160549935Y-125535320D01*
X160549934Y-125535320D01*
X160520761Y-125538607D01*
X160513764Y-125539000D01*
X160506479Y-125539000D01*
X160499375Y-125540621D01*
X160492470Y-125541794D01*
X160463294Y-125545081D01*
X160462847Y-125545363D01*
X160443511Y-125553371D01*
X160442996Y-125553488D01*
X160420039Y-125571796D01*
X160414326Y-125575850D01*
X160408160Y-125579724D01*
X160403002Y-125584882D01*
X160397781Y-125589546D01*
X160374829Y-125607850D01*
X160374601Y-125608325D01*
X160362487Y-125625396D01*
X158387503Y-127600380D01*
X158362623Y-127615627D01*
X158333532Y-127617917D01*
X158242000Y-127603420D01*
X158114504Y-127623613D01*
X157999491Y-127682215D01*
X157908215Y-127773491D01*
X157849613Y-127888504D01*
X157829420Y-128016000D01*
X156437500Y-128016000D01*
X156437500Y-125110200D01*
X156437842Y-125103668D01*
X156438753Y-125095000D01*
X156441308Y-125070689D01*
X156440558Y-125068382D01*
X156437500Y-125049071D01*
X156437500Y-123310121D01*
X156455806Y-123265927D01*
X156660742Y-123060991D01*
X156868131Y-122853601D01*
X156872985Y-122849232D01*
X156898748Y-122828371D01*
X156898748Y-122828370D01*
X156898750Y-122828369D01*
X156899852Y-122826205D01*
X156911343Y-122810388D01*
X157555926Y-122165806D01*
X157600121Y-122147500D01*
X158066643Y-122147500D01*
X158099800Y-122147500D01*
X158106332Y-122147842D01*
X158109888Y-122148215D01*
X158139311Y-122151308D01*
X158141617Y-122150558D01*
X158160929Y-122147500D01*
X161876643Y-122147500D01*
X161909800Y-122147500D01*
X161916332Y-122147842D01*
X161919888Y-122148215D01*
X161949311Y-122151308D01*
X161951617Y-122150558D01*
X161970929Y-122147500D01*
X164344879Y-122147500D01*
X164389073Y-122165806D01*
X165947322Y-123724055D01*
X165962569Y-123748935D01*
X165964859Y-123778025D01*
X165957420Y-123824998D01*
X165957420Y-123825000D01*
X165961775Y-123852496D01*
X165977613Y-123952495D01*
X166036215Y-124067508D01*
X166127491Y-124158784D01*
X166242504Y-124217386D01*
X166242506Y-124217387D01*
X166370000Y-124237580D01*
X166497494Y-124217387D01*
X166612508Y-124158784D01*
X166703784Y-124067508D01*
X166762387Y-123952494D01*
X166782580Y-123825000D01*
X166762387Y-123697506D01*
X166725188Y-123624499D01*
X166703784Y-123582491D01*
X166612508Y-123491215D01*
X166497495Y-123432613D01*
X166448423Y-123424841D01*
X166370000Y-123412420D01*
X166369998Y-123412420D01*
X166323025Y-123419859D01*
X166293935Y-123417569D01*
X166269055Y-123402322D01*
X165453313Y-122586580D01*
X164631227Y-121764493D01*
X164628974Y-121762119D01*
X164601708Y-121731836D01*
X164578378Y-121721449D01*
X164569761Y-121716770D01*
X164548349Y-121702865D01*
X164538301Y-121701274D01*
X164522661Y-121696641D01*
X164513359Y-121692500D01*
X164513357Y-121692500D01*
X164487823Y-121692500D01*
X164478046Y-121691731D01*
X164452828Y-121687737D01*
X164442999Y-121690370D01*
X164426825Y-121692500D01*
X162244681Y-121692500D01*
X162200487Y-121674194D01*
X162182181Y-121630000D01*
X162200487Y-121585806D01*
X162258784Y-121527508D01*
X162266264Y-121512828D01*
X162317387Y-121412494D01*
X162337580Y-121285000D01*
X162317387Y-121157506D01*
X162287835Y-121099507D01*
X162258784Y-121042491D01*
X162167508Y-120951215D01*
X162052495Y-120892613D01*
X161925000Y-120872420D01*
X161797504Y-120892613D01*
X161682491Y-120951215D01*
X161591215Y-121042491D01*
X161532613Y-121157504D01*
X161512420Y-121285000D01*
X161532613Y-121412495D01*
X161591215Y-121527508D01*
X161649513Y-121585806D01*
X161667819Y-121630000D01*
X161649513Y-121674194D01*
X161605319Y-121692500D01*
X158434681Y-121692500D01*
X158390487Y-121674194D01*
X158372181Y-121630000D01*
X158390487Y-121585806D01*
X158448784Y-121527508D01*
X158456264Y-121512828D01*
X158507387Y-121412494D01*
X158527580Y-121285000D01*
X158507387Y-121157506D01*
X158477835Y-121099507D01*
X158448784Y-121042491D01*
X158357508Y-120951215D01*
X158242495Y-120892613D01*
X158115000Y-120872420D01*
X157987504Y-120892613D01*
X157872491Y-120951215D01*
X157781215Y-121042491D01*
X157722613Y-121157504D01*
X157702420Y-121285000D01*
X157722613Y-121412495D01*
X157781215Y-121527508D01*
X157839513Y-121585806D01*
X157857819Y-121630000D01*
X157839513Y-121674194D01*
X157795319Y-121692500D01*
X157487585Y-121692500D01*
X157484313Y-121692414D01*
X157443614Y-121690280D01*
X157419767Y-121699433D01*
X157410370Y-121702217D01*
X157385398Y-121707526D01*
X157377164Y-121713508D01*
X157362831Y-121721290D01*
X157353328Y-121724938D01*
X157335269Y-121742996D01*
X157327815Y-121749362D01*
X157307156Y-121764372D01*
X157302069Y-121773184D01*
X157292138Y-121786126D01*
X156762193Y-122316071D01*
X156717999Y-122334377D01*
X156673805Y-122316071D01*
X155616676Y-121258942D01*
X155601429Y-121234061D01*
X155599140Y-121204970D01*
X155602683Y-121182600D01*
X155606580Y-121158000D01*
X155586387Y-121030506D01*
X155552148Y-120963309D01*
X155527784Y-120915491D01*
X155436508Y-120824215D01*
X155321495Y-120765613D01*
X155194000Y-120745420D01*
X155066504Y-120765613D01*
X154951491Y-120824215D01*
X154860215Y-120915491D01*
X154801613Y-121030504D01*
X154781420Y-121158000D01*
X154801613Y-121285495D01*
X154860215Y-121400508D01*
X154951491Y-121491784D01*
X155058204Y-121546157D01*
X155066506Y-121550387D01*
X155194000Y-121570580D01*
X155240971Y-121563140D01*
X155270062Y-121565429D01*
X155294943Y-121580676D01*
X156352072Y-122637805D01*
X156368248Y-122665823D01*
X156368248Y-122698175D01*
X156352072Y-122726193D01*
X156054492Y-123023772D01*
X156052119Y-123026024D01*
X156021835Y-123053292D01*
X156011447Y-123076622D01*
X156006771Y-123085235D01*
X155992865Y-123106650D01*
X155991274Y-123116699D01*
X155986641Y-123132340D01*
X155982500Y-123141642D01*
X155982500Y-123167177D01*
X155981731Y-123176954D01*
X155977737Y-123202171D01*
X155980370Y-123211997D01*
X155982500Y-123228175D01*
X155982500Y-124805000D01*
X155964194Y-124849194D01*
X155920000Y-124867500D01*
X154044681Y-124867500D01*
X154000487Y-124849194D01*
X153912508Y-124761215D01*
X153797495Y-124702613D01*
X153670000Y-124682420D01*
X153542504Y-124702613D01*
X153427491Y-124761215D01*
X153339513Y-124849194D01*
X153295319Y-124867500D01*
X147962585Y-124867500D01*
X147959313Y-124867414D01*
X147918614Y-124865280D01*
X147894767Y-124874433D01*
X147885370Y-124877217D01*
X147860398Y-124882526D01*
X147852164Y-124888508D01*
X147837831Y-124896290D01*
X147828328Y-124899938D01*
X147810269Y-124917996D01*
X147802815Y-124924362D01*
X147782156Y-124939372D01*
X147777069Y-124948184D01*
X147767138Y-124961126D01*
X147244072Y-125484194D01*
X147223796Y-125497742D01*
X147199878Y-125502500D01*
X147004681Y-125502500D01*
X146960487Y-125484194D01*
X146942181Y-125440000D01*
X146960487Y-125395806D01*
X147018784Y-125337508D01*
X147040188Y-125295501D01*
X147077387Y-125222494D01*
X147097580Y-125095000D01*
X147077387Y-124967506D01*
X147042959Y-124899938D01*
X147018784Y-124852491D01*
X146927508Y-124761215D01*
X146812495Y-124702613D01*
X146685000Y-124682420D01*
X146557504Y-124702613D01*
X146442491Y-124761215D01*
X146351215Y-124852491D01*
X146292613Y-124967504D01*
X146272420Y-125095000D01*
X146292613Y-125222495D01*
X146351215Y-125337508D01*
X146439194Y-125425487D01*
X146457500Y-125469681D01*
X146457500Y-125609879D01*
X146452742Y-125633797D01*
X146439194Y-125654073D01*
X145259501Y-126833763D01*
X145257129Y-126836014D01*
X145226835Y-126863291D01*
X145216447Y-126886622D01*
X145211771Y-126895235D01*
X145197865Y-126916650D01*
X145196274Y-126926699D01*
X145191641Y-126942340D01*
X145187500Y-126951642D01*
X145187500Y-126977177D01*
X145186731Y-126986954D01*
X145182737Y-127012171D01*
X145185370Y-127021997D01*
X145187500Y-127038175D01*
X145187500Y-131437427D01*
X145187414Y-131440699D01*
X145185281Y-131481383D01*
X145194431Y-131505220D01*
X145197216Y-131514621D01*
X145202525Y-131539599D01*
X145208508Y-131547834D01*
X145216291Y-131562169D01*
X145219939Y-131571672D01*
X145237993Y-131589726D01*
X145244362Y-131597183D01*
X145259372Y-131617842D01*
X145268187Y-131622932D01*
X145281131Y-131632864D01*
X146262322Y-132614056D01*
X146277569Y-132638936D01*
X146279859Y-132668026D01*
X146273619Y-132707427D01*
X146272420Y-132715000D01*
X146281850Y-132774540D01*
X146292613Y-132842495D01*
X146351215Y-132957508D01*
X146442491Y-133048784D01*
X146495525Y-133075806D01*
X146557506Y-133107387D01*
X146685000Y-133127580D01*
X146812494Y-133107387D01*
X146927508Y-133048784D01*
X146954371Y-133021921D01*
X147015487Y-132960806D01*
X147059681Y-132942500D01*
X151390319Y-132942500D01*
X151434513Y-132960806D01*
X151522491Y-133048784D01*
X151575525Y-133075806D01*
X151637506Y-133107387D01*
X151765000Y-133127580D01*
X151892494Y-133107387D01*
X152007508Y-133048784D01*
X152098784Y-132957508D01*
X152157387Y-132842494D01*
X152177580Y-132715000D01*
X152157387Y-132587506D01*
X152109137Y-132492810D01*
X152098784Y-132472491D01*
X152007508Y-132381215D01*
X151892495Y-132322613D01*
X151765000Y-132302420D01*
X151637504Y-132322613D01*
X151522491Y-132381215D01*
X151434513Y-132469194D01*
X151390319Y-132487500D01*
X147059681Y-132487500D01*
X147015487Y-132469194D01*
X146927508Y-132381215D01*
X146812495Y-132322613D01*
X146763423Y-132314841D01*
X146685000Y-132302420D01*
X146684998Y-132302420D01*
X146638025Y-132309859D01*
X146608935Y-132307569D01*
X146584055Y-132292322D01*
X145660806Y-131369072D01*
X145642500Y-131324878D01*
X145642500Y-127120121D01*
X145647258Y-127096203D01*
X145660806Y-127075927D01*
X146498734Y-126238000D01*
X151987420Y-126238000D01*
X152007613Y-126365495D01*
X152066215Y-126480508D01*
X152157491Y-126571784D01*
X152272504Y-126630386D01*
X152272506Y-126630387D01*
X152400000Y-126650580D01*
X152527494Y-126630387D01*
X152642508Y-126571784D01*
X152733784Y-126480508D01*
X152742640Y-126463126D01*
X152765673Y-126438210D01*
X152798329Y-126429000D01*
X154072997Y-126429000D01*
X154117191Y-126447306D01*
X154730694Y-127060809D01*
X154749000Y-127105003D01*
X154749000Y-132036929D01*
X154745493Y-132057571D01*
X154745320Y-132058065D01*
X154748607Y-132087239D01*
X154749000Y-132094236D01*
X154749000Y-132101520D01*
X154750621Y-132108624D01*
X154751794Y-132115530D01*
X154755081Y-132144705D01*
X154755359Y-132145147D01*
X154763371Y-132164489D01*
X154763487Y-132165001D01*
X154781791Y-132187952D01*
X154785848Y-132193670D01*
X154789725Y-132199840D01*
X154794876Y-132204991D01*
X154799547Y-132210217D01*
X154817851Y-132233170D01*
X154818325Y-132233398D01*
X154835398Y-132245513D01*
X156679485Y-134089600D01*
X156691599Y-134106671D01*
X156691828Y-134107146D01*
X156691830Y-134107149D01*
X156714791Y-134125460D01*
X156720006Y-134130120D01*
X156725160Y-134135275D01*
X156731332Y-134139153D01*
X156737039Y-134143203D01*
X156759994Y-134161509D01*
X156759997Y-134161511D01*
X156760504Y-134161626D01*
X156779848Y-134169637D01*
X156780294Y-134169918D01*
X156809467Y-134173204D01*
X156816362Y-134174375D01*
X156823479Y-134176000D01*
X156830764Y-134176000D01*
X156837761Y-134176393D01*
X156840994Y-134176757D01*
X156866935Y-134179680D01*
X156867429Y-134179506D01*
X156888071Y-134176000D01*
X161881929Y-134176000D01*
X161902570Y-134179506D01*
X161903065Y-134179680D01*
X161929333Y-134176720D01*
X161932239Y-134176393D01*
X161939236Y-134176000D01*
X161946523Y-134176000D01*
X161953621Y-134174379D01*
X161960534Y-134173203D01*
X161989706Y-134169918D01*
X161990141Y-134169644D01*
X162009496Y-134161627D01*
X162010003Y-134161511D01*
X162032951Y-134143209D01*
X162038662Y-134139155D01*
X162044840Y-134135275D01*
X162050006Y-134130107D01*
X162055205Y-134125462D01*
X162078170Y-134107149D01*
X162078397Y-134106676D01*
X162090511Y-134089602D01*
X164525808Y-131654306D01*
X164570003Y-131636000D01*
X168511671Y-131636000D01*
X168544327Y-131645210D01*
X168567359Y-131670126D01*
X168576216Y-131687509D01*
X168667491Y-131778784D01*
X168744076Y-131817806D01*
X168782506Y-131837387D01*
X168910000Y-131857580D01*
X169037494Y-131837387D01*
X169152508Y-131778784D01*
X169243784Y-131687508D01*
X169302387Y-131572494D01*
X169322580Y-131445000D01*
X169302387Y-131317506D01*
X169293407Y-131299882D01*
X169243784Y-131202491D01*
X169152508Y-131111215D01*
X169037495Y-131052613D01*
X168910000Y-131032420D01*
X168782504Y-131052613D01*
X168667491Y-131111215D01*
X168576216Y-131202490D01*
X168567359Y-131219874D01*
X168544327Y-131244790D01*
X168511671Y-131254000D01*
X164508071Y-131254000D01*
X164487429Y-131250493D01*
X164486935Y-131250320D01*
X164486934Y-131250320D01*
X164457761Y-131253607D01*
X164450764Y-131254000D01*
X164443479Y-131254000D01*
X164436375Y-131255621D01*
X164429470Y-131256794D01*
X164400294Y-131260081D01*
X164399847Y-131260363D01*
X164380511Y-131268371D01*
X164379996Y-131268488D01*
X164357039Y-131286796D01*
X164351326Y-131290850D01*
X164345160Y-131294724D01*
X164340002Y-131299882D01*
X164334781Y-131304546D01*
X164311829Y-131322850D01*
X164311601Y-131323325D01*
X164299487Y-131340396D01*
X161864191Y-133775694D01*
X161843915Y-133789242D01*
X161819997Y-133794000D01*
X156950003Y-133794000D01*
X156905809Y-133775694D01*
X155149306Y-132019191D01*
X155131000Y-131974997D01*
X155131000Y-127043071D01*
X155134507Y-127022429D01*
X155134680Y-127021934D01*
X155131393Y-126992758D01*
X155131000Y-126985761D01*
X155131000Y-126978480D01*
X155129380Y-126971382D01*
X155128206Y-126964470D01*
X155124919Y-126935294D01*
X155124641Y-126934852D01*
X155116625Y-126915498D01*
X155116511Y-126914997D01*
X155100881Y-126895398D01*
X155098208Y-126892046D01*
X155094155Y-126886335D01*
X155090275Y-126880160D01*
X155090273Y-126880158D01*
X155090272Y-126880156D01*
X155085121Y-126875005D01*
X155080451Y-126869779D01*
X155062148Y-126846829D01*
X155061671Y-126846599D01*
X155044600Y-126834485D01*
X154343513Y-126133398D01*
X154331398Y-126116325D01*
X154331170Y-126115851D01*
X154331168Y-126115849D01*
X154312879Y-126101264D01*
X154308217Y-126097547D01*
X154302991Y-126092876D01*
X154297840Y-126087725D01*
X154291670Y-126083848D01*
X154285957Y-126079794D01*
X154273366Y-126069753D01*
X154263001Y-126061487D01*
X154262489Y-126061371D01*
X154243147Y-126053359D01*
X154242705Y-126053081D01*
X154213530Y-126049794D01*
X154206624Y-126048621D01*
X154203394Y-126047884D01*
X154199521Y-126047000D01*
X154199520Y-126047000D01*
X154192236Y-126047000D01*
X154185239Y-126046607D01*
X154156065Y-126043320D01*
X154155571Y-126043493D01*
X154134929Y-126047000D01*
X152798329Y-126047000D01*
X152765673Y-126037790D01*
X152742641Y-126012874D01*
X152733783Y-125995490D01*
X152642508Y-125904215D01*
X152527495Y-125845613D01*
X152400000Y-125825420D01*
X152272504Y-125845613D01*
X152157491Y-125904215D01*
X152066215Y-125995491D01*
X152007613Y-126110504D01*
X151987420Y-126238000D01*
X146498734Y-126238000D01*
X146760928Y-125975806D01*
X146805122Y-125957500D01*
X147312427Y-125957500D01*
X147315697Y-125957585D01*
X147327598Y-125958209D01*
X147356382Y-125959718D01*
X147356382Y-125959717D01*
X147356384Y-125959718D01*
X147380231Y-125950563D01*
X147389607Y-125947785D01*
X147414600Y-125942474D01*
X147422831Y-125936493D01*
X147437174Y-125928706D01*
X147446670Y-125925061D01*
X147446669Y-125925061D01*
X147446673Y-125925060D01*
X147464739Y-125906992D01*
X147472176Y-125900641D01*
X147492842Y-125885628D01*
X147497932Y-125876810D01*
X147507860Y-125863871D01*
X148030926Y-125340806D01*
X148075121Y-125322500D01*
X153295319Y-125322500D01*
X153339513Y-125340806D01*
X153427491Y-125428784D01*
X153507756Y-125469681D01*
X153542506Y-125487387D01*
X153670000Y-125507580D01*
X153797494Y-125487387D01*
X153912508Y-125428784D01*
X153956292Y-125385000D01*
X154000487Y-125340806D01*
X154044681Y-125322500D01*
X155920000Y-125322500D01*
X155964194Y-125340806D01*
X155982500Y-125385000D01*
X155982500Y-130167427D01*
X155982414Y-130170699D01*
X155980281Y-130211383D01*
X155989431Y-130235220D01*
X155992216Y-130244621D01*
X155997525Y-130269599D01*
X156003508Y-130277834D01*
X156011291Y-130292169D01*
X156014939Y-130301672D01*
X156032993Y-130319726D01*
X156039362Y-130327183D01*
X156054372Y-130347842D01*
X156063187Y-130352932D01*
X156076131Y-130362864D01*
X156422322Y-130709055D01*
X156437569Y-130733935D01*
X156439859Y-130763025D01*
X156432420Y-130809998D01*
X156432420Y-130810000D01*
X156442024Y-130870636D01*
X156452613Y-130937495D01*
X156511215Y-131052508D01*
X156599194Y-131140487D01*
X156617500Y-131184681D01*
X156617500Y-132707427D01*
X156617414Y-132710699D01*
X156615281Y-132751383D01*
X156624431Y-132775220D01*
X156627216Y-132784621D01*
X156632525Y-132809599D01*
X156638508Y-132817834D01*
X156646291Y-132832169D01*
X156649939Y-132841672D01*
X156667993Y-132859726D01*
X156674362Y-132867183D01*
X156689372Y-132887842D01*
X156698187Y-132892932D01*
X156711131Y-132902864D01*
X157313763Y-133505496D01*
X157316014Y-133507868D01*
X157343292Y-133538163D01*
X157366627Y-133548552D01*
X157375235Y-133553226D01*
X157396651Y-133567134D01*
X157406703Y-133568726D01*
X157422341Y-133573359D01*
X157431642Y-133577500D01*
X157431643Y-133577500D01*
X157457178Y-133577500D01*
X157466955Y-133578269D01*
X157475543Y-133579630D01*
X157492171Y-133582264D01*
X157492171Y-133582263D01*
X157492172Y-133582264D01*
X157502002Y-133579629D01*
X157518179Y-133577500D01*
X161282427Y-133577500D01*
X161285697Y-133577585D01*
X161297598Y-133578209D01*
X161326382Y-133579718D01*
X161326382Y-133579717D01*
X161326384Y-133579718D01*
X161350231Y-133570563D01*
X161359607Y-133567785D01*
X161384600Y-133562474D01*
X161392831Y-133556493D01*
X161407174Y-133548706D01*
X161416670Y-133545061D01*
X161416669Y-133545061D01*
X161416673Y-133545060D01*
X161434739Y-133526992D01*
X161442176Y-133520641D01*
X161462842Y-133505628D01*
X161467932Y-133496810D01*
X161477860Y-133483871D01*
X162080513Y-132881218D01*
X162082848Y-132879002D01*
X162113163Y-132851708D01*
X162123550Y-132828376D01*
X162128230Y-132819758D01*
X162142134Y-132798349D01*
X162143726Y-132788294D01*
X162148360Y-132772654D01*
X162152500Y-132763357D01*
X162152500Y-132737822D01*
X162153270Y-132728043D01*
X162153533Y-132726386D01*
X162157264Y-132702828D01*
X162154629Y-132692997D01*
X162152500Y-132676821D01*
X162152500Y-131100000D01*
X162170806Y-131055806D01*
X162215000Y-131037500D01*
X163822427Y-131037500D01*
X163825697Y-131037585D01*
X163837598Y-131038209D01*
X163866382Y-131039718D01*
X163866382Y-131039717D01*
X163866384Y-131039718D01*
X163890231Y-131030563D01*
X163899607Y-131027785D01*
X163924600Y-131022474D01*
X163932831Y-131016493D01*
X163947174Y-131008706D01*
X163956670Y-131005061D01*
X163956669Y-131005061D01*
X163956673Y-131005060D01*
X163974739Y-130986992D01*
X163982176Y-130980641D01*
X164002842Y-130965628D01*
X164007932Y-130956810D01*
X164017860Y-130943871D01*
X164540926Y-130420806D01*
X164585121Y-130402500D01*
X170694879Y-130402500D01*
X170739073Y-130420806D01*
X171852855Y-131534588D01*
X171870484Y-131569611D01*
X171863782Y-131608243D01*
X171812538Y-131704116D01*
X171756642Y-131888377D01*
X171737770Y-132080000D01*
X171756642Y-132271622D01*
X171812538Y-132455885D01*
X171877013Y-132576508D01*
X171903306Y-132625698D01*
X172025459Y-132774541D01*
X172174302Y-132896694D01*
X172254058Y-132939324D01*
X172344114Y-132987461D01*
X172344116Y-132987461D01*
X172344117Y-132987462D01*
X172528376Y-133043357D01*
X172720000Y-133062230D01*
X172911624Y-133043357D01*
X173095883Y-132987462D01*
X173265698Y-132896694D01*
X173414541Y-132774541D01*
X173536694Y-132625698D01*
X173627462Y-132455883D01*
X173659018Y-132351856D01*
X173681596Y-132319800D01*
X173718827Y-132307500D01*
X174220000Y-132307500D01*
X174264194Y-132325806D01*
X174282500Y-132370000D01*
X174282500Y-132942558D01*
X174289898Y-132979748D01*
X174318078Y-133021922D01*
X174360252Y-133050102D01*
X174397442Y-133057500D01*
X176122557Y-133057500D01*
X176122558Y-133057500D01*
X176159748Y-133050102D01*
X176201922Y-133021922D01*
X176230102Y-132979748D01*
X176237500Y-132942558D01*
X176237500Y-132370000D01*
X176255806Y-132325806D01*
X176300000Y-132307500D01*
X179300000Y-132307500D01*
X179344194Y-132325806D01*
X179362500Y-132370000D01*
X179362500Y-132942558D01*
X179369898Y-132979748D01*
X179398078Y-133021922D01*
X179440252Y-133050102D01*
X179477442Y-133057500D01*
X180050000Y-133057500D01*
X180094194Y-133075806D01*
X180112500Y-133120000D01*
X180112500Y-133580000D01*
X180094194Y-133624194D01*
X180050000Y-133642500D01*
X179477442Y-133642500D01*
X179458847Y-133646198D01*
X179440251Y-133649898D01*
X179398077Y-133678078D01*
X179384964Y-133697703D01*
X179354052Y-133721825D01*
X179314854Y-133722786D01*
X179282797Y-133700209D01*
X179270498Y-133662980D01*
X179270499Y-133327410D01*
X179270499Y-133267710D01*
X179238392Y-133106294D01*
X179218181Y-133057500D01*
X179175411Y-132954244D01*
X179100742Y-132842494D01*
X179083975Y-132817400D01*
X178967600Y-132701025D01*
X178931376Y-132676821D01*
X178830755Y-132609588D01*
X178678707Y-132546608D01*
X178517291Y-132514501D01*
X178517290Y-132514501D01*
X178457590Y-132514501D01*
X177204882Y-132514501D01*
X177165000Y-132514501D01*
X177082710Y-132514501D01*
X177082709Y-132514501D01*
X176921292Y-132546608D01*
X176769244Y-132609588D01*
X176632399Y-132701025D01*
X176516025Y-132817399D01*
X176424588Y-132954244D01*
X176361608Y-133106292D01*
X176329501Y-133267709D01*
X176329501Y-133347273D01*
X176329263Y-133352720D01*
X176313729Y-133530270D01*
X176311837Y-133540999D01*
X176266417Y-133710507D01*
X176262691Y-133720745D01*
X176188526Y-133879793D01*
X176183079Y-133889228D01*
X176082419Y-134032985D01*
X176075416Y-134041330D01*
X175951330Y-134165416D01*
X175942985Y-134172419D01*
X175799228Y-134273079D01*
X175789793Y-134278526D01*
X175630745Y-134352691D01*
X175620507Y-134356417D01*
X175450999Y-134401837D01*
X175440270Y-134403729D01*
X175262720Y-134419263D01*
X175257273Y-134419501D01*
X167120287Y-134419501D01*
X167080208Y-134404958D01*
X167058780Y-134368098D01*
X167065976Y-134326073D01*
X167098446Y-134298442D01*
X167112086Y-134293354D01*
X167227189Y-134207189D01*
X167313354Y-134092086D01*
X167363597Y-133957378D01*
X167370000Y-133897827D01*
X167370000Y-133600000D01*
X166182500Y-133600000D01*
X166138306Y-133581694D01*
X166120000Y-133537500D01*
X166120000Y-132350000D01*
X166620000Y-132350000D01*
X166620000Y-133100000D01*
X167370000Y-133100000D01*
X167370000Y-132802173D01*
X167363597Y-132742621D01*
X167313354Y-132607913D01*
X167227189Y-132492810D01*
X167112086Y-132406645D01*
X166977378Y-132356402D01*
X166917827Y-132350000D01*
X166620000Y-132350000D01*
X166120000Y-132350000D01*
X165822173Y-132350000D01*
X165762621Y-132356402D01*
X165627913Y-132406645D01*
X165512810Y-132492810D01*
X165426646Y-132607912D01*
X165385876Y-132717220D01*
X165356514Y-132750639D01*
X165312360Y-132756062D01*
X165176192Y-132722500D01*
X165023808Y-132722500D01*
X164875850Y-132758968D01*
X164740920Y-132829784D01*
X164626859Y-132930834D01*
X164540295Y-133056243D01*
X164486258Y-133198725D01*
X164467890Y-133349999D01*
X164486258Y-133501274D01*
X164540295Y-133643756D01*
X164594182Y-133721825D01*
X164626860Y-133769166D01*
X164740921Y-133870216D01*
X164875851Y-133941032D01*
X165023808Y-133977500D01*
X165176192Y-133977500D01*
X165312361Y-133943937D01*
X165356514Y-133949360D01*
X165385876Y-133982779D01*
X165426646Y-134092087D01*
X165512810Y-134207189D01*
X165627913Y-134293354D01*
X165641554Y-134298442D01*
X165674024Y-134326073D01*
X165681220Y-134368098D01*
X165659792Y-134404958D01*
X165619713Y-134419501D01*
X128272727Y-134419501D01*
X128267280Y-134419263D01*
X128089729Y-134403729D01*
X128079000Y-134401837D01*
X127909492Y-134356417D01*
X127899254Y-134352691D01*
X127740207Y-134278526D01*
X127730773Y-134273079D01*
X127587015Y-134172419D01*
X127578669Y-134165416D01*
X127454583Y-134041330D01*
X127447580Y-134032985D01*
X127346920Y-133889228D01*
X127341473Y-133879793D01*
X127289887Y-133769165D01*
X127267307Y-133720744D01*
X127263582Y-133710507D01*
X127245696Y-133643756D01*
X127218161Y-133540995D01*
X127216270Y-133530270D01*
X127215984Y-133527005D01*
X127200737Y-133352720D01*
X127200499Y-133347273D01*
X127200499Y-132080000D01*
X143097420Y-132080000D01*
X143117613Y-132207495D01*
X143176215Y-132322508D01*
X143267491Y-132413784D01*
X143350115Y-132455883D01*
X143382506Y-132472387D01*
X143510000Y-132492580D01*
X143637494Y-132472387D01*
X143752508Y-132413784D01*
X143843784Y-132322508D01*
X143902387Y-132207494D01*
X143922580Y-132080000D01*
X143902387Y-131952506D01*
X143874360Y-131897500D01*
X143843784Y-131837491D01*
X143755806Y-131749513D01*
X143737500Y-131705319D01*
X143737500Y-128644681D01*
X143755806Y-128600487D01*
X143843784Y-128512508D01*
X143868614Y-128463776D01*
X143902387Y-128397494D01*
X143922580Y-128270000D01*
X143902387Y-128142506D01*
X143893407Y-128124882D01*
X143843784Y-128027491D01*
X143752508Y-127936215D01*
X143637495Y-127877613D01*
X143510000Y-127857420D01*
X143382504Y-127877613D01*
X143267491Y-127936215D01*
X143176215Y-128027491D01*
X143117613Y-128142504D01*
X143097420Y-128270000D01*
X143117613Y-128397495D01*
X143176215Y-128512508D01*
X143264194Y-128600487D01*
X143282500Y-128644681D01*
X143282500Y-131705319D01*
X143264194Y-131749513D01*
X143176215Y-131837491D01*
X143117613Y-131952504D01*
X143097420Y-132080000D01*
X127200499Y-132080000D01*
X127200499Y-131320000D01*
X128222517Y-131320000D01*
X128223767Y-131329491D01*
X128240813Y-131458975D01*
X128242365Y-131470758D01*
X128284506Y-131572495D01*
X128300556Y-131611243D01*
X128393121Y-131731878D01*
X128513756Y-131824443D01*
X128513759Y-131824445D01*
X128654242Y-131882635D01*
X128710696Y-131890067D01*
X128767148Y-131897500D01*
X128767151Y-131897500D01*
X129642849Y-131897500D01*
X129642852Y-131897500D01*
X129691238Y-131891129D01*
X129755758Y-131882635D01*
X129896241Y-131824445D01*
X130016878Y-131731878D01*
X130109445Y-131611242D01*
X130109447Y-131611238D01*
X130134986Y-131549582D01*
X130158005Y-131521533D01*
X130192728Y-131511000D01*
X132237272Y-131511000D01*
X132271995Y-131521533D01*
X132295014Y-131549582D01*
X132320553Y-131611239D01*
X132413121Y-131731878D01*
X132533756Y-131824443D01*
X132533759Y-131824445D01*
X132674242Y-131882635D01*
X132730696Y-131890067D01*
X132787148Y-131897500D01*
X132787151Y-131897500D01*
X133962849Y-131897500D01*
X133962852Y-131897500D01*
X134011238Y-131891129D01*
X134075758Y-131882635D01*
X134216241Y-131824445D01*
X134336878Y-131731878D01*
X134429445Y-131611242D01*
X134487635Y-131470758D01*
X134507483Y-131320000D01*
X134487635Y-131169242D01*
X134429445Y-131028759D01*
X134428287Y-131027250D01*
X134336878Y-130908121D01*
X134216243Y-130815556D01*
X134202830Y-130810000D01*
X134075758Y-130757365D01*
X134075755Y-130757364D01*
X134075754Y-130757364D01*
X133962852Y-130742500D01*
X133962849Y-130742500D01*
X132787151Y-130742500D01*
X132787148Y-130742500D01*
X132674245Y-130757364D01*
X132674242Y-130757364D01*
X132674242Y-130757365D01*
X132660578Y-130763025D01*
X132533756Y-130815556D01*
X132413124Y-130908120D01*
X132413123Y-130908121D01*
X132413122Y-130908122D01*
X132382226Y-130948387D01*
X132320552Y-131028761D01*
X132295014Y-131090418D01*
X132271995Y-131118467D01*
X132237272Y-131129000D01*
X130192728Y-131129000D01*
X130158005Y-131118467D01*
X130134986Y-131090418D01*
X130109446Y-131028760D01*
X130016878Y-130908121D01*
X129896243Y-130815556D01*
X129882830Y-130810000D01*
X129755758Y-130757365D01*
X129755755Y-130757364D01*
X129755754Y-130757364D01*
X129642852Y-130742500D01*
X129642849Y-130742500D01*
X129458500Y-130742500D01*
X129414306Y-130724194D01*
X129396000Y-130680000D01*
X129396000Y-129928193D01*
X132336591Y-129928193D01*
X132365973Y-130069588D01*
X132367604Y-130077436D01*
X132437010Y-130211384D01*
X132437732Y-130212776D01*
X132541770Y-130324175D01*
X132672010Y-130403375D01*
X132818785Y-130444500D01*
X132818786Y-130444500D01*
X132932925Y-130444500D01*
X132932927Y-130444500D01*
X133046009Y-130428957D01*
X133185818Y-130368230D01*
X133304058Y-130272034D01*
X133391961Y-130147504D01*
X133392363Y-130146375D01*
X133443006Y-130003877D01*
X133453408Y-129851806D01*
X133453408Y-129851804D01*
X133422396Y-129702564D01*
X133352269Y-129567225D01*
X133326842Y-129539999D01*
X133248229Y-129455824D01*
X133117989Y-129376624D01*
X132971215Y-129335500D01*
X132971214Y-129335500D01*
X132857073Y-129335500D01*
X132784370Y-129345493D01*
X132743991Y-129351043D01*
X132604181Y-129411770D01*
X132485941Y-129507965D01*
X132398037Y-129632497D01*
X132346993Y-129776122D01*
X132336591Y-129928193D01*
X129396000Y-129928193D01*
X129396000Y-125996171D01*
X132101737Y-125996171D01*
X132104370Y-126005997D01*
X132106500Y-126022175D01*
X132106500Y-128008427D01*
X132106414Y-128011699D01*
X132104281Y-128052383D01*
X132113431Y-128076220D01*
X132116216Y-128085621D01*
X132121525Y-128110599D01*
X132127508Y-128118834D01*
X132135291Y-128133169D01*
X132138939Y-128142672D01*
X132156993Y-128160726D01*
X132163362Y-128168183D01*
X132178372Y-128188842D01*
X132187187Y-128193932D01*
X132200130Y-128203863D01*
X132975614Y-128979348D01*
X133691772Y-129695506D01*
X133694024Y-129697879D01*
X133713032Y-129718990D01*
X133721292Y-129728163D01*
X133744626Y-129738552D01*
X133753225Y-129743220D01*
X133774650Y-129757134D01*
X133784696Y-129758724D01*
X133800340Y-129763358D01*
X133809643Y-129767500D01*
X133835177Y-129767500D01*
X133844954Y-129768269D01*
X133870172Y-129772263D01*
X133880000Y-129769629D01*
X133896175Y-129767500D01*
X134753319Y-129767500D01*
X134797513Y-129785806D01*
X134885491Y-129873784D01*
X134987678Y-129925851D01*
X135000506Y-129932387D01*
X135128000Y-129952580D01*
X135255494Y-129932387D01*
X135370508Y-129873784D01*
X135461784Y-129782508D01*
X135520387Y-129667494D01*
X135540580Y-129540000D01*
X135520387Y-129412506D01*
X135512669Y-129397358D01*
X135461784Y-129297491D01*
X135370508Y-129206215D01*
X135255495Y-129147613D01*
X135128000Y-129127420D01*
X135000504Y-129147613D01*
X134885491Y-129206215D01*
X134797513Y-129294194D01*
X134753319Y-129312500D01*
X133978122Y-129312500D01*
X133933928Y-129294194D01*
X132579806Y-127940072D01*
X132561500Y-127895878D01*
X132561500Y-126104121D01*
X132579806Y-126059927D01*
X133920927Y-124718806D01*
X133965121Y-124700500D01*
X134740319Y-124700500D01*
X134784513Y-124718806D01*
X134872491Y-124806784D01*
X134962196Y-124852491D01*
X134987506Y-124865387D01*
X135115000Y-124885580D01*
X135242494Y-124865387D01*
X135357508Y-124806784D01*
X135448784Y-124715508D01*
X135507387Y-124600494D01*
X135527580Y-124473000D01*
X135507387Y-124345506D01*
X135487181Y-124305850D01*
X135448784Y-124230491D01*
X135357508Y-124139215D01*
X135242495Y-124080613D01*
X135115000Y-124060420D01*
X134987504Y-124080613D01*
X134872491Y-124139215D01*
X134784513Y-124227194D01*
X134740319Y-124245500D01*
X133852585Y-124245500D01*
X133849313Y-124245414D01*
X133808614Y-124243280D01*
X133784767Y-124252433D01*
X133775370Y-124255217D01*
X133750398Y-124260526D01*
X133742164Y-124266508D01*
X133727831Y-124274290D01*
X133718328Y-124277938D01*
X133700269Y-124295996D01*
X133692815Y-124302362D01*
X133672156Y-124317372D01*
X133667069Y-124326184D01*
X133657138Y-124339126D01*
X132178492Y-125817772D01*
X132176119Y-125820024D01*
X132145835Y-125847292D01*
X132135447Y-125870622D01*
X132130771Y-125879235D01*
X132116865Y-125900650D01*
X132115274Y-125910699D01*
X132110641Y-125926340D01*
X132106500Y-125935642D01*
X132106500Y-125961177D01*
X132105731Y-125970954D01*
X132101737Y-125996171D01*
X129396000Y-125996171D01*
X129396000Y-124148193D01*
X132336591Y-124148193D01*
X132364190Y-124281009D01*
X132367604Y-124297436D01*
X132403910Y-124367504D01*
X132437732Y-124432776D01*
X132541770Y-124544175D01*
X132672010Y-124623375D01*
X132818785Y-124664500D01*
X132818786Y-124664500D01*
X132932925Y-124664500D01*
X132932927Y-124664500D01*
X133046009Y-124648957D01*
X133185818Y-124588230D01*
X133304058Y-124492034D01*
X133391961Y-124367504D01*
X133415113Y-124302362D01*
X133443006Y-124223877D01*
X133453408Y-124071806D01*
X133451042Y-124060420D01*
X133422396Y-123922564D01*
X133352269Y-123787225D01*
X133314304Y-123746574D01*
X133248229Y-123675824D01*
X133117989Y-123596624D01*
X132971215Y-123555500D01*
X132971214Y-123555500D01*
X132857073Y-123555500D01*
X132747898Y-123570506D01*
X132743991Y-123571043D01*
X132604181Y-123631770D01*
X132485941Y-123727965D01*
X132398037Y-123852497D01*
X132346993Y-123996122D01*
X132336591Y-124148193D01*
X129396000Y-124148193D01*
X129396000Y-123320000D01*
X129414306Y-123275806D01*
X129458500Y-123257500D01*
X129642852Y-123257500D01*
X129691238Y-123251129D01*
X129755758Y-123242635D01*
X129896241Y-123184445D01*
X130016878Y-123091878D01*
X130109445Y-122971242D01*
X130109447Y-122971238D01*
X130134986Y-122909582D01*
X130158005Y-122881533D01*
X130192728Y-122871000D01*
X132237272Y-122871000D01*
X132271995Y-122881533D01*
X132295014Y-122909582D01*
X132320553Y-122971239D01*
X132413121Y-123091878D01*
X132517669Y-123172099D01*
X132533759Y-123184445D01*
X132674242Y-123242635D01*
X132730696Y-123250067D01*
X132787148Y-123257500D01*
X132787151Y-123257500D01*
X133962849Y-123257500D01*
X133962852Y-123257500D01*
X134011238Y-123251129D01*
X134075758Y-123242635D01*
X134216241Y-123184445D01*
X134336878Y-123091878D01*
X134429445Y-122971242D01*
X134487635Y-122830758D01*
X134507483Y-122680000D01*
X134487635Y-122529242D01*
X134429445Y-122388759D01*
X134429443Y-122388756D01*
X134336878Y-122268121D01*
X134216243Y-122175556D01*
X134216241Y-122175555D01*
X134075758Y-122117365D01*
X134075755Y-122117364D01*
X134075754Y-122117364D01*
X133962852Y-122102500D01*
X133962849Y-122102500D01*
X132787151Y-122102500D01*
X132787148Y-122102500D01*
X132674245Y-122117364D01*
X132674242Y-122117364D01*
X132674242Y-122117365D01*
X132659914Y-122123300D01*
X132533756Y-122175556D01*
X132413124Y-122268120D01*
X132413123Y-122268121D01*
X132413122Y-122268122D01*
X132391820Y-122295883D01*
X132320552Y-122388761D01*
X132295014Y-122450418D01*
X132271995Y-122478467D01*
X132237272Y-122489000D01*
X130192728Y-122489000D01*
X130158005Y-122478467D01*
X130134986Y-122450418D01*
X130109446Y-122388760D01*
X130016878Y-122268121D01*
X129896243Y-122175556D01*
X129896241Y-122175555D01*
X129755758Y-122117365D01*
X129755755Y-122117364D01*
X129755754Y-122117364D01*
X129642852Y-122102500D01*
X129642849Y-122102500D01*
X128767151Y-122102500D01*
X128767148Y-122102500D01*
X128654245Y-122117364D01*
X128654242Y-122117364D01*
X128654242Y-122117365D01*
X128639914Y-122123300D01*
X128513756Y-122175556D01*
X128393121Y-122268122D01*
X128300555Y-122388756D01*
X128242364Y-122529243D01*
X128225492Y-122657400D01*
X128222517Y-122680000D01*
X128224910Y-122698175D01*
X128242050Y-122828371D01*
X128242365Y-122830758D01*
X128294872Y-122957520D01*
X128300556Y-122971243D01*
X128393121Y-123091878D01*
X128497669Y-123172099D01*
X128513759Y-123184445D01*
X128654242Y-123242635D01*
X128710696Y-123250067D01*
X128767148Y-123257500D01*
X128767151Y-123257500D01*
X128951500Y-123257500D01*
X128995694Y-123275806D01*
X129014000Y-123320000D01*
X129014000Y-130680000D01*
X128995694Y-130724194D01*
X128951500Y-130742500D01*
X128767148Y-130742500D01*
X128654245Y-130757364D01*
X128654242Y-130757364D01*
X128654242Y-130757365D01*
X128640578Y-130763025D01*
X128513756Y-130815556D01*
X128393121Y-130908122D01*
X128300555Y-131028756D01*
X128242364Y-131169243D01*
X128222845Y-131317506D01*
X128222517Y-131320000D01*
X127200499Y-131320000D01*
X127200499Y-121285000D01*
X151987420Y-121285000D01*
X152007613Y-121412495D01*
X152066215Y-121527508D01*
X152157491Y-121618784D01*
X152266239Y-121674194D01*
X152272506Y-121677387D01*
X152400000Y-121697580D01*
X152527494Y-121677387D01*
X152642508Y-121618784D01*
X152733784Y-121527508D01*
X152792387Y-121412494D01*
X152812580Y-121285000D01*
X152798081Y-121193467D01*
X152800371Y-121164376D01*
X152815616Y-121139497D01*
X153730808Y-120224306D01*
X153775003Y-120206000D01*
X161819997Y-120206000D01*
X161864191Y-120224306D01*
X162394486Y-120754600D01*
X162406599Y-120771670D01*
X162406830Y-120772149D01*
X162406831Y-120772150D01*
X162429784Y-120790455D01*
X162435010Y-120795125D01*
X162440156Y-120800271D01*
X162440158Y-120800272D01*
X162440161Y-120800275D01*
X162446335Y-120804155D01*
X162452031Y-120808196D01*
X162472118Y-120824215D01*
X162474997Y-120826511D01*
X162475504Y-120826627D01*
X162494847Y-120834638D01*
X162495294Y-120834919D01*
X162524471Y-120838206D01*
X162531377Y-120839379D01*
X162538479Y-120841000D01*
X162545761Y-120841000D01*
X162552758Y-120841393D01*
X162581934Y-120844680D01*
X162581934Y-120844679D01*
X162581935Y-120844680D01*
X162582429Y-120844506D01*
X162603071Y-120841000D01*
X165629997Y-120841000D01*
X165674191Y-120859306D01*
X167224380Y-122409495D01*
X167239627Y-122434375D01*
X167241917Y-122463466D01*
X167227420Y-122554999D01*
X167247613Y-122682495D01*
X167306215Y-122797508D01*
X167397491Y-122888784D01*
X167486945Y-122934363D01*
X167512506Y-122947387D01*
X167640000Y-122967580D01*
X167767494Y-122947387D01*
X167882508Y-122888784D01*
X167973784Y-122797508D01*
X168032387Y-122682494D01*
X168052580Y-122555000D01*
X168032387Y-122427506D01*
X168028950Y-122420761D01*
X167973784Y-122312491D01*
X167882508Y-122221215D01*
X167767495Y-122162613D01*
X167674233Y-122147842D01*
X167640000Y-122142420D01*
X167639999Y-122142420D01*
X167548466Y-122156917D01*
X167519375Y-122154627D01*
X167494495Y-122139380D01*
X165900513Y-120545398D01*
X165888398Y-120528325D01*
X165888170Y-120527851D01*
X165888168Y-120527849D01*
X165865219Y-120509548D01*
X165859991Y-120504876D01*
X165854840Y-120499725D01*
X165848670Y-120495848D01*
X165842957Y-120491794D01*
X165830366Y-120481753D01*
X165820001Y-120473487D01*
X165819489Y-120473371D01*
X165800147Y-120465359D01*
X165799705Y-120465081D01*
X165770530Y-120461794D01*
X165763624Y-120460621D01*
X165760394Y-120459884D01*
X165756521Y-120459000D01*
X165756520Y-120459000D01*
X165749236Y-120459000D01*
X165742239Y-120458607D01*
X165713065Y-120455320D01*
X165712571Y-120455493D01*
X165691929Y-120459000D01*
X162665002Y-120459000D01*
X162641084Y-120454242D01*
X162620808Y-120440694D01*
X162090513Y-119910398D01*
X162078398Y-119893325D01*
X162078170Y-119892851D01*
X162078168Y-119892849D01*
X162055219Y-119874548D01*
X162049991Y-119869876D01*
X162044840Y-119864725D01*
X162038670Y-119860848D01*
X162032957Y-119856794D01*
X162020366Y-119846753D01*
X162010001Y-119838487D01*
X162009489Y-119838371D01*
X161990147Y-119830359D01*
X161989705Y-119830081D01*
X161960530Y-119826794D01*
X161953624Y-119825621D01*
X161950394Y-119824884D01*
X161946521Y-119824000D01*
X161946520Y-119824000D01*
X161939236Y-119824000D01*
X161932239Y-119823607D01*
X161903065Y-119820320D01*
X161902571Y-119820493D01*
X161881929Y-119824000D01*
X153713071Y-119824000D01*
X153692429Y-119820493D01*
X153691935Y-119820320D01*
X153691934Y-119820320D01*
X153662761Y-119823607D01*
X153655764Y-119824000D01*
X153648479Y-119824000D01*
X153641375Y-119825621D01*
X153634470Y-119826794D01*
X153605294Y-119830081D01*
X153604847Y-119830363D01*
X153585511Y-119838371D01*
X153584996Y-119838488D01*
X153562039Y-119856796D01*
X153556326Y-119860850D01*
X153550160Y-119864724D01*
X153545002Y-119869882D01*
X153539781Y-119874546D01*
X153516829Y-119892850D01*
X153516601Y-119893325D01*
X153504487Y-119910396D01*
X152545503Y-120869380D01*
X152520623Y-120884627D01*
X152491532Y-120886917D01*
X152400000Y-120872420D01*
X152272504Y-120892613D01*
X152157491Y-120951215D01*
X152066215Y-121042491D01*
X152007613Y-121157504D01*
X151987420Y-121285000D01*
X127200499Y-121285000D01*
X127200499Y-120652728D01*
X127200737Y-120647281D01*
X127210308Y-120537889D01*
X127216272Y-120469721D01*
X127218161Y-120459008D01*
X127263584Y-120289487D01*
X127267307Y-120279259D01*
X127341479Y-120120195D01*
X127346917Y-120110777D01*
X127447582Y-119967012D01*
X127454575Y-119958678D01*
X127578678Y-119834575D01*
X127587016Y-119827580D01*
X127730777Y-119726917D01*
X127740195Y-119721479D01*
X127899259Y-119647307D01*
X127909487Y-119643584D01*
X128079006Y-119598161D01*
X128089722Y-119596272D01*
X128267279Y-119580738D01*
X128272727Y-119580500D01*
X128335769Y-119580500D01*
X128335771Y-119580499D01*
X175257273Y-119580499D01*
X175262720Y-119580737D01*
X175268367Y-119581231D01*
X175440275Y-119596270D01*
X175450995Y-119598161D01*
X175620508Y-119643582D01*
X175630745Y-119647308D01*
X175789793Y-119721473D01*
X175799229Y-119726920D01*
X175941302Y-119826402D01*
X175942985Y-119827580D01*
X175951330Y-119834583D01*
X176075416Y-119958669D01*
X176082419Y-119967015D01*
X176183079Y-120110773D01*
X176188526Y-120120207D01*
X176262691Y-120279254D01*
X176266417Y-120289492D01*
X176311837Y-120459000D01*
X176313729Y-120469729D01*
X176329263Y-120647280D01*
X176329501Y-120652727D01*
X176329501Y-120732291D01*
X176361608Y-120893707D01*
X176424588Y-121045755D01*
X176487223Y-121139495D01*
X176516025Y-121182600D01*
X176632400Y-121298975D01*
X176639979Y-121304039D01*
X176769244Y-121390411D01*
X176886847Y-121439123D01*
X176921294Y-121453392D01*
X177018912Y-121472809D01*
X177082709Y-121485499D01*
X177082710Y-121485499D01*
X177142410Y-121485499D01*
X177165000Y-121485499D01*
X177204882Y-121485499D01*
X178395118Y-121485499D01*
X178457590Y-121485499D01*
X178517290Y-121485499D01*
X178517291Y-121485499D01*
X178549397Y-121479112D01*
X178678706Y-121453392D01*
X178804529Y-121401274D01*
X178830755Y-121390411D01*
X178830755Y-121390410D01*
X178830757Y-121390410D01*
X178967600Y-121298975D01*
X179083975Y-121182600D01*
X179175410Y-121045757D01*
X179175952Y-121044450D01*
X179220485Y-120936937D01*
X179238392Y-120893706D01*
X179270499Y-120732290D01*
X179270499Y-120650000D01*
X179270499Y-120610118D01*
X179270499Y-119643055D01*
X179285673Y-119602232D01*
X179323828Y-119581231D01*
X179366436Y-119590252D01*
X179392808Y-119624912D01*
X179432538Y-119755885D01*
X179505748Y-119892849D01*
X179523306Y-119925698D01*
X179645459Y-120074541D01*
X179794302Y-120196694D01*
X179874058Y-120239324D01*
X179964114Y-120287461D01*
X179964116Y-120287461D01*
X179964117Y-120287462D01*
X180148376Y-120343357D01*
X180340000Y-120362230D01*
X180531624Y-120343357D01*
X180715883Y-120287462D01*
X180885698Y-120196694D01*
X181034541Y-120074541D01*
X181156694Y-119925698D01*
X181247462Y-119755883D01*
X181303357Y-119571624D01*
X181322230Y-119380000D01*
X181303357Y-119188376D01*
X181247462Y-119004117D01*
X181247461Y-119004116D01*
X181247461Y-119004114D01*
X181185822Y-118888797D01*
X181156694Y-118834302D01*
X181034541Y-118685459D01*
X180885698Y-118563306D01*
X180875396Y-118557799D01*
X180715885Y-118472538D01*
X180602285Y-118438078D01*
X180584914Y-118432808D01*
X180550255Y-118406437D01*
X180541234Y-118363829D01*
X180562235Y-118325674D01*
X180603058Y-118310500D01*
X182616942Y-118310500D01*
X182657765Y-118325674D01*
G37*
%TD.AperFunction*%
%TD*%
M02*
