%TF.GenerationSoftware,KiCad,Pcbnew,7.0.1*%
%TF.CreationDate,2023-04-05T22:14:50+02:00*%
%TF.ProjectId,rtl8762ckf-dev-board,72746c38-3736-4326-936b-662d6465762d,0.1.0*%
%TF.SameCoordinates,Original*%
%TF.FileFunction,Profile,NP*%
%FSLAX46Y46*%
G04 Gerber Fmt 4.6, Leading zero omitted, Abs format (unit mm)*
G04 Created by KiCad (PCBNEW 7.0.1) date 2023-04-05 22:14:50*
%MOMM*%
%LPD*%
G01*
G04 APERTURE LIST*
%TA.AperFunction,Profile*%
%ADD10C,0.100000*%
%TD*%
G04 APERTURE END LIST*
D10*
X179069999Y-134620000D02*
G75*
G03*
X180340000Y-135890001I1270001J0D01*
G01*
X177165000Y-122555001D02*
G75*
G03*
X176530001Y-123190000I0J-634999D01*
G01*
X177165000Y-130175001D02*
G75*
G03*
X176530001Y-130810000I0J-634999D01*
G01*
X178435000Y-121284999D02*
G75*
G03*
X179069999Y-120650000I0J634999D01*
G01*
X176530001Y-120650000D02*
G75*
G03*
X175260000Y-119379999I-1270001J0D01*
G01*
X127000000Y-120650000D02*
X126999999Y-133350000D01*
X177165000Y-126364999D02*
X178435000Y-126364999D01*
X179069999Y-128270000D02*
G75*
G03*
X178435000Y-127635001I-634999J0D01*
G01*
X128270000Y-119380000D02*
X175260000Y-119379999D01*
X177165000Y-131444999D02*
X178435000Y-131444999D01*
X223519999Y-135890000D02*
G75*
G03*
X224790000Y-134620000I1J1270000D01*
G01*
X178435000Y-128904999D02*
G75*
G03*
X179069999Y-128270000I0J634999D01*
G01*
X224789999Y-123190000D02*
X224790000Y-134620000D01*
X177165000Y-125095001D02*
G75*
G03*
X176530001Y-125730000I0J-634999D01*
G01*
X126999999Y-133350000D02*
G75*
G03*
X128270000Y-134620001I1270001J0D01*
G01*
X178435000Y-123824999D02*
G75*
G03*
X179069999Y-123190000I0J634999D01*
G01*
X179069999Y-130810000D02*
G75*
G03*
X178435000Y-130175001I-634999J0D01*
G01*
X128270000Y-134620001D02*
X175260000Y-134620001D01*
X177165000Y-130175001D02*
X178435000Y-130175001D01*
X177165000Y-127635001D02*
G75*
G03*
X176530001Y-128270000I0J-634999D01*
G01*
X176530001Y-128270000D02*
G75*
G03*
X177165000Y-128904999I634999J0D01*
G01*
X177165000Y-132715001D02*
G75*
G03*
X176530001Y-133350000I0J-634999D01*
G01*
X179069999Y-125730000D02*
G75*
G03*
X178435000Y-125095001I-634999J0D01*
G01*
X175260000Y-134620001D02*
G75*
G03*
X176530001Y-133350000I0J1270001D01*
G01*
X177165000Y-121284999D02*
X178435000Y-121284999D01*
X177165000Y-125095001D02*
X178435000Y-125095001D01*
X177165000Y-132715001D02*
X178435000Y-132715001D01*
X224790000Y-123190000D02*
G75*
G03*
X219709999Y-118110000I-5080000J0D01*
G01*
X178435000Y-126364999D02*
G75*
G03*
X179069999Y-125730000I0J634999D01*
G01*
X176530001Y-125730000D02*
G75*
G03*
X177165000Y-126364999I634999J0D01*
G01*
X177165000Y-122555001D02*
X178435000Y-122555001D01*
X223519999Y-135890001D02*
X180340000Y-135890001D01*
X179069999Y-133350000D02*
G75*
G03*
X178435000Y-132715001I-634999J0D01*
G01*
X179070000Y-119380000D02*
X179069999Y-120650000D01*
X179069998Y-134620000D02*
X179069999Y-133350000D01*
X177165000Y-127635001D02*
X178435000Y-127635001D01*
X180340000Y-118110000D02*
X219709999Y-118110000D01*
X176530001Y-130810000D02*
G75*
G03*
X177165000Y-131444999I634999J0D01*
G01*
X179069999Y-123190000D02*
G75*
G03*
X178435000Y-122555001I-634999J0D01*
G01*
X180340000Y-118110000D02*
G75*
G03*
X179070000Y-119380000I0J-1270000D01*
G01*
X177165000Y-123824999D02*
X178435000Y-123824999D01*
X178435000Y-131444999D02*
G75*
G03*
X179069999Y-130810000I0J634999D01*
G01*
X128270000Y-119380000D02*
G75*
G03*
X127000000Y-120650000I0J-1270000D01*
G01*
X176530001Y-123190000D02*
G75*
G03*
X177165000Y-123824999I634999J0D01*
G01*
X177165000Y-128904999D02*
X178435000Y-128904999D01*
X176530001Y-120650000D02*
G75*
G03*
X177165000Y-121284999I634999J0D01*
G01*
M02*
